<svg width="360" height="425" viewBox="0 0 360 425" fill="none" xmlns="http://www.w3.org/2000/svg">
<path d="M145.25 3.22623C129.125 8.42932 108.892 23.4265 103.416 33.9858C99.6131 41.6374 95.0494 59.2362 88.0518 93.3624C84.2488 112.492 78.7724 137.436 75.8821 148.913C72.9918 160.391 70.71 170.491 70.71 171.562C70.71 174.929 62.7997 193.446 57.7797 201.863C53.8245 208.443 52.6075 209.514 50.9342 207.984C49.1087 206.454 49.1087 206.607 50.4778 208.443C51.8469 210.279 50.9342 213.34 46.6748 222.216C41.6548 232.469 41.0463 234.918 41.0463 245.936C41.0463 257.413 41.5027 258.791 47.1312 268.585C50.4778 274.4 54.1288 280.521 55.0415 282.358C56.1063 284.194 56.7148 286.643 56.2585 287.714C55.8021 288.938 56.2585 289.244 57.3233 288.632C58.5403 287.867 58.6924 288.326 58.0839 290.162C57.4754 291.54 57.6276 292.458 58.3882 291.999C59.9094 291.081 66.1464 309.291 66.1464 314.801C66.1464 316.79 65.5379 318.933 64.6251 319.392C62.7997 320.463 62.4954 326.278 64.3209 326.278C67.3633 326.125 73.9045 318.626 76.0342 312.658C78.7724 304.547 78.7724 304.394 76.4906 305.925C75.4258 306.537 75.73 305.16 77.2512 302.864C80.1415 298.426 80.75 294.141 78.3161 294.141C76.1864 294.141 73.7524 299.497 73.6003 304.394C73.6003 306.69 73.1439 307.761 72.6876 306.69C72.3833 305.772 71.4706 305.16 70.71 305.619C70.1015 306.078 69.7973 305.007 70.2536 303.323C71.0142 300.263 67.6676 291.081 65.69 291.081C65.0815 291.081 64.7773 288.479 65.2336 285.265C65.69 282.205 65.69 280.827 65.2336 282.205C64.7773 283.735 63.8645 284.959 63.1039 284.959C62.3433 284.959 62.1912 283.888 62.6476 282.358C63.4082 280.521 63.1039 280.215 61.5827 281.133C60.2136 281.899 59.9094 281.746 60.67 280.521C61.2785 279.603 60.3657 276.389 58.5403 273.482L55.1936 268.126H58.3882C60.2136 268.126 61.5827 267.361 61.5827 266.595C61.5827 264.3 57.4754 264.759 54.8894 267.514C53.5203 268.738 52.4554 269.197 52.4554 268.279C52.4554 267.514 53.216 266.289 53.9766 265.83C54.8894 265.371 55.4978 263.688 55.4978 262.31C55.4978 260.015 55.1936 260.015 53.9766 262.004C52.7597 263.994 52.3033 263.841 50.3257 261.239C49.1087 259.556 48.5003 257.872 48.8045 257.413C49.2609 257.107 50.1736 257.719 50.7821 258.791C51.5427 259.862 52.9118 260.321 53.8245 259.862C54.7372 259.25 57.3233 260.015 59.7573 261.698C62.0391 263.229 65.69 265.065 67.9718 265.677C70.4058 266.136 72.0791 267.207 71.7748 267.973C71.6227 268.738 72.8397 270.421 74.3609 271.645C76.6427 273.329 77.2512 275.624 77.2512 283.276C77.0991 290.468 77.5555 292.611 79.2288 292.611C82.1191 292.611 81.8149 270.268 78.7724 267.361C77.7076 266.289 71.1664 262.463 64.1688 258.944C44.6972 248.997 44.393 248.844 45.7621 239.203C46.5227 232.775 47.1312 231.551 48.3481 233.693C49.1087 235.071 49.2609 239.049 48.8045 242.263C48.196 245.936 48.5003 248.231 49.413 248.231C50.3257 248.231 50.9342 244.253 50.9342 239.049C50.9342 232.622 51.5427 230.021 52.7597 230.327C53.8245 230.48 54.7372 228.949 54.7372 226.807C55.0415 221.298 57.0191 216.095 58.6924 216.095C59.6051 216.095 59.9094 214.105 59.453 211.045C58.8445 207.984 58.9966 207.219 59.7573 209.055C60.9742 211.657 61.1263 211.657 63.4082 207.984C64.7773 205.994 65.5379 202.781 65.0815 201.097C64.6251 199.108 65.5379 196.047 67.5154 193.293C69.3409 190.844 70.71 188.09 70.71 187.171C70.71 186.253 71.7748 185.488 72.9918 185.488C74.2088 185.488 75.2736 184.111 75.2736 182.58C75.2736 180.897 76.0342 179.061 76.947 178.449C77.8597 177.989 78.3161 175.847 77.8597 173.858C77.5555 171.868 78.0118 170.491 78.9246 170.644C79.8373 170.797 80.4458 169.726 80.1415 168.042C79.8373 166.512 80.2937 165.594 81.0543 166.053C83.184 167.43 86.2264 156.871 85.1615 151.362C84.5531 148.454 85.1615 142.639 86.3785 137.895C87.5955 133.304 88.5082 127.489 88.5082 125.04C88.204 121.52 88.8125 120.602 90.9422 120.908C92.4634 121.214 93.5282 120.449 93.5282 118.919C93.5282 117.542 92.9197 116.929 92.007 117.389C90.0294 118.613 90.0294 114.634 91.8549 112.645C92.6155 111.879 93.5282 109.125 93.9846 106.676C94.2888 104.075 94.7452 106.217 94.8973 111.267C95.0494 116.317 95.81 121.52 96.5706 122.745C97.4834 124.122 97.7876 114.481 97.3313 95.964C97.027 76.6819 97.1791 70.2545 98.0919 76.8349C100.83 99.1777 99.1567 137.13 95.3537 143.404C94.7452 144.169 94.5931 146.159 94.7452 147.536C95.0494 149.066 94.4409 150.291 93.6803 150.291C92.7676 150.291 92.007 151.209 92.007 152.433C92.007 153.657 91.0943 155.647 90.0294 156.718C88.3561 158.401 88.3561 159.473 90.0294 163.298L92.1591 167.889L91.3985 163.451C90.9422 160.085 92.1591 157.024 96.1143 151.362C100.222 145.547 100.982 143.404 99.461 142.486C97.9397 141.568 97.7876 140.496 99.1567 137.742C100.83 134.528 101.591 131.468 105.394 112.032C106.763 105.299 106.915 105.299 107.067 110.502C107.371 118.613 114.217 125.04 116.803 119.684C117.259 118.766 117.411 118.919 117.259 119.99C116.955 121.061 117.716 125.346 118.933 129.325C120.149 133.457 120.758 137.895 120.454 139.272C119.997 140.956 119.693 140.496 119.541 138.048C118.933 127.795 117.107 132.386 116.803 144.628C116.499 152.28 115.586 160.85 114.673 163.604C113.76 166.359 113.608 169.267 114.065 170.185C114.673 171.103 114.217 172.786 113.304 174.011C112.391 175.235 111.174 180.438 110.718 185.794C109.957 196.047 109.197 198.037 107.523 195.129C106.763 193.905 105.546 193.752 104.177 194.67C102.199 195.894 102.351 196.2 104.633 196.2C106.002 196.2 107.219 196.812 107.219 197.731C107.219 200.332 103.872 199.414 98.5482 195.282C95.81 193.14 92.9197 191.762 92.3112 192.222C90.4858 193.293 82.4234 186.406 81.967 183.193C81.8149 181.662 82.5755 179.52 83.6403 178.296C87.1391 174.929 89.5731 164.064 87.4434 161.921C86.0743 160.697 85.77 161.156 86.6828 163.91C87.4434 166.359 87.2912 167.124 86.0743 166.512C85.1615 165.9 84.0967 167.277 83.4882 169.726C82.8797 172.021 81.3585 174.929 80.2937 176.153C79.0767 177.224 78.4682 179.061 78.7724 179.979C79.2288 181.05 78.6203 183.04 77.4033 184.723C75.4258 187.324 75.8821 187.937 81.0543 190.844L86.6828 194.058L87.1391 205.841C87.4434 213.034 89.1167 222.675 91.3985 230.327C93.5282 237.213 95.2016 244.1 95.2016 245.63C95.2016 247.007 95.81 247.925 96.7228 247.466C97.4834 246.854 98.0919 247.313 98.0919 248.231C98.0919 248.997 99.461 252.669 100.982 256.342C102.656 259.862 104.177 263.841 104.633 265.065C105.242 266.595 105.546 266.442 105.546 264.3C105.546 262.617 102.808 254.659 99.461 246.701C91.2464 227.266 88.9646 218.849 88.9646 206.607V196.353L97.7876 200.332C111.783 206.454 111.174 206.76 112.391 193.446C113 187.018 114.521 178.755 115.586 175.235C116.803 171.562 118.933 162.686 120.302 155.341C123.8 135.446 124.105 134.528 124.713 135.293C126.386 136.824 120.91 171.868 117.868 180.132C114.977 187.937 113.76 196.047 115.434 196.812C116.499 197.272 116.499 197.578 115.282 197.578C112.848 197.731 112.696 205.382 114.977 205.382C116.194 205.382 116.499 207.525 115.89 211.657C114.977 218.39 118.476 234.152 123.04 243.64C125.322 248.691 125.474 248.691 124.409 244.406C123.8 241.804 123.344 237.978 123.496 235.683C123.496 233.387 122.888 231.857 122.279 232.316C121.519 232.775 120.91 231.704 120.91 230.021C120.91 228.337 120.302 226.654 119.541 226.195C118.78 225.736 118.172 221.145 118.02 215.942L117.868 206.607L122.127 207.678C124.409 208.29 127.451 209.055 129.125 209.361C132.928 210.126 134.297 211.504 131.254 211.504C128.82 211.504 125.322 219.002 125.626 223.593C125.626 224.97 126.539 223.287 127.603 219.92C129.429 213.952 129.429 214.258 129.733 228.031C130.037 235.836 130.798 243.794 131.559 245.783C132.319 247.925 133.08 253.588 133.232 258.485C133.688 269.503 134.449 272.258 136.426 269.35C137.339 267.973 137.491 268.432 136.883 270.727C136.274 272.717 137.035 275.624 138.556 278.073L140.99 281.899L135.97 282.205C124.713 282.664 125.322 281.286 128.668 299.191C130.95 310.975 128.668 323.83 121.823 336.99C114.217 351.835 113.152 353.518 111.022 355.354C106.002 359.639 109.349 351.069 116.042 342.5C118.172 339.745 119.237 336.99 118.628 334.848C118.324 333.165 118.324 332.552 118.78 333.624C120.91 338.368 126.691 318.933 126.082 308.985C124.865 286.49 123.648 281.133 120.149 282.358C118.78 282.97 118.324 280.827 118.172 274.553C118.172 266.442 115.89 255.118 111.935 242.11C111.022 239.203 110.718 235.377 111.174 233.693C111.783 231.245 111.631 231.092 110.414 232.928C109.501 234.152 108.74 234.918 108.588 234.459C108.588 233.999 107.523 227.419 106.459 219.92C104.785 207.984 104.481 207.219 104.329 213.952C104.177 220.839 110.566 250.068 114.521 260.627C115.89 263.994 116.955 275.624 116.499 281.286C116.194 285.265 93.6803 277.308 86.6828 271.033C85.9221 270.268 84.8573 269.656 84.4009 269.656C82.8797 269.656 83.0318 303.17 84.5531 304.241C86.5306 305.313 86.2264 310.975 84.2488 310.975C83.3361 310.975 83.0318 309.598 83.6403 307.914C84.7052 304.394 83.4882 303.935 80.4458 306.996C77.2512 310.21 77.7076 311.281 84.4009 318.933C87.5955 322.758 89.8773 326.431 89.2688 327.043C88.6603 327.808 88.9646 327.808 90.0294 327.349C91.0943 326.737 93.9846 329.492 97.4834 334.083C102.503 340.969 103.264 343.112 103.872 352.906C104.329 359.792 103.872 365.301 102.808 367.444C100.069 372.647 104.329 373.106 111.631 368.515C114.977 366.373 118.172 364.536 118.78 364.536C123.192 364.536 138.86 343.418 143.272 331.328C147.531 319.698 146.771 290.162 141.903 269.656C133.688 235.836 132.471 211.504 138.252 196.2C139.925 191.915 141.142 183.652 141.446 174.47C141.751 166.359 142.359 158.86 142.816 158.095C143.424 157.177 142.055 155.035 139.925 153.045C131.863 146.006 122.127 122.133 124.561 115.552C125.322 113.563 125.169 113.563 123.344 114.94C122.279 115.858 120.302 116.317 119.085 115.858C112.543 113.257 107.371 87.5472 112.543 82.4971C114.825 80.0486 118.78 80.2016 117.259 82.8032C116.803 83.4153 117.868 84.0274 119.541 84.0274C121.366 84.1805 122.431 83.2623 122.431 81.732C122.431 78.0592 131.254 63.062 133.84 61.9908C135.057 61.5316 136.122 60.3074 136.122 59.0831C136.122 57.8589 136.883 56.7876 137.643 56.7876C138.556 56.6346 140.077 56.4816 141.142 56.3286C142.055 56.1755 142.816 55.2573 142.663 54.3391C142.359 53.2679 144.489 50.9724 147.227 48.983C149.813 47.1466 152.856 44.545 153.768 43.3208C154.833 42.0965 156.202 41.6374 157.419 42.4026C158.788 43.1677 159.093 43.0147 158.332 41.9435C157.723 40.8723 158.028 40.1071 158.788 40.1071C159.701 40.1071 160.766 40.1071 161.222 40.1071C161.679 40.1071 163.352 38.7298 164.873 37.1995C166.547 35.5161 172.479 32.7615 178.108 30.9251C183.888 29.2418 189.821 26.6402 191.494 25.1099C193.168 23.7326 194.081 23.2735 193.472 24.1917C192.864 25.1099 197.123 30.619 202.751 36.4343C219.789 53.88 222.679 63.215 223.288 100.249L223.592 125.04L218.724 134.987C213.856 144.934 199.101 161.615 193.624 163.298C192.103 163.91 190.886 164.829 190.886 165.594C190.886 167.736 197.123 170.644 198.34 169.114C198.948 168.501 201.839 164.829 204.577 161.003C211.727 151.362 217.964 145.7 221.462 145.7C225.57 145.7 225.113 148.148 220.245 152.892C217.811 155.188 217.051 156.412 218.268 155.647C219.485 154.882 219.028 156.106 217.355 158.095C209.749 166.665 207.619 173.552 208.836 186.406L209.901 198.343L216.747 200.485C232.111 205.076 242.607 198.802 247.779 181.968L250.213 174.011L249.453 180.591C247.475 196.966 235.305 209.973 221.919 209.973C217.203 209.973 216.594 210.279 218.268 212.269C221.462 216.095 233.024 215.176 238.956 210.738C246.106 205.229 251.582 192.528 252.647 179.061C255.081 149.831 248.236 83.4153 239.565 50.9724C237.739 44.239 236.218 38.1177 236.066 37.5055C236.066 36.7404 234.697 34.904 233.176 33.2206C231.655 31.6903 230.742 29.3948 231.198 28.1705C231.502 27.0993 231.35 26.4872 230.59 26.9463C229.829 27.4054 227.243 25.569 224.809 22.8144C219.181 16.387 214.921 14.5506 204.273 13.6324C198.036 13.0203 194.081 11.643 190.43 8.88843C178.716 -0.140503 161.983 -2.28296 145.25 3.22623ZM170.654 4.75656C182.063 6.43991 187.539 10.4188 180.694 11.9491C167.459 14.8567 152.247 19.4477 150.726 20.825C149.813 21.7432 146.466 23.8856 143.424 25.569C140.23 27.2523 137.643 29.0887 137.643 29.7009C137.643 30.466 136.883 30.9251 136.122 30.9251C134.145 30.9251 120.91 44.392 120.91 46.3814C120.91 48.83 122.888 47.7587 127.603 42.7086C137.643 31.8433 151.639 22.9674 166.699 18.0704C177.651 14.3976 183.28 13.4794 183.28 15.4688C183.28 16.387 182.671 17.1522 181.759 17.1522C180.998 17.1522 180.237 18.2234 180.237 19.6007C180.237 21.2841 179.325 21.7432 176.891 20.978C174.457 20.3659 174 20.5189 175.37 21.4371C177.956 23.1205 173.696 26.3341 158.484 34.1388C152.703 36.8934 146.771 40.4131 145.25 41.9435C143.728 43.3208 142.055 44.0859 141.599 43.6268C141.142 43.0147 140.686 43.3208 140.686 44.239C140.686 46.2284 133.688 49.4421 127.299 50.3603C122.127 51.1254 119.997 49.5951 111.326 38.7298C108.74 35.5161 108.74 35.2101 111.631 31.0782C118.628 21.2841 145.097 4.90958 150.574 7.05203C151.943 7.51114 152.551 7.35809 152.095 6.59296C151.639 5.82779 153.16 4.75656 155.442 4.4505C157.876 4.14441 160.005 3.68533 160.462 3.68533C160.918 3.53229 165.482 3.99139 170.654 4.75656ZM188.908 18.2234C188.3 18.6825 187.844 18.2234 187.844 17.1522C187.844 16.081 188.3 15.6219 188.908 16.081C189.365 16.6931 189.365 17.6113 188.908 18.2234ZM213.248 20.5189C212.791 21.7432 212.335 21.2841 212.335 19.6007C212.183 17.9174 212.639 16.9991 213.096 17.6113C213.552 18.0704 213.704 19.4477 213.248 20.5189ZM196.514 19.7538C195.906 20.2129 194.993 20.2129 194.385 19.7538C193.928 19.1416 194.385 18.6825 195.45 18.6825C196.514 18.6825 196.971 19.1416 196.514 19.7538ZM201.534 20.978C201.534 21.4371 201.23 21.7432 200.774 21.7432C200.318 21.7432 200.013 21.4371 200.013 20.978C200.013 20.5189 200.318 20.2129 200.774 20.2129C201.23 20.2129 201.534 20.5189 201.534 20.978ZM216.29 22.8144C215.682 23.2735 215.225 22.8144 215.225 21.7432C215.225 20.6719 215.682 20.2129 216.29 20.6719C216.747 21.2841 216.747 22.2023 216.29 22.8144ZM199.557 24.3447C198.948 24.8038 198.036 24.8038 197.427 24.3447C196.971 23.7326 197.427 23.2735 198.492 23.2735C199.557 23.2735 200.013 23.7326 199.557 24.3447ZM215.834 25.722C217.203 26.9463 218.268 27.5584 218.268 26.9463C218.268 26.3341 220.55 28.0175 223.288 30.619C226.026 33.3737 228.764 35.2101 229.221 34.7509C229.677 34.2918 229.829 36.1282 229.525 38.7298C229.221 41.4844 229.373 43.1677 229.981 42.5556C232.263 40.2601 237.739 65.5105 237.892 79.4365C238.044 83.8744 238.652 87.5472 239.565 87.5472C240.325 87.5472 240.63 84.0274 240.325 79.4365C239.869 74.8455 240.478 76.9879 241.847 84.4865C245.65 108.207 245.802 109.278 244.281 108.36C242.759 107.288 243.976 113.41 245.802 115.858C246.41 116.776 247.323 124.581 247.779 133.151C248.236 146.465 248.084 148.607 246.258 147.077C245.041 146.159 244.128 144.475 244.128 143.404C244.128 142.333 242.759 138.201 240.934 134.222C238.652 129.172 237.435 121.827 236.522 108.972C235.61 95.964 234.241 88.0063 231.35 80.0486C229.221 73.9273 227.395 67.653 227.395 65.9696C227.395 60.9195 218.42 39.1889 215.073 36.2813C213.4 34.5979 212.487 32.4554 212.944 31.3842C213.248 30.16 213.096 29.5478 212.335 30.0069C211.574 30.466 208.836 29.7009 205.946 28.3236C201.534 26.0281 201.23 25.722 203.968 24.6508C208.836 22.6614 213.4 23.1205 215.834 25.722ZM227.395 30.16C227.395 30.619 227.091 30.9251 226.635 30.9251C226.178 30.9251 225.874 30.619 225.874 30.16C225.874 29.7009 226.178 29.3948 226.635 29.3948C227.091 29.3948 227.395 29.7009 227.395 30.16ZM107.219 42.4026C106.154 43.7799 104.937 44.392 104.481 43.9329C104.025 43.6268 104.633 42.2495 105.698 40.8723C106.763 39.495 107.98 38.8828 108.436 39.3419C108.892 39.648 108.284 41.0253 107.219 42.4026ZM111.783 44.6981C111.783 45.4632 111.174 46.2284 110.262 46.2284C109.501 46.2284 108.74 45.4632 108.74 44.6981C108.74 43.7799 109.501 43.1677 110.262 43.1677C111.174 43.1677 111.783 43.7799 111.783 44.6981ZM104.177 46.9936C104.177 47.4526 103.872 47.7587 103.416 47.7587C102.96 47.7587 102.656 47.4526 102.656 46.9936C102.656 46.5345 102.96 46.2284 103.416 46.2284C103.872 46.2284 104.177 46.5345 104.177 46.9936ZM113.304 50.0542C114.369 51.2785 115.738 51.8906 116.499 51.4315C117.259 50.9724 117.868 51.2785 117.868 52.0436C117.868 52.8088 119.997 53.88 122.431 54.3391C125.778 55.1043 126.995 56.1755 126.995 58.471C126.995 60.3074 126.234 61.2256 125.474 60.7665C122.583 59.0831 119.085 64.4393 119.693 69.3363C120.149 71.7849 119.845 74.2334 119.085 74.6924C118.476 75.1516 117.868 74.8455 117.868 74.0803C117.868 71.4788 110.566 73.9273 107.067 77.7531C104.177 80.9668 103.568 83.5684 102.656 101.626L101.591 121.98L101.439 104.075C101.286 94.2806 100.678 84.9456 100.222 83.4153C99.461 81.1198 99.6131 81.1198 100.982 82.9562C102.351 84.7926 102.656 84.4865 102.656 81.1198C102.656 78.6713 104.025 76.0698 106.002 74.6924C109.349 72.2439 109.349 72.2439 106.154 72.2439C104.329 72.2439 102.656 71.0197 102.199 69.1833C101.286 65.5105 102.503 60.0013 104.329 60.0013C105.089 60.0013 105.698 59.0831 105.698 57.8589C105.698 54.3391 108.588 47.7587 110.109 47.7587C110.718 47.7587 112.239 48.83 113.304 50.0542ZM102.199 53.4209C101.591 53.88 101.134 53.4209 101.134 52.3497C101.134 51.2785 101.591 50.8194 102.199 51.2785C102.656 51.8906 102.656 52.8088 102.199 53.4209ZM221.31 51.5845C221.31 52.0436 221.006 52.3497 220.55 52.3497C220.093 52.3497 219.789 52.0436 219.789 51.5845C219.789 51.1254 220.093 50.8194 220.55 50.8194C221.006 50.8194 221.31 51.1254 221.31 51.5845ZM136.122 52.9618C136.122 53.4209 135.514 54.1861 134.601 54.6452C133.84 55.1043 133.08 54.7982 133.08 54.0331C133.08 53.1149 133.84 52.3497 134.601 52.3497C135.514 52.3497 136.122 52.6558 136.122 52.9618ZM130.037 54.6452C130.037 55.1043 129.733 55.4103 129.277 55.4103C128.82 55.4103 128.516 55.1043 128.516 54.6452C128.516 54.1861 128.82 53.88 129.277 53.88C129.733 53.88 130.037 54.1861 130.037 54.6452ZM142.207 54.6452C142.207 55.1043 141.903 55.4103 141.446 55.4103C140.99 55.4103 140.686 55.1043 140.686 54.6452C140.686 54.1861 140.99 53.88 141.446 53.88C141.903 53.88 142.207 54.1861 142.207 54.6452ZM99.7652 61.6847C99.0046 63.6741 98.244 64.5923 98.244 63.5211C98.0919 61.2256 99.7652 56.6346 100.526 57.3998C100.982 57.7058 100.526 59.6953 99.7652 61.6847ZM131.559 57.7058C131.559 58.1649 131.254 58.471 130.798 58.471C130.342 58.471 130.037 58.1649 130.037 57.7058C130.037 57.2467 130.342 56.9407 130.798 56.9407C131.254 56.9407 131.559 57.2467 131.559 57.7058ZM124.409 66.8878C123.953 68.2651 123.192 69.0302 122.888 68.5711C122.431 68.1121 122.583 67.1938 123.192 66.2757C124.561 63.8271 125.474 64.2862 124.409 66.8878ZM100.678 76.3758C100.222 77.9061 99.9173 76.9879 99.9173 74.5394C99.9173 71.9379 100.222 70.8666 100.678 71.7849C100.982 72.8561 100.982 74.9985 100.678 76.3758ZM109.957 80.0486C108.436 80.8138 107.067 83.1093 107.067 84.9456C106.915 87.7002 106.763 87.7002 106.154 85.5578C105.394 82.4971 108.132 78.3652 110.87 78.3652C111.783 78.3652 111.326 79.1304 109.957 80.0486ZM105.242 92.4442C104.785 93.6685 104.329 93.2094 104.329 91.526C104.177 89.8427 104.633 88.9245 105.089 89.5366C105.546 89.9957 105.698 91.373 105.242 92.4442ZM107.219 97.4943C107.219 97.9534 106.915 98.2595 106.459 98.2595C106.002 98.2595 105.698 97.9534 105.698 97.4943C105.698 97.0352 106.002 96.7292 106.459 96.7292C106.915 96.7292 107.219 97.0352 107.219 97.4943ZM105.242 103.157C104.785 104.381 104.329 103.922 104.329 102.238C104.177 100.555 104.633 99.6368 105.089 100.249C105.546 100.708 105.698 102.085 105.242 103.157ZM110.262 108.207C110.262 108.666 109.957 108.972 109.501 108.972C109.045 108.972 108.74 108.666 108.74 108.207C108.74 107.747 109.045 107.441 109.501 107.441C109.957 107.441 110.262 107.747 110.262 108.207ZM114.825 119.072C114.825 119.378 113.76 119.225 112.543 118.766C111.326 118.154 110.262 116.011 110.262 113.716V109.737L112.543 114.175C113.76 116.47 114.825 118.766 114.825 119.072ZM88.9646 117.389C88.9646 117.848 88.6603 118.154 88.204 118.154C87.7476 118.154 87.4434 117.848 87.4434 117.389C87.4434 116.929 87.7476 116.623 88.204 116.623C88.6603 116.623 88.9646 116.929 88.9646 117.389ZM232.872 120.755C231.35 122.286 229.981 119.99 231.35 118.001C232.263 116.317 232.567 116.317 233.176 118.001C233.48 119.072 233.328 120.296 232.872 120.755ZM122.431 120.449C122.431 120.908 122.127 121.214 121.671 121.214C121.214 121.214 120.91 120.908 120.91 120.449C120.91 119.99 121.214 119.684 121.671 119.684C122.127 119.684 122.431 119.99 122.431 120.449ZM235.001 132.845C236.675 136.824 238.044 142.18 238.196 144.781C238.196 148.148 238.5 148.76 239.261 146.771C241.086 142.486 245.193 155.8 244.737 164.064C244.128 174.929 242.455 183.958 240.934 183.958C240.325 183.958 240.021 182.733 240.478 181.203C241.238 179.214 241.086 179.061 239.869 180.744C239.108 181.815 238.804 184.111 239.261 185.947C239.717 187.937 239.413 188.702 238.348 187.937C237.435 187.477 235.914 188.396 235.001 190.079C234.088 191.762 232.111 193.14 230.742 193.14C229.221 193.14 227.243 193.905 226.33 194.823C225.113 196.047 223.44 195.588 219.941 192.987C215.986 190.079 215.225 188.396 215.225 183.499C215.225 174.164 218.116 165.594 221.006 166.818C222.527 167.277 222.984 166.971 222.223 165.9C221.767 164.982 222.071 163.757 222.984 163.298C223.744 162.686 224.201 161.156 223.744 159.932C223.136 158.401 223.44 157.942 224.961 158.401C228.156 159.626 231.35 148.607 228.916 144.322C226.635 139.884 228.46 125.805 231.198 125.805C231.502 125.805 233.176 129.019 235.001 132.845ZM125.474 132.692C125.474 133.151 125.169 133.457 124.713 133.457C124.257 133.457 123.953 133.151 123.953 132.692C123.953 132.233 124.257 131.927 124.713 131.927C125.169 131.927 125.474 132.233 125.474 132.692ZM225.874 137.13C225.874 137.589 225.265 138.354 224.353 138.813C223.592 139.272 222.831 138.966 222.831 138.201C222.831 137.283 223.592 136.518 224.353 136.518C225.265 136.518 225.874 136.824 225.874 137.13ZM97.6355 145.24C97.027 145.7 96.5706 145.24 96.5706 144.169C96.5706 143.098 97.027 142.639 97.6355 143.098C98.0919 143.71 98.0919 144.628 97.6355 145.24ZM118.933 151.362C118.476 152.892 118.172 151.974 118.172 149.525C118.172 146.924 118.476 145.853 118.933 146.771C119.237 147.842 119.237 149.984 118.933 151.362ZM128.364 161.003C128.516 157.789 128.82 157.636 130.189 159.473C132.015 161.921 131.559 159.013 129.277 152.586C128.364 150.138 128.82 150.291 131.406 153.351C133.384 155.8 134.297 158.248 133.688 160.238C133.232 161.921 132.319 166.359 131.559 170.185C130.95 174.011 128.82 180.744 127.147 185.182C125.322 189.62 123.953 194.67 123.953 196.2C123.953 197.884 123.344 199.261 122.431 199.261C121.671 199.261 120.91 200.485 120.758 201.863C120.758 204.158 120.454 204.158 119.389 201.556C117.716 197.731 117.411 193.14 119.085 195.741C119.693 196.659 120.302 193.905 120.302 189.62C120.606 179.061 122.431 171.562 124.409 172.786C125.474 173.398 125.626 171.562 125.017 167.124C124.561 163.604 124.713 158.095 125.169 155.035L126.234 149.525L127.147 157.177C127.603 161.309 128.212 163.145 128.364 161.003ZM136.122 154.116C136.122 154.575 135.818 154.882 135.362 154.882C134.905 154.882 134.601 154.575 134.601 154.116C134.601 153.657 134.905 153.351 135.362 153.351C135.818 153.351 136.122 153.657 136.122 154.116ZM137.643 166.665C136.122 172.48 134.297 178.449 133.688 179.979C132.928 182.121 133.08 182.58 134.297 181.815C135.362 181.203 134.753 183.193 132.928 186.1C131.102 189.161 130.037 192.528 130.494 193.599C130.95 194.823 130.037 198.343 128.516 201.71C126.995 204.923 125.626 206.454 125.626 205.076C125.322 200.638 134.905 164.829 137.948 159.013C140.534 153.963 140.534 156.565 137.643 166.665ZM80.9021 160.544C80.2937 161.003 79.8373 160.544 79.8373 159.473C79.8373 158.401 80.2937 157.942 80.9021 158.401C81.3585 159.013 81.3585 159.932 80.9021 160.544ZM123.496 168.961C123.04 170.185 122.583 169.726 122.583 168.042C122.431 166.359 122.888 165.441 123.344 166.053C123.8 166.512 123.953 167.889 123.496 168.961ZM247.171 172.48C247.171 172.939 246.867 173.245 246.41 173.245C245.954 173.245 245.65 172.939 245.65 172.48C245.65 172.021 245.954 171.715 246.41 171.715C246.867 171.715 247.171 172.021 247.171 172.48ZM75.2736 177.071C75.2736 177.53 74.9694 177.836 74.513 177.836C74.0567 177.836 73.7524 177.53 73.7524 177.071C73.7524 176.612 74.0567 176.306 74.513 176.306C74.9694 176.306 75.2736 176.612 75.2736 177.071ZM245.65 177.071C245.65 177.53 245.345 177.836 244.889 177.836C244.433 177.836 244.128 177.53 244.128 177.071C244.128 176.612 244.433 176.306 244.889 176.306C245.345 176.306 245.65 176.612 245.65 177.071ZM135.666 194.211C135.057 194.67 134.601 194.211 134.601 193.14C134.601 192.068 135.057 191.609 135.666 192.068C136.122 192.681 136.122 193.599 135.666 194.211ZM213.704 195.435C213.704 195.894 213.4 196.2 212.944 196.2C212.487 196.2 212.183 195.894 212.183 195.435C212.183 194.976 212.487 194.67 212.944 194.67C213.4 194.67 213.704 194.976 213.704 195.435ZM231.959 196.966C231.959 197.425 231.655 197.731 231.198 197.731C230.742 197.731 230.438 197.425 230.438 196.966C230.438 196.506 230.742 196.2 231.198 196.2C231.655 196.2 231.959 196.506 231.959 196.966ZM132.623 200.332C132.015 200.791 131.559 200.332 131.559 199.261C131.559 198.19 132.015 197.731 132.623 198.19C133.08 198.802 133.08 199.72 132.623 200.332ZM110.262 200.026C110.262 200.485 109.957 200.791 109.501 200.791C109.045 200.791 108.74 200.485 108.74 200.026C108.74 199.567 109.045 199.261 109.501 199.261C109.957 199.261 110.262 199.567 110.262 200.026ZM116.346 201.556C116.346 202.016 116.042 202.322 115.586 202.322C115.129 202.322 114.825 202.016 114.825 201.556C114.825 201.097 115.129 200.791 115.586 200.791C116.042 200.791 116.346 201.097 116.346 201.556ZM62.6476 204.923C62.0391 205.382 61.5827 204.923 61.5827 203.852C61.5827 202.781 62.0391 202.322 62.6476 202.781C63.1039 203.393 63.1039 204.311 62.6476 204.923ZM53.9766 218.237C53.9766 218.696 53.216 219.461 52.1512 220.073C51.0863 220.686 50.9342 220.533 51.5427 219.461C52.6075 217.625 53.9766 217.013 53.9766 218.237ZM53.3681 229.408C52.9118 230.021 52.4554 229.408 52.4554 228.184C52.4554 226.348 52.1512 226.348 50.9342 228.337C50.1736 229.561 49.1087 230.021 48.6524 229.561C48.0439 228.949 48.5003 227.572 49.5651 226.348C51.3906 224.358 51.8469 224.358 52.9118 226.348C53.6724 227.572 53.8245 228.949 53.3681 229.408ZM53.9766 256.648C53.9766 257.107 53.6724 257.413 53.216 257.413C52.7597 257.413 52.4554 257.107 52.4554 256.648C52.4554 256.189 52.7597 255.883 53.216 255.883C53.6724 255.883 53.9766 256.189 53.9766 256.648ZM135.666 258.485C135.057 258.944 134.601 258.485 134.601 257.413C134.601 256.342 135.057 255.883 135.666 256.342C136.122 256.954 136.122 257.872 135.666 258.485ZM86.987 278.379C86.3785 278.838 85.9221 278.379 85.9221 277.308C85.9221 276.236 86.3785 275.777 86.987 276.236C87.4434 276.849 87.4434 277.767 86.987 278.379ZM93.5282 280.368C91.2464 281.899 99.0046 284.347 109.957 285.724C115.738 286.49 117.868 287.408 117.868 289.244C117.868 291.387 118.172 291.387 119.845 289.091C121.366 286.796 121.671 287.255 121.823 292.152C121.975 295.365 122.431 302.099 123.04 307.149C123.8 312.964 123.648 315.566 122.736 314.342C121.062 311.74 119.085 321.993 120.149 327.808C120.606 329.951 120.454 330.716 119.997 329.645C119.389 328.268 118.02 329.798 116.194 333.93C113 341.122 108.74 341.887 107.219 335.46C106.611 333.012 105.242 331.787 103.568 331.787C101.591 332.093 101.439 331.634 102.808 329.951C103.872 328.574 104.025 327.808 102.96 327.808C102.047 327.808 100.982 326.584 100.374 325.054C99.9173 323.37 97.7876 321.381 95.81 320.463C92.7676 319.086 92.007 317.555 91.8549 312.964C91.7028 307.914 91.5506 307.608 90.4858 310.975C89.5731 314.342 89.2688 314.495 88.204 312.046C87.5955 310.669 87.4434 308.373 88.0518 307.149C88.5082 305.925 87.8997 303.935 86.6828 302.711C84.0967 300.109 83.6403 295.672 85.9221 295.672C86.8349 295.672 87.4434 292.611 87.4434 288.938C87.4434 279.756 88.5082 277.461 92.1591 278.379C94.2888 278.991 94.7452 279.603 93.5282 280.368ZM134.145 289.856C133.688 290.928 133.384 290.162 133.384 288.02C133.384 285.877 133.688 285.112 134.145 286.031C134.449 287.102 134.449 288.938 134.145 289.856ZM140.534 296.437C140.534 299.803 139.925 305.619 139.013 309.444C138.1 313.27 137.339 318.626 137.339 321.534C137.339 325.36 136.883 326.125 135.818 324.595C134.753 323.064 134.601 323.37 135.057 325.972C135.514 327.808 135.21 329.033 134.449 328.421C132.471 327.196 132.776 331.481 134.905 333.624C136.274 335.001 136.274 335.46 134.905 335.46C133.84 335.46 133.08 334.695 133.08 333.93C133.08 333.012 132.471 332.399 131.711 332.399C129.733 332.399 126.539 342.653 127.908 344.795C128.516 345.866 128.364 346.172 127.451 345.713C126.082 344.795 118.628 353.059 118.628 355.507C118.628 357.038 108.74 364.842 108.74 363.312C108.74 362.547 109.805 360.863 111.174 359.792C114.977 356.579 124.561 340.969 124.105 338.674C123.953 337.449 124.409 337.143 125.626 337.909C126.995 338.674 127.147 338.215 126.539 336.531C126.082 335.001 126.234 333.93 127.147 333.93C128.06 333.93 128.364 332.399 127.756 330.41C127.147 328.114 127.299 327.655 128.212 329.186C130.037 331.634 132.319 328.727 130.646 325.972C130.037 325.054 130.189 324.748 131.102 325.207C133.688 326.89 137.643 309.598 137.796 296.284C137.796 283.888 140.382 283.888 140.534 296.437ZM131.559 290.468C131.559 291.693 132.319 292.611 133.08 292.611C133.993 292.611 134.601 293.223 134.601 294.141C134.601 297.508 131.711 295.365 130.189 291.081C129.277 288.326 129.277 286.796 130.037 287.255C130.95 287.867 131.559 289.244 131.559 290.468ZM65.69 295.212C65.0815 295.672 64.6251 295.212 64.6251 294.141C64.6251 293.07 65.0815 292.611 65.69 293.07C66.1464 293.682 66.1464 294.6 65.69 295.212ZM136.122 305.466C136.122 305.925 135.514 306.69 134.601 307.149C133.84 307.608 133.08 307.302 133.08 306.537C133.08 305.619 133.84 304.854 134.601 304.854C135.514 304.854 136.122 305.16 136.122 305.466ZM125.474 318.626C125.474 319.392 124.865 320.157 123.953 320.157C123.192 320.157 122.431 319.392 122.431 318.626C122.431 317.708 123.192 317.096 123.953 317.096C124.865 317.096 125.474 317.708 125.474 318.626ZM131.559 317.861C131.559 318.32 131.254 318.626 130.798 318.626C130.342 318.626 130.037 318.32 130.037 317.861C130.037 317.402 130.342 317.096 130.798 317.096C131.254 317.096 131.559 317.402 131.559 317.861ZM121.975 324.289C121.366 324.748 120.91 324.289 120.91 323.217C120.91 322.146 121.366 321.687 121.975 322.146C122.431 322.758 122.431 323.677 121.975 324.289ZM98.0919 323.983C98.0919 324.442 97.7876 324.748 97.3313 324.748C96.8749 324.748 96.5706 324.442 96.5706 323.983C96.5706 323.523 96.8749 323.217 97.3313 323.217C97.7876 323.217 98.0919 323.523 98.0919 323.983ZM139.165 328.574C139.165 329.033 138.86 329.339 138.404 329.339C137.948 329.339 137.643 329.033 137.643 328.574C137.643 328.114 137.948 327.808 138.404 327.808C138.86 327.808 139.165 328.114 139.165 328.574ZM133.08 339.286C133.08 340.51 132.471 341.581 131.559 341.581C130.798 341.581 130.494 340.51 130.95 339.286C131.559 338.062 132.167 336.99 132.471 336.99C132.776 336.99 133.08 338.062 133.08 339.286ZM112.543 343.112C112.087 343.877 111.022 344.642 110.109 344.642C109.349 344.642 108.74 343.877 108.74 343.112C108.74 342.193 109.805 341.581 111.174 341.581C112.391 341.581 113 342.193 112.543 343.112ZM156.659 8.73541C151.639 9.80664 147.075 10.4188 146.466 10.1127C145.858 9.80664 145.097 10.1127 144.489 11.0309C144.033 11.7961 142.511 12.5612 141.294 12.5612C140.077 12.5612 136.426 14.2446 133.232 16.234C130.037 18.3765 127.147 19.7538 126.843 19.6007C126.539 19.2946 124.561 20.825 122.431 22.8144C119.541 25.722 121.519 25.1099 131.559 19.7538C138.708 15.9279 147.227 12.4082 150.574 11.7961L156.659 11.0309L148.596 15.0097C138.1 20.3659 139.469 21.5901 150.27 16.5401C154.681 14.3976 159.397 12.5612 160.614 12.4082C161.831 12.4082 161.374 11.7961 159.701 11.1839C157.876 10.4188 161.374 9.95966 168.524 10.1127C174.913 10.2657 180.237 9.80664 180.237 9.19449C180.237 8.42932 177.956 7.97025 175.065 7.97025C172.175 7.97025 168.98 7.66418 167.764 7.35809C166.699 7.05203 161.679 7.66418 156.659 8.73541ZM166.547 8.73541C166.547 9.19449 166.242 9.50055 165.786 9.50055C165.33 9.50055 165.025 9.19449 165.025 8.73541C165.025 8.27631 165.33 7.97025 165.786 7.97025C166.242 7.97025 166.547 8.27631 166.547 8.73541ZM136.883 21.7432C137.339 22.5083 136.731 23.2735 135.514 23.2735C134.145 23.2735 133.08 23.8856 133.08 24.8038C133.08 25.569 132.167 26.3341 131.102 26.3341C128.973 26.3341 119.389 36.4343 119.389 38.5768C119.389 41.6374 122.127 39.954 125.626 34.904C127.603 31.9964 131.711 28.0175 134.753 26.0281C139.925 22.8144 141.142 20.2129 137.491 20.2129C136.579 20.2129 136.426 20.825 136.883 21.7432ZM167.307 23.2735C166.09 25.2629 168.068 25.2629 171.11 23.2735C173.088 22.0492 173.088 21.7432 170.806 21.7432C169.437 21.7432 167.764 22.3553 167.307 23.2735ZM157.115 26.6402C154.681 27.4054 152.856 28.7827 152.856 29.3948C152.856 30.16 154.985 30.0069 157.419 29.2418C160.005 28.3236 161.983 26.9463 161.983 26.1811C161.983 25.416 161.831 24.8038 161.679 24.9568C161.374 24.9568 159.397 25.722 157.115 26.6402ZM116.346 28.6296C116.346 29.0887 116.651 29.3948 117.107 29.3948C117.563 29.3948 117.868 29.0887 117.868 28.6296C117.868 28.1705 117.563 27.8645 117.107 27.8645C116.651 27.8645 116.346 28.1705 116.346 28.6296ZM121.519 29.7009C120.91 30.7721 121.062 30.9251 122.127 30.313C123.192 29.7009 123.953 28.9357 123.953 28.4766C123.953 27.2523 122.583 27.8645 121.519 29.7009ZM144.489 33.2206C142.055 35.2101 138.86 36.8934 137.796 37.0464C135.97 37.0464 135.818 37.3525 137.491 38.8828C139.013 40.5662 139.773 40.4131 141.142 38.5768C142.207 37.3525 144.793 35.3631 147.227 34.4449C149.509 33.3737 151.334 31.8433 151.334 30.9251C151.334 28.4766 149.357 29.0887 144.489 33.2206ZM113.304 32.4554C113.304 33.5267 113.76 33.9858 114.369 33.5267C114.825 32.9146 114.825 31.9964 114.369 31.3842C113.76 30.9251 113.304 31.3842 113.304 32.4554ZM143.728 39.3419C143.728 39.801 144.033 40.1071 144.489 40.1071C144.945 40.1071 145.25 39.801 145.25 39.3419C145.25 38.8828 144.945 38.5768 144.489 38.5768C144.033 38.5768 143.728 38.8828 143.728 39.3419ZM127.603 46.5345C126.995 47.6057 127.147 47.7587 128.212 47.1466C129.277 46.5345 130.037 45.7693 130.037 45.3102C130.037 44.0859 128.668 44.6981 127.603 46.5345ZM218.268 31.6903C218.268 32.1494 218.572 32.4554 219.028 32.4554C219.485 32.4554 219.789 32.1494 219.789 31.6903C219.789 31.2312 219.485 30.9251 219.028 30.9251C218.572 30.9251 218.268 31.2312 218.268 31.6903ZM224.961 41.9435C226.939 46.3814 229.677 52.5027 231.046 55.4103L233.48 60.7665L232.415 54.6452C231.959 51.2785 230.894 48.2178 230.285 48.0648C229.525 47.7587 228.916 46.8405 228.916 45.9223C228.916 43.3208 224.048 33.9858 222.679 33.9858C221.919 33.9858 222.984 37.6586 224.961 41.9435ZM218.268 36.2813C218.268 36.7404 218.572 37.0464 219.028 37.0464C219.485 37.0464 219.789 36.7404 219.789 36.2813C219.789 35.8222 219.485 35.5161 219.028 35.5161C218.572 35.5161 218.268 35.8222 218.268 36.2813ZM232.872 71.4788C233.48 76.5288 234.088 80.9668 234.393 81.2729C235.762 82.8032 234.849 66.5817 233.48 64.5923C232.415 63.062 232.263 65.2044 232.872 71.4788ZM240.021 100.555C240.021 105.605 240.325 107.441 240.63 104.687C240.934 101.932 240.934 97.8004 240.63 95.5049C240.325 93.2094 240.021 95.5049 240.021 100.555ZM239.565 115.093C239.565 116.164 240.021 116.623 240.63 116.164C241.086 115.552 241.086 114.634 240.63 114.022C240.021 113.563 239.565 114.022 239.565 115.093ZM241.542 127.336C241.542 131.161 241.847 132.692 242.151 130.702C242.455 128.866 242.455 125.805 242.151 123.816C241.847 121.98 241.542 123.51 241.542 127.336ZM116.346 60.3074C116.346 62.1438 116.803 63.062 117.411 62.4499C119.085 60.9195 119.237 56.9407 117.716 56.9407C116.955 56.9407 116.346 58.471 116.346 60.3074ZM238.804 155.035C238.196 155.953 238.044 156.871 238.5 157.33C238.804 157.789 239.565 157.024 240.021 155.647C241.086 153.045 240.173 152.586 238.804 155.035ZM224.505 168.042C224.505 169.726 224.961 170.185 225.418 168.961C225.874 167.889 225.722 166.512 225.265 166.053C224.809 165.441 224.353 166.359 224.505 168.042ZM239.717 172.633C239.717 174.317 240.173 174.776 240.63 173.552C241.086 172.48 240.934 171.103 240.478 170.644C240.021 170.032 239.565 170.95 239.717 172.633ZM128.82 169.42C128.82 171.868 129.125 172.786 129.581 171.256C129.885 169.879 129.885 167.736 129.581 166.665C129.125 165.747 128.82 166.818 128.82 169.42ZM126.995 176.306C126.995 177.377 127.451 177.836 128.06 177.377C128.516 176.765 128.516 175.847 128.06 175.235C127.451 174.776 126.995 175.235 126.995 176.306ZM89.4209 286.49C89.4209 290.315 89.7252 291.846 90.0294 289.856C90.3337 288.02 90.3337 284.959 90.0294 282.97C89.7252 281.133 89.4209 282.664 89.4209 286.49ZM88.9646 298.732C88.9646 299.803 89.4209 300.263 90.0294 299.803C90.4858 299.191 90.4858 298.273 90.0294 297.661C89.4209 297.202 88.9646 297.661 88.9646 298.732ZM118.78 299.497C118.324 300.722 118.628 301.793 119.389 301.793C120.302 301.793 120.91 300.722 120.91 299.497C120.91 298.273 120.606 297.202 120.302 297.202C119.997 297.202 119.389 298.273 118.78 299.497ZM121.214 307.914C121.214 310.057 121.519 310.822 121.975 309.751C122.279 308.832 122.279 306.996 121.975 305.925C121.519 305.007 121.214 305.772 121.214 307.914ZM116.346 315.413C116.346 316.331 116.955 317.402 117.868 317.861C118.78 318.32 118.933 317.708 118.476 316.484C117.411 313.729 116.346 313.27 116.346 315.413ZM95.5058 318.167C96.1143 318.626 97.027 318.626 97.6355 318.167C98.0919 317.555 97.6355 317.096 96.5706 317.096C95.5058 317.096 95.0494 317.555 95.5058 318.167ZM99.6131 319.698C99.6131 320.463 100.678 322.146 101.743 323.677C103.72 326.278 103.872 326.125 103.568 322.605C103.568 320.31 102.503 318.626 101.591 318.626C100.526 318.626 99.6131 319.086 99.6131 319.698ZM116.346 324.748C116.346 325.819 116.803 326.278 117.411 325.819C117.868 325.207 117.868 324.289 117.411 323.677C116.803 323.217 116.346 323.677 116.346 324.748ZM116.346 356.119C116.346 356.579 116.651 356.885 117.107 356.885C117.563 356.885 117.868 356.579 117.868 356.119C117.868 355.66 117.563 355.354 117.107 355.354C116.651 355.354 116.346 355.66 116.346 356.119ZM183.28 1.08377C183.28 1.54288 183.584 1.84894 184.04 1.84894C184.497 1.84894 184.801 1.54288 184.801 1.08377C184.801 0.624664 184.497 0.318604 184.04 0.318604C183.584 0.318604 183.28 0.624664 183.28 1.08377ZM130.037 5.67474C130.037 6.13385 130.342 6.43991 130.798 6.43991C131.254 6.43991 131.559 6.13385 131.559 5.67474C131.559 5.21564 131.254 4.90958 130.798 4.90958C130.342 4.90958 130.037 5.21564 130.037 5.67474ZM189.365 5.67474C189.365 6.13385 189.669 6.43991 190.125 6.43991C190.582 6.43991 190.886 6.13385 190.886 5.67474C190.886 5.21564 190.582 4.90958 190.125 4.90958C189.669 4.90958 189.365 5.21564 189.365 5.67474ZM122.431 11.7961C122.431 12.2552 122.736 12.5612 123.192 12.5612C123.648 12.5612 123.953 12.2552 123.953 11.7961C123.953 11.3369 123.648 11.0309 123.192 11.0309C122.736 11.0309 122.431 11.3369 122.431 11.7961ZM218.268 14.8567C218.268 15.3158 218.572 15.6219 219.028 15.6219C219.485 15.6219 219.789 15.3158 219.789 14.8567C219.789 14.3976 219.485 14.0916 219.028 14.0916C218.572 14.0916 218.268 14.3976 218.268 14.8567ZM222.831 14.8567C222.831 15.3158 223.136 15.6219 223.592 15.6219C224.048 15.6219 224.353 15.3158 224.353 14.8567C224.353 14.3976 224.048 14.0916 223.592 14.0916C223.136 14.0916 222.831 14.3976 222.831 14.8567ZM236.522 24.0387C236.522 24.4978 236.827 24.8038 237.283 24.8038C237.739 24.8038 238.044 24.4978 238.044 24.0387C238.044 23.5796 237.739 23.2735 237.283 23.2735C236.827 23.2735 236.522 23.5796 236.522 24.0387ZM289.917 25.569C287.179 26.7932 284.136 27.4054 283.072 26.7932C282.159 26.3341 281.855 26.4872 282.615 27.0993C283.224 27.8645 282.615 29.5478 281.246 31.0782C278.052 34.5979 279.116 39.0359 283.224 39.3419C285.201 39.495 286.114 38.8828 285.658 37.6586C285.353 36.5873 287.027 34.5979 289.613 33.2206C292.199 31.9964 294.329 31.2312 294.329 31.8433C294.329 32.4554 295.393 31.9964 296.61 30.9251C299.501 28.4766 309.845 30.313 313.648 33.8327C318.364 38.4237 320.646 45.4632 318.972 50.3603C318.212 52.6558 316.843 54.4922 315.93 54.3391C315.017 54.0331 314.561 54.7982 315.017 55.8694C315.321 56.9407 314.409 59.2362 312.583 60.7665C310.91 62.2968 309.541 63.062 309.541 62.6029C309.541 61.9908 306.346 64.5923 302.543 68.1121C296.61 73.7743 295.393 75.7637 294.785 82.038C294.024 88.6184 294.176 89.3836 296.763 88.7715C298.436 88.4654 299.957 86.476 300.413 83.7214C301.022 81.1198 302.391 77.6001 303.456 75.9167C305.586 72.397 314.104 66.7348 316.082 67.3469C316.843 67.4999 316.995 67.0408 316.386 66.2757C315.93 65.3575 316.843 63.9802 318.364 63.215C322.623 60.9195 326.274 52.1967 326.274 44.239C326.274 38.5768 325.361 36.4343 320.646 30.9251C315.169 24.8038 314.409 24.4978 304.977 23.8856C298.132 23.4265 293.568 23.8856 289.917 25.569ZM320.189 24.0387C320.189 24.4978 320.493 24.8038 320.95 24.8038C321.406 24.8038 321.71 24.4978 321.71 24.0387C321.71 23.5796 321.406 23.2735 320.95 23.2735C320.493 23.2735 320.189 23.5796 320.189 24.0387ZM277.595 27.0993C277.595 27.5584 277.899 27.8645 278.356 27.8645C278.812 27.8645 279.116 27.5584 279.116 27.0993C279.116 26.6402 278.812 26.3341 278.356 26.3341C277.899 26.3341 277.595 26.6402 277.595 27.0993ZM193.928 33.2206C193.928 33.6797 194.233 33.9858 194.689 33.9858C195.145 33.9858 195.45 33.6797 195.45 33.2206C195.45 32.7615 195.145 32.4554 194.689 32.4554C194.233 32.4554 193.928 32.7615 193.928 33.2206ZM297.371 33.2206C297.371 33.6797 297.675 33.9858 298.132 33.9858C298.588 33.9858 298.892 33.6797 298.892 33.2206C298.892 32.7615 298.588 32.4554 298.132 32.4554C297.675 32.4554 297.371 32.7615 297.371 33.2206ZM190.886 34.7509C190.886 35.2101 191.19 35.5161 191.647 35.5161C192.103 35.5161 192.407 35.2101 192.407 34.7509C192.407 34.2918 192.103 33.9858 191.647 33.9858C191.19 33.9858 190.886 34.2918 190.886 34.7509ZM276.074 39.3419C276.074 39.801 276.378 40.1071 276.835 40.1071C277.291 40.1071 277.595 39.801 277.595 39.3419C277.595 38.8828 277.291 38.5768 276.835 38.5768C276.378 38.5768 276.074 38.8828 276.074 39.3419ZM282.159 42.4026C282.159 42.8617 282.463 43.1677 282.919 43.1677C283.376 43.1677 283.68 42.8617 283.68 42.4026C283.68 41.9435 283.376 41.6374 282.919 41.6374C282.463 41.6374 282.159 41.9435 282.159 42.4026ZM277.595 43.9329C277.595 44.392 277.899 44.6981 278.356 44.6981C278.812 44.6981 279.116 44.392 279.116 43.9329C279.116 43.4738 278.812 43.1677 278.356 43.1677C277.899 43.1677 277.595 43.4738 277.595 43.9329ZM285.201 43.9329C285.201 44.392 285.506 44.6981 285.962 44.6981C286.418 44.6981 286.723 44.392 286.723 43.9329C286.723 43.4738 286.418 43.1677 285.962 43.1677C285.506 43.1677 285.201 43.4738 285.201 43.9329ZM161.983 45.4632C161.983 45.9223 162.287 46.2284 162.743 46.2284C163.2 46.2284 163.504 45.9223 163.504 45.4632C163.504 45.0041 163.2 44.6981 162.743 44.6981C162.287 44.6981 161.983 45.0041 161.983 45.4632ZM151.334 50.0542C151.334 50.5133 151.639 50.8194 152.095 50.8194C152.551 50.8194 152.856 50.5133 152.856 50.0542C152.856 49.5951 152.551 49.289 152.095 49.289C151.639 49.289 151.334 49.5951 151.334 50.0542ZM143.728 57.7058C143.728 58.1649 144.033 58.471 144.489 58.471C144.945 58.471 145.25 58.1649 145.25 57.7058C145.25 57.2467 144.945 56.9407 144.489 56.9407C144.033 56.9407 143.728 57.2467 143.728 57.7058ZM304.977 60.7665C304.977 61.2256 305.281 61.5316 305.738 61.5316C306.194 61.5316 306.498 61.2256 306.498 60.7665C306.498 60.3074 306.194 60.0013 305.738 60.0013C305.281 60.0013 304.977 60.3074 304.977 60.7665ZM180.237 62.2968C180.237 62.7559 180.542 63.062 180.998 63.062C181.454 63.062 181.759 62.7559 181.759 62.2968C181.759 61.8377 181.454 61.5316 180.998 61.5316C180.542 61.5316 180.237 61.8377 180.237 62.2968ZM201.839 63.215C193.928 64.7453 186.931 67.959 187.387 69.9485C187.996 73.6212 192.255 74.3864 197.731 71.7849C204.881 68.4181 213.096 68.4181 215.073 71.7849C215.986 73.3152 216.747 73.7743 216.747 73.0091C216.747 72.0909 217.507 72.55 218.268 73.7743C219.485 75.7637 219.789 75.7637 219.789 73.6212C219.789 71.4788 210.053 61.0725 208.684 61.6847C208.532 61.8377 205.49 62.4499 201.839 63.215ZM300.413 64.5923C300.413 65.6635 300.87 66.1226 301.478 65.6635C301.935 65.0514 301.935 64.1332 301.478 63.5211C300.87 63.062 300.413 63.5211 300.413 64.5923ZM163.504 65.3575C163.504 65.8166 163.808 66.1226 164.265 66.1226C164.721 66.1226 165.025 65.8166 165.025 65.3575C165.025 64.8984 164.721 64.5923 164.265 64.5923C163.808 64.5923 163.504 64.8984 163.504 65.3575ZM133.384 71.3257C130.798 74.2334 128.516 76.3758 128.212 76.0698C127.908 75.7637 127.603 76.8349 127.603 78.3652C127.603 81.732 129.277 82.3441 130.798 79.8956C131.406 78.9774 132.319 78.6713 133.08 79.1304C133.688 79.5895 134.145 78.6713 133.993 77.141C133.993 75.6107 134.905 74.6924 136.426 74.6924C137.948 74.8455 138.708 74.2334 138.1 73.4682C137.187 71.7849 147.531 72.55 158.636 74.6924C163.048 75.6107 163.504 75.3046 163.504 71.7849C163.504 67.4999 159.397 66.1226 146.01 66.1226C138.708 66.1226 137.491 66.5817 133.384 71.3257ZM320.189 66.8878C320.189 67.3469 320.493 67.653 320.95 67.653C321.406 67.653 321.71 67.3469 321.71 66.8878C321.71 66.4287 321.406 66.1226 320.95 66.1226C320.493 66.1226 320.189 66.4287 320.189 66.8878ZM131.559 68.4181C131.559 68.8772 131.863 69.1833 132.319 69.1833C132.776 69.1833 133.08 68.8772 133.08 68.4181C133.08 67.959 132.776 67.653 132.319 67.653C131.863 67.653 131.559 67.959 131.559 68.4181ZM314.104 69.9485C314.104 70.4075 314.409 70.7136 314.865 70.7136C315.321 70.7136 315.626 70.4075 315.626 69.9485C315.626 69.4893 315.321 69.1833 314.865 69.1833C314.409 69.1833 314.104 69.4893 314.104 69.9485ZM292.807 73.0091C292.807 73.4682 293.112 73.7743 293.568 73.7743C294.024 73.7743 294.329 73.4682 294.329 73.0091C294.329 72.55 294.024 72.2439 293.568 72.2439C293.112 72.2439 292.807 72.55 292.807 73.0091ZM207.619 76.0698C207.619 76.5288 207.924 76.8349 208.38 76.8349C208.836 76.8349 209.141 76.5288 209.141 76.0698C209.141 75.6107 208.836 75.3046 208.38 75.3046C207.924 75.3046 207.619 75.6107 207.619 76.0698ZM289.765 76.0698C289.765 76.5288 290.069 76.8349 290.526 76.8349C290.982 76.8349 291.286 76.5288 291.286 76.0698C291.286 75.6107 290.982 75.3046 290.526 75.3046C290.069 75.3046 289.765 75.6107 289.765 76.0698ZM154.377 77.6001C154.377 78.0592 154.681 78.3652 155.137 78.3652C155.594 78.3652 155.898 78.0592 155.898 77.6001C155.898 77.141 155.594 76.8349 155.137 76.8349C154.681 76.8349 154.377 77.141 154.377 77.6001ZM218.268 77.6001C218.268 78.0592 218.572 78.3652 219.028 78.3652C219.485 78.3652 219.789 78.0592 219.789 77.6001C219.789 77.141 219.485 76.8349 219.028 76.8349C218.572 76.8349 218.268 77.141 218.268 77.6001ZM137.643 79.1304C137.643 79.5895 137.948 79.8956 138.404 79.8956C138.86 79.8956 139.165 79.5895 139.165 79.1304C139.165 78.6713 138.86 78.3652 138.404 78.3652C137.948 78.3652 137.643 78.6713 137.643 79.1304ZM152.856 80.6607C152.856 81.1198 153.16 81.4259 153.616 81.4259C154.073 81.4259 154.377 81.1198 154.377 80.6607C154.377 80.2016 154.073 79.8956 153.616 79.8956C153.16 79.8956 152.856 80.2016 152.856 80.6607ZM194.385 84.6396C187.996 89.0775 185.562 92.7503 187.235 95.5049C188.604 97.6473 197.731 101.32 201.534 101.32C207.315 101.32 204.577 98.5656 197.427 97.3413C193.624 96.5761 190.125 95.0458 189.669 93.8215C189.213 92.5973 189.669 92.1382 190.734 92.7503C191.799 93.5155 192.103 92.9034 191.494 91.526C190.582 89.2306 192.407 88.3123 195.906 88.9245C196.667 89.0775 196.667 88.3123 196.058 87.2411C195.602 86.1699 196.819 87.0881 199.101 89.3836C201.687 92.1382 204.729 93.6685 207.619 93.6685C209.901 93.6685 212.335 94.5867 212.791 95.5049C213.248 96.5761 213.248 95.964 212.791 94.1276C212.183 91.373 212.791 90.3018 215.986 89.0775C220.398 87.3942 219.941 85.2517 214.921 84.0274C212.944 83.5684 208.988 82.4971 205.946 81.732C201.23 80.5077 199.861 80.9668 194.385 84.6396ZM204.729 88.3123C204.577 90.6078 201.078 90.1487 200.318 87.8533C199.861 86.476 200.622 85.8638 202.143 86.3229C203.664 86.476 204.729 87.3942 204.729 88.3123ZM130.037 83.7214C130.037 84.1805 130.342 84.4865 130.798 84.4865C131.254 84.4865 131.559 84.1805 131.559 83.7214C131.559 83.2623 131.254 82.9562 130.798 82.9562C130.342 82.9562 130.037 83.2623 130.037 83.7214ZM133.08 86.9351C129.581 89.9957 128.82 91.373 130.342 92.2912C131.559 93.0564 133.536 92.4442 135.514 90.4548C137.187 88.9245 139.165 88.0063 139.925 88.6184C140.534 89.3836 140.686 88.9245 140.077 87.8533C138.708 85.7108 144.641 85.2517 146.01 87.5472C146.466 88.3123 147.836 88.6184 149.053 88.0063C152.247 86.9351 151.943 90.1487 148.748 91.9851C146.466 93.2094 146.314 93.5155 148.292 94.2806C152.703 95.8109 163.504 96.2701 163.504 94.8928C163.504 84.1805 142.816 78.8243 133.08 86.9351ZM288.244 83.7214C288.244 84.1805 288.548 84.4865 289.004 84.4865C289.461 84.4865 289.765 84.1805 289.765 83.7214C289.765 83.2623 289.461 82.9562 289.004 82.9562C288.548 82.9562 288.244 83.2623 288.244 83.7214ZM177.195 85.2517C177.195 85.7108 177.499 86.0169 177.956 86.0169C178.412 86.0169 178.716 85.7108 178.716 85.2517C178.716 84.7926 178.412 84.4865 177.956 84.4865C177.499 84.4865 177.195 84.7926 177.195 85.2517ZM143.728 89.8427C143.728 90.3018 144.033 90.6078 144.489 90.6078C144.945 90.6078 145.25 90.3018 145.25 89.8427C145.25 89.3836 144.945 89.0775 144.489 89.0775C144.033 89.0775 143.728 89.3836 143.728 89.8427ZM183.28 89.8427C183.28 90.3018 183.584 90.6078 184.04 90.6078C184.497 90.6078 184.801 90.3018 184.801 89.8427C184.801 89.3836 184.497 89.0775 184.04 89.0775C183.584 89.0775 183.28 89.3836 183.28 89.8427ZM119.389 92.1382C119.389 93.2094 119.845 93.6685 120.454 93.2094C120.91 92.5973 120.91 91.6791 120.454 91.067C119.845 90.6078 119.389 91.067 119.389 92.1382ZM333.88 91.373C333.88 91.8321 334.184 92.1382 334.641 92.1382C335.097 92.1382 335.401 91.8321 335.401 91.373C335.401 90.9139 335.097 90.6078 334.641 90.6078C334.184 90.6078 333.88 90.9139 333.88 91.373ZM138.252 94.2806C136.122 99.9428 149.053 104.993 157.419 101.473C160.918 100.096 160.766 99.9428 155.137 99.7898C147.075 99.3307 141.446 97.8004 141.446 95.6579C141.446 92.5973 139.317 91.6791 138.252 94.2806ZM140.686 94.4337C140.686 94.8928 140.382 95.1988 139.925 95.1988C139.469 95.1988 139.165 94.8928 139.165 94.4337C139.165 93.9746 139.469 93.6685 139.925 93.6685C140.382 93.6685 140.686 93.9746 140.686 94.4337ZM193.928 94.4337C193.928 94.8928 194.233 95.1988 194.689 95.1988C195.145 95.1988 195.45 94.8928 195.45 94.4337C195.45 93.9746 195.145 93.6685 194.689 93.6685C194.233 93.6685 193.928 93.9746 193.928 94.4337ZM134.601 95.964C134.601 96.4231 134.905 96.7292 135.362 96.7292C135.818 96.7292 136.122 96.4231 136.122 95.964C136.122 95.5049 135.818 95.1988 135.362 95.1988C134.905 95.1988 134.601 95.5049 134.601 95.964ZM145.25 95.964C145.25 96.4231 145.554 96.7292 146.01 96.7292C146.466 96.7292 146.771 96.4231 146.771 95.964C146.771 95.5049 146.466 95.1988 146.01 95.1988C145.554 95.1988 145.25 95.5049 145.25 95.964ZM294.329 95.964C294.329 96.4231 294.633 96.7292 295.089 96.7292C295.546 96.7292 295.85 96.4231 295.85 95.964C295.85 95.5049 295.546 95.1988 295.089 95.1988C294.633 95.1988 294.329 95.5049 294.329 95.964ZM323.688 97.0352C323.992 98.1064 326.426 99.0246 329.012 99.0246C333.88 99.1777 342.095 104.075 341.486 106.523C341.334 107.288 342.095 108.36 343.007 108.972C345.289 110.349 343.92 115.093 339.813 119.378C337.531 121.98 335.097 122.745 329.317 122.745C320.493 122.745 314.865 124.581 313.496 128.101C311.823 132.539 314.104 133.61 318.212 130.396C320.493 128.713 324.449 127.336 327.491 127.336C335.401 127.336 343.768 124.428 346.05 120.755C349.549 115.093 350.461 107.747 348.027 105.758C346.963 104.687 346.354 102.85 346.811 101.473C347.267 100.249 347.267 99.6368 346.658 100.249C346.05 100.708 343.768 99.9428 341.486 98.2595C336.466 94.7397 322.471 93.8215 323.688 97.0352ZM113.304 101.32C113.304 102.391 113.76 102.85 114.369 102.391C114.825 101.779 114.825 100.861 114.369 100.249C113.76 99.7898 113.304 100.249 113.304 101.32ZM329.317 102.085C329.317 102.544 329.621 102.85 330.077 102.85C330.533 102.85 330.838 102.544 330.838 102.085C330.838 101.626 330.533 101.32 330.077 101.32C329.621 101.32 329.317 101.626 329.317 102.085ZM358.22 102.085C358.22 102.544 358.524 102.85 358.98 102.85C359.437 102.85 359.741 102.544 359.741 102.085C359.741 101.626 359.437 101.32 358.98 101.32C358.524 101.32 358.22 101.626 358.22 102.085ZM295.546 103.922C292.655 104.687 290.982 108.054 292.199 111.267C293.568 114.787 299.957 114.175 301.174 110.349C302.391 106.523 299.349 103.003 295.546 103.922ZM336.923 105.146C336.923 105.605 337.227 105.911 337.683 105.911C338.14 105.911 338.444 105.605 338.444 105.146C338.444 104.687 338.14 104.381 337.683 104.381C337.227 104.381 336.923 104.687 336.923 105.146ZM333.88 106.676C333.88 107.135 334.184 107.441 334.641 107.441C335.097 107.441 335.401 107.135 335.401 106.676C335.401 106.217 335.097 105.911 334.641 105.911C334.184 105.911 333.88 106.217 333.88 106.676ZM120.91 109.737C120.91 110.196 121.214 110.502 121.671 110.502C122.127 110.502 122.431 110.196 122.431 109.737C122.431 109.278 122.127 108.972 121.671 108.972C121.214 108.972 120.91 109.278 120.91 109.737ZM165.025 111.267C165.025 111.726 165.33 112.032 165.786 112.032C166.242 112.032 166.547 111.726 166.547 111.267C166.547 110.808 166.242 110.502 165.786 110.502C165.33 110.502 165.025 110.808 165.025 111.267ZM119.389 112.798C119.389 113.257 119.693 113.563 120.149 113.563C120.606 113.563 120.91 113.257 120.91 112.798C120.91 112.338 120.606 112.032 120.149 112.032C119.693 112.032 119.389 112.338 119.389 112.798ZM338.444 112.798C338.444 113.257 338.748 113.563 339.204 113.563C339.661 113.563 339.965 113.257 339.965 112.798C339.965 112.338 339.661 112.032 339.204 112.032C338.748 112.032 338.444 112.338 338.444 112.798ZM105.698 119.684C105.698 120.755 106.154 121.214 106.763 120.755C107.219 120.143 107.219 119.225 106.763 118.613C106.154 118.154 105.698 118.613 105.698 119.684ZM166.547 119.531C166.547 121.98 169.437 123.051 173.088 121.827C176.282 120.755 176.282 120.755 173.392 119.531C169.133 117.848 166.547 117.848 166.547 119.531ZM178.716 120.449C178.716 121.673 177.499 122.745 176.13 122.898C174.305 122.898 174.153 123.204 175.37 123.816C177.499 124.581 181.759 121.673 181.759 119.531C181.759 118.766 181.15 118.154 180.237 118.154C179.477 118.154 178.716 119.225 178.716 120.449ZM184.801 120.449C184.801 121.673 184.04 122.745 182.976 122.745C182.063 122.745 181.607 123.051 182.063 123.51C182.519 123.969 184.04 123.969 185.41 123.357C187.996 122.286 188.756 118.154 186.322 118.154C185.562 118.154 184.801 119.225 184.801 120.449ZM88.9646 122.745C88.9646 123.969 89.7252 126.111 90.4858 127.336C91.8549 129.325 92.007 129.325 92.007 127.336C92.007 126.111 91.2464 123.969 90.4858 122.745C89.1167 120.755 88.9646 120.755 88.9646 122.745ZM93.6803 126.877C93.5282 131.621 92.9197 133.457 91.2464 133.457C89.8773 133.457 88.9646 134.987 88.9646 137.436C88.9646 139.578 88.204 142.639 87.2912 144.322C86.5306 146.006 86.0743 148.607 86.3785 149.984C86.987 152.127 87.2912 151.974 88.204 149.066C88.8125 147.23 89.8773 145.7 90.4858 145.7C92.4634 145.7 95.5058 130.396 94.5931 125.04C94.1367 121.367 93.9846 121.673 93.6803 126.877ZM283.68 121.98C283.68 122.439 283.984 122.745 284.441 122.745C284.897 122.745 285.201 122.439 285.201 121.98C285.201 121.52 284.897 121.214 284.441 121.214C283.984 121.214 283.68 121.52 283.68 121.98ZM266.186 124.275C266.642 125.04 267.403 125.805 267.859 125.805C268.316 125.805 268.164 125.04 267.707 124.275C267.251 123.357 266.49 122.745 266.034 122.745C265.578 122.745 265.73 123.357 266.186 124.275ZM269.989 123.51C269.989 123.969 270.293 124.275 270.75 124.275C271.206 124.275 271.51 123.969 271.51 123.51C271.51 123.051 271.206 122.745 270.75 122.745C270.293 122.745 269.989 123.051 269.989 123.51ZM280.638 123.51C280.638 123.969 280.942 124.275 281.398 124.275C281.855 124.275 282.159 123.969 282.159 123.51C282.159 123.051 281.855 122.745 281.398 122.745C280.942 122.745 280.638 123.051 280.638 123.51ZM311.67 124.581C311.062 125.652 311.214 125.805 312.279 125.193C314.104 124.122 314.713 122.745 313.496 122.745C313.04 122.745 312.279 123.51 311.67 124.581ZM346.05 123.51C346.05 123.969 346.354 124.275 346.811 124.275C347.267 124.275 347.571 123.969 347.571 123.51C347.571 123.051 347.267 122.745 346.811 122.745C346.354 122.745 346.05 123.051 346.05 123.51ZM169.589 125.04C169.589 125.499 169.893 125.805 170.35 125.805C170.806 125.805 171.11 125.499 171.11 125.04C171.11 124.581 170.806 124.275 170.35 124.275C169.893 124.275 169.589 124.581 169.589 125.04ZM269.076 127.948C265.425 130.702 267.555 133.151 271.51 130.702C275.313 128.407 279.573 128.407 281.855 130.702C284.897 133.763 283.984 137.13 279.116 141.874C274.705 146.006 272.879 153.351 276.074 153.351C276.987 153.351 277.595 152.127 277.595 150.597C277.595 149.066 279.725 146.159 282.159 143.863C287.331 139.272 288.244 132.233 284.289 128.254C281.398 125.193 273.032 125.04 269.076 127.948ZM263.904 128.101C263.904 128.56 264.209 128.866 264.665 128.866C265.121 128.866 265.425 128.56 265.425 128.101C265.425 127.642 265.121 127.336 264.665 127.336C264.209 127.336 263.904 127.642 263.904 128.101ZM165.177 132.998C160.157 137.742 161.679 138.66 175.826 138.966C185.714 139.272 188.3 138.813 188.908 136.824C191.647 129.937 171.567 126.571 165.177 132.998ZM178.716 133.457C178.716 134.222 176.434 134.987 173.848 134.834C169.133 134.681 168.98 134.681 172.631 133.457C177.956 131.774 178.716 131.774 178.716 133.457ZM183.28 134.069C183.28 134.528 182.671 135.293 181.759 135.752C180.998 136.212 180.237 135.906 180.237 135.14C180.237 134.222 180.998 133.457 181.759 133.457C182.671 133.457 183.28 133.763 183.28 134.069ZM336.923 129.631C336.923 130.09 337.227 130.396 337.683 130.396C338.14 130.396 338.444 130.09 338.444 129.631C338.444 129.172 338.14 128.866 337.683 128.866C337.227 128.866 336.923 129.172 336.923 129.631ZM345.289 130.243C344.833 131.008 344.985 132.08 345.746 132.539C346.506 132.998 347.115 132.386 347.115 131.161C347.115 128.56 346.658 128.254 345.289 130.243ZM263.144 131.927C263.6 132.692 264.361 133.457 264.817 133.457C265.273 133.457 265.121 132.692 264.665 131.927C264.209 131.008 263.448 130.396 262.992 130.396C262.535 130.396 262.687 131.008 263.144 131.927ZM274.553 131.161C274.553 131.621 274.857 131.927 275.313 131.927C275.77 131.927 276.074 131.621 276.074 131.161C276.074 130.702 275.77 130.396 275.313 130.396C274.857 130.396 274.553 130.702 274.553 131.161ZM321.71 131.161C321.71 131.621 322.015 131.927 322.471 131.927C322.927 131.927 323.232 131.621 323.232 131.161C323.232 130.702 322.927 130.396 322.471 130.396C322.015 130.396 321.71 130.702 321.71 131.161ZM277.595 132.692C277.595 133.151 277.899 133.457 278.356 133.457C278.812 133.457 279.116 133.151 279.116 132.692C279.116 132.233 278.812 131.927 278.356 131.927C277.899 131.927 277.595 132.233 277.595 132.692ZM102.656 134.987C102.656 136.059 103.112 136.518 103.72 136.059C104.177 135.446 104.177 134.528 103.72 133.916C103.112 133.457 102.656 133.916 102.656 134.987ZM130.798 134.987C131.254 135.752 132.015 136.518 132.471 136.518C132.928 136.518 132.776 135.752 132.319 134.987C131.863 134.069 131.102 133.457 130.646 133.457C130.189 133.457 130.342 134.069 130.798 134.987ZM135.514 134.681C135.057 135.446 135.666 136.059 136.883 136.059C138.1 136.059 138.708 135.446 138.252 134.681C137.796 134.069 137.187 133.457 136.883 133.457C136.579 133.457 135.97 134.069 135.514 134.681ZM301.935 134.222C301.935 134.681 302.239 134.987 302.695 134.987C303.152 134.987 303.456 134.681 303.456 134.222C303.456 133.763 303.152 133.457 302.695 133.457C302.239 133.457 301.935 133.763 301.935 134.222ZM300.413 137.283C300.413 137.742 300.718 138.048 301.174 138.048C301.63 138.048 301.935 137.742 301.935 137.283C301.935 136.824 301.63 136.518 301.174 136.518C300.718 136.518 300.413 136.824 300.413 137.283ZM101.134 139.578C101.134 140.65 101.591 141.109 102.199 140.65C102.656 140.037 102.656 139.119 102.199 138.507C101.591 138.048 101.134 138.507 101.134 139.578ZM136.122 139.425C136.122 140.343 136.883 141.415 137.643 141.874C138.556 142.333 139.165 141.721 139.165 140.496C139.165 139.119 138.556 138.048 137.643 138.048C136.883 138.048 136.122 138.66 136.122 139.425ZM276.074 138.813C276.074 139.272 276.378 139.578 276.835 139.578C277.291 139.578 277.595 139.272 277.595 138.813C277.595 138.354 277.291 138.048 276.835 138.048C276.378 138.048 276.074 138.354 276.074 138.813ZM304.521 139.119C302.239 141.415 303.608 145.7 306.498 145.7C308.172 145.7 309.541 144.781 309.541 143.557C309.541 140.956 305.89 137.742 304.521 139.119ZM170.045 142.18C170.654 142.639 171.567 142.639 172.175 142.18C172.631 141.568 172.175 141.109 171.11 141.109C170.045 141.109 169.589 141.568 170.045 142.18ZM179.477 142.486C178.564 143.251 176.587 144.169 174.913 144.628C172.479 145.24 172.631 145.394 175.826 145.547C177.956 145.547 180.998 144.628 182.671 143.404C184.953 141.721 185.105 141.262 183.28 141.109C181.911 141.109 180.237 141.721 179.477 142.486ZM165.025 144.934C165.025 145.394 165.33 145.7 165.786 145.7C166.242 145.7 166.547 145.394 166.547 144.934C166.547 144.475 166.242 144.169 165.786 144.169C165.33 144.169 165.025 144.475 165.025 144.934ZM148.292 147.23C148.292 148.301 148.748 148.76 149.357 148.301C149.813 147.689 149.813 146.771 149.357 146.159C148.748 145.7 148.292 146.159 148.292 147.23ZM169.285 148.301C170.35 148.76 171.719 148.607 172.175 148.148C172.784 147.689 171.871 147.23 170.197 147.383C168.524 147.383 168.068 147.842 169.285 148.301ZM203.968 149.066C204.425 149.831 205.49 149.984 206.25 149.525C208.228 148.148 207.924 147.689 205.338 147.689C204.121 147.689 203.512 148.301 203.968 149.066ZM218.268 151.056C218.268 151.515 218.572 151.821 219.028 151.821C219.485 151.821 219.789 151.515 219.789 151.056C219.789 150.597 219.485 150.291 219.028 150.291C218.572 150.291 218.268 150.597 218.268 151.056ZM215.225 152.586C215.225 153.045 215.53 153.351 215.986 153.351C216.442 153.351 216.747 153.045 216.747 152.586C216.747 152.127 216.442 151.821 215.986 151.821C215.53 151.821 215.225 152.127 215.225 152.586ZM151.487 155.8C151.487 157.483 151.943 157.942 152.399 156.718C152.856 155.647 152.703 154.269 152.247 153.81C151.791 153.198 151.334 154.116 151.487 155.8ZM212.183 155.647C212.183 156.106 212.487 156.412 212.944 156.412C213.4 156.412 213.704 156.106 213.704 155.647C213.704 155.188 213.4 154.882 212.944 154.882C212.487 154.882 212.183 155.188 212.183 155.647ZM210.662 158.707C210.662 159.166 210.966 159.473 211.422 159.473C211.879 159.473 212.183 159.166 212.183 158.707C212.183 158.248 211.879 157.942 211.422 157.942C210.966 157.942 210.662 158.248 210.662 158.707ZM274.553 160.085C274.553 161.309 275.161 162.686 275.922 163.145C277.443 164.217 279.421 160.238 278.052 158.86C276.378 157.177 274.553 157.942 274.553 160.085ZM148.292 164.064C148.292 164.829 149.205 165.594 150.422 165.594C151.639 165.594 152.856 166.206 153.16 167.124C153.464 168.042 154.377 168.042 155.898 167.124C157.876 165.9 157.723 165.594 155.594 165.594C154.073 165.594 152.856 164.829 152.856 164.064C152.856 163.145 151.791 162.533 150.574 162.533C149.357 162.533 148.292 163.145 148.292 164.064ZM160.157 168.501C161.679 169.42 161.679 170.032 159.701 171.715C158.484 172.786 157.419 174.929 157.419 176.459C157.419 178.908 157.876 178.755 161.222 175.388C165.634 170.95 165.938 169.267 162.591 168.042C159.245 166.665 157.876 166.971 160.157 168.501ZM88.9646 169.42C88.9646 169.879 89.2688 170.185 89.7252 170.185C90.1815 170.185 90.4858 169.879 90.4858 169.42C90.4858 168.961 90.1815 168.654 89.7252 168.654C89.2688 168.654 88.9646 168.961 88.9646 169.42ZM105.698 181.662C104.633 183.805 104.177 185.947 104.633 186.559C105.242 187.018 105.698 186.253 105.85 184.57C105.85 181.815 106.002 181.815 107.219 184.723C108.284 187.324 108.588 187.018 108.588 182.733C108.74 176.765 108.284 176.612 105.698 181.662ZM167.764 180.897C166.699 182.58 165.33 183.958 164.569 183.958C163.96 183.958 163.656 183.346 164.113 182.733C164.417 182.121 163.504 181.509 162.135 181.509C159.549 181.509 159.549 181.815 162.439 185.794L165.634 190.079L167.916 186.253C169.285 184.111 170.806 182.427 171.414 182.427C172.175 182.427 172.631 181.356 172.631 180.132C172.631 176.918 169.893 177.224 167.764 180.897ZM76.7949 181.662C76.7949 182.121 77.0991 182.427 77.5555 182.427C78.0118 182.427 78.3161 182.121 78.3161 181.662C78.3161 181.203 78.0118 180.897 77.5555 180.897C77.0991 180.897 76.7949 181.203 76.7949 181.662ZM152.856 181.662C152.856 182.121 153.16 182.427 153.616 182.427C154.073 182.427 154.377 182.121 154.377 181.662C154.377 181.203 154.073 180.897 153.616 180.897C153.16 180.897 152.856 181.203 152.856 181.662ZM89.4209 183.499C90.0294 183.958 90.9422 183.958 91.5506 183.499C92.007 182.887 91.5506 182.427 90.4858 182.427C89.4209 182.427 88.9646 182.887 89.4209 183.499ZM85.9221 184.723C85.9221 185.182 86.2264 185.488 86.6828 185.488C87.1391 185.488 87.4434 185.182 87.4434 184.723C87.4434 184.264 87.1391 183.958 86.6828 183.958C86.2264 183.958 85.9221 184.264 85.9221 184.723ZM90.4858 189.314C90.4858 189.773 90.79 190.079 91.2464 190.079C91.7028 190.079 92.007 189.773 92.007 189.314C92.007 188.855 91.7028 188.549 91.2464 188.549C90.79 188.549 90.4858 188.855 90.4858 189.314ZM57.0191 190.844C57.0191 191.303 57.3233 191.609 57.7797 191.609C58.236 191.609 58.5403 191.303 58.5403 190.844C58.5403 190.385 58.236 190.079 57.7797 190.079C57.3233 190.079 57.0191 190.385 57.0191 190.844ZM68.5803 194.976C65.8421 198.802 65.5379 201.71 67.5154 203.087C68.8845 203.852 72.8397 193.14 71.6227 191.915C71.3185 191.609 69.9494 192.987 68.5803 194.976ZM73.7524 193.905C73.7524 194.364 74.0567 194.67 74.513 194.67C74.9694 194.67 75.2736 194.364 75.2736 193.905C75.2736 193.446 74.9694 193.14 74.513 193.14C74.0567 193.14 73.7524 193.446 73.7524 193.905ZM76.7949 196.2C76.7949 197.272 77.2512 197.731 77.8597 197.272C78.3161 196.659 78.3161 195.741 77.8597 195.129C77.2512 194.67 76.7949 195.129 76.7949 196.2ZM178.868 200.332C176.891 207.525 177.804 208.596 180.237 202.016C181.759 198.19 182.367 197.731 182.824 199.72C183.28 201.097 184.193 202.016 184.953 201.556C186.627 200.485 183.888 194.67 181.759 194.67C180.998 194.67 179.629 197.272 178.868 200.332ZM240.173 198.037C239.565 199.108 239.717 199.261 240.782 198.649C242.607 197.578 243.216 196.2 241.999 196.2C241.542 196.2 240.782 196.966 240.173 198.037ZM207.619 200.026C207.619 200.485 207.924 200.791 208.38 200.791C208.836 200.791 209.141 200.485 209.141 200.026C209.141 199.567 208.836 199.261 208.38 199.261C207.924 199.261 207.619 199.567 207.619 200.026ZM74.0567 203.852C74.0567 205.994 74.3609 206.76 74.8173 205.688C75.1215 204.77 75.1215 202.934 74.8173 201.863C74.3609 200.944 74.0567 201.71 74.0567 203.852ZM208.076 204.158C208.532 206.607 210.814 208.443 213.4 208.443C214.921 208.443 214.921 207.831 213.4 205.382C211.27 202.016 207.467 201.25 208.076 204.158ZM65.69 206.454C61.4306 213.952 60.67 246.548 64.6251 247.925C65.5379 248.231 65.8421 248.997 65.3857 249.762C64.9294 250.374 65.5379 252.822 66.7548 254.965C68.2761 257.872 69.0367 258.485 69.6451 256.954C70.1015 255.73 69.9494 254.2 69.3409 253.435C64.3209 247.466 62.3433 223.593 65.9942 212.575C67.8197 207.372 67.5154 203.24 65.69 206.454ZM76.7949 206.147C76.7949 206.607 77.0991 206.913 77.5555 206.913C78.0118 206.913 78.3161 206.607 78.3161 206.147C78.3161 205.688 78.0118 205.382 77.5555 205.382C77.0991 205.382 76.7949 205.688 76.7949 206.147ZM247.171 206.147C247.171 206.607 247.475 206.913 247.932 206.913C248.388 206.913 248.692 206.607 248.692 206.147C248.692 205.688 248.388 205.382 247.932 205.382C247.475 205.382 247.171 205.688 247.171 206.147ZM174.457 209.973C176.587 213.34 178.108 212.881 176.739 209.208C176.13 207.984 175.065 206.913 174.153 206.913C173.24 206.913 173.24 207.984 174.457 209.973ZM213.704 210.738C213.704 211.198 214.008 211.504 214.465 211.504C214.921 211.504 215.225 211.198 215.225 210.738C215.225 210.279 214.921 209.973 214.465 209.973C214.008 209.973 213.704 210.279 213.704 210.738ZM247.171 212.269C247.171 212.728 247.475 213.034 247.932 213.034C248.388 213.034 248.692 212.728 248.692 212.269C248.692 211.81 248.388 211.504 247.932 211.504C247.475 211.504 247.171 211.81 247.171 212.269ZM180.237 216.248C180.237 219.767 186.17 231.398 187.996 231.398C188.604 231.398 187.539 228.49 185.562 225.124C183.584 221.604 182.367 217.778 182.824 216.86C183.128 215.789 182.824 214.411 181.911 213.799C180.846 213.34 180.237 214.258 180.237 216.248ZM236.522 215.329C236.522 215.789 236.827 216.095 237.283 216.095C237.739 216.095 238.044 215.789 238.044 215.329C238.044 214.87 237.739 214.564 237.283 214.564C236.827 214.564 236.522 214.87 236.522 215.329ZM216.747 216.86C216.747 217.319 217.051 217.625 217.507 217.625C217.964 217.625 218.268 217.319 218.268 216.86C218.268 216.401 217.964 216.095 217.507 216.095C217.051 216.095 216.747 216.401 216.747 216.86ZM120.91 218.39C120.91 218.849 121.214 219.155 121.671 219.155C122.127 219.155 122.431 218.849 122.431 218.39C122.431 217.931 122.127 217.625 121.671 217.625C121.214 217.625 120.91 217.931 120.91 218.39ZM213.704 218.39C213.704 218.849 214.008 219.155 214.465 219.155C214.921 219.155 215.225 218.849 215.225 218.39C215.225 217.931 214.921 217.625 214.465 217.625C214.008 217.625 213.704 217.931 213.704 218.39ZM224.353 218.39C224.353 218.849 224.657 219.155 225.113 219.155C225.57 219.155 225.874 218.849 225.874 218.39C225.874 217.931 225.57 217.625 225.113 217.625C224.657 217.625 224.353 217.931 224.353 218.39ZM225.874 222.369C225.874 223.134 226.635 223.44 227.395 222.981C228.308 222.522 228.916 221.757 228.916 221.298C228.916 220.992 228.308 220.686 227.395 220.686C226.635 220.686 225.874 221.451 225.874 222.369ZM230.438 224.511C230.438 225.736 231.502 226.807 232.872 226.807C235.001 226.807 235.001 226.348 233.48 224.511C232.415 223.287 231.35 222.216 231.046 222.216C230.742 222.216 230.438 223.287 230.438 224.511ZM236.522 227.572C236.522 228.031 236.827 228.337 237.283 228.337C237.739 228.337 238.044 228.031 238.044 227.572C238.044 227.113 237.739 226.807 237.283 226.807C236.827 226.807 236.522 227.113 236.522 227.572ZM81.3585 229.868C81.3585 230.939 81.8149 231.398 82.4234 230.939C82.8797 230.327 82.8797 229.408 82.4234 228.796C81.8149 228.337 81.3585 228.796 81.3585 229.868ZM126.386 230.633C125.93 232.01 125.474 234.305 125.626 235.683C125.626 237.06 126.386 236.295 127.147 233.846C128.516 228.949 128.06 226.501 126.386 230.633ZM240.021 230.786C238.956 233.693 240.325 235.071 243.368 233.999C246.258 232.775 246.258 230.48 243.368 229.255C241.999 228.796 240.63 229.408 240.021 230.786ZM75.2736 232.163C75.2736 232.622 75.5779 232.928 76.0342 232.928C76.4906 232.928 76.7949 232.622 76.7949 232.163C76.7949 231.704 76.4906 231.398 76.0342 231.398C75.5779 231.398 75.2736 231.704 75.2736 232.163ZM96.5706 232.163C96.5706 232.622 96.8749 232.928 97.3313 232.928C97.7876 232.928 98.0919 232.622 98.0919 232.163C98.0919 231.704 97.7876 231.398 97.3313 231.398C96.8749 231.398 96.5706 231.704 96.5706 232.163ZM236.522 235.989C236.522 237.06 236.979 237.519 237.587 237.06C238.044 236.448 238.044 235.53 237.587 234.918C236.979 234.459 236.522 234.918 236.522 235.989ZM57.1712 241.498C57.1712 243.181 57.6276 243.64 58.0839 242.416C58.5403 241.345 58.3882 239.968 57.9318 239.509C57.4754 238.896 57.0191 239.815 57.1712 241.498ZM117.259 242.875C115.89 246.854 116.194 247.772 118.02 244.712C118.933 243.181 119.389 241.498 118.933 241.192C118.628 240.733 117.868 241.498 117.259 242.875ZM78.3161 242.875C78.3161 243.334 78.6203 243.64 79.0767 243.64C79.533 243.64 79.8373 243.334 79.8373 242.875C79.8373 242.416 79.533 242.11 79.0767 242.11C78.6203 242.11 78.3161 242.416 78.3161 242.875ZM194.081 245.936C194.081 247.619 194.689 250.374 195.45 252.057L196.819 255.118V252.057C196.819 250.374 196.21 247.619 195.45 245.936L194.081 242.875V245.936ZM128.82 248.231C128.82 250.374 129.125 251.139 129.581 250.068C129.885 249.15 129.885 247.313 129.581 246.242C129.125 245.324 128.82 246.089 128.82 248.231ZM93.5282 251.292C93.5282 252.363 93.9846 252.822 94.5931 252.363C95.0494 251.751 95.0494 250.833 94.5931 250.221C93.9846 249.762 93.5282 250.221 93.5282 251.292ZM125.626 253.588C125.626 255.271 126.539 258.332 127.756 260.474C130.494 265.218 130.494 262.923 127.756 255.883C126.386 252.363 125.626 251.598 125.626 253.588ZM221.615 253.128C222.071 254.2 223.592 255.424 224.961 255.577C226.787 256.036 227.547 255.424 227.091 254.047C226.635 252.975 225.113 251.751 223.744 251.598C221.919 251.139 221.158 251.751 221.615 253.128ZM117.868 254.353C117.868 255.424 118.324 255.883 118.933 255.424C119.389 254.812 119.389 253.894 118.933 253.282C118.324 252.822 117.868 253.282 117.868 254.353ZM130.037 254.353C130.037 255.424 130.494 255.883 131.102 255.424C131.559 254.812 131.559 253.894 131.102 253.282C130.494 252.822 130.037 253.282 130.037 254.353ZM95.0494 255.118C95.0494 255.577 95.3537 255.883 95.81 255.883C96.2664 255.883 96.5706 255.577 96.5706 255.118C96.5706 254.659 96.2664 254.353 95.81 254.353C95.3537 254.353 95.0494 254.659 95.0494 255.118ZM196.971 256.648C196.971 257.107 197.275 257.413 197.731 257.413C198.188 257.413 198.492 257.107 198.492 256.648C198.492 256.189 198.188 255.883 197.731 255.883C197.275 255.883 196.971 256.189 196.971 256.648ZM201.534 256.648C201.534 257.107 201.839 257.413 202.295 257.413C202.751 257.413 203.056 257.107 203.056 256.648C203.056 256.189 202.751 255.883 202.295 255.883C201.839 255.883 201.534 256.189 201.534 256.648ZM122.583 265.065C122.583 266.289 123.192 268.432 123.953 269.656C125.778 272.411 125.778 269.962 123.953 265.83C123.04 263.841 122.583 263.535 122.583 265.065ZM183.736 271.339C174.153 278.838 172.784 280.827 175.674 282.664C176.587 283.123 177.195 282.97 177.195 282.358C177.195 281.593 181.302 279.45 186.322 277.461C195.145 273.941 201.078 269.656 197.123 269.656C196.058 269.656 195.45 268.585 195.754 267.207C196.667 262.463 193.168 263.688 183.736 271.339ZM192.407 270.268C192.407 270.727 191.647 271.492 190.582 272.105C189.517 272.717 189.365 272.564 189.973 271.492C191.038 269.656 192.407 269.044 192.407 270.268ZM200.013 264.3C200.013 264.759 200.318 265.065 200.774 265.065C201.23 265.065 201.534 264.759 201.534 264.3C201.534 263.841 201.23 263.535 200.774 263.535C200.318 263.535 200.013 263.841 200.013 264.3ZM130.342 269.656C130.342 272.564 130.798 276.389 131.559 278.073C132.776 280.827 132.928 280.827 132.776 277.308C132.776 275.165 132.167 271.339 131.559 268.891L130.342 264.3V269.656ZM201.534 266.595C200.318 267.361 199.709 268.432 200.318 268.891C201.687 270.268 207.619 268.279 207.619 266.442C207.619 264.606 204.425 264.759 201.534 266.595ZM65.0815 267.667C65.69 268.126 66.6027 268.126 67.2112 267.667C67.6676 267.054 67.2112 266.595 66.1464 266.595C65.0815 266.595 64.6251 267.054 65.0815 267.667ZM90.4858 269.656C90.4858 270.727 90.9422 271.186 91.5506 270.727C92.007 270.115 92.007 269.197 91.5506 268.585C90.9422 268.126 90.4858 268.585 90.4858 269.656ZM106.611 270.421C107.219 271.645 107.828 272.717 108.132 272.717C108.436 272.717 108.74 271.645 108.74 270.421C108.74 269.197 108.132 268.126 107.219 268.126C106.459 268.126 106.154 269.197 106.611 270.421ZM102.656 273.482C102.656 273.941 102.96 274.247 103.416 274.247C103.872 274.247 104.177 273.941 104.177 273.482C104.177 273.023 103.872 272.717 103.416 272.717C102.96 272.717 102.656 273.023 102.656 273.482ZM125.474 274.247C125.474 275.318 125.93 275.777 126.539 275.318C126.995 274.706 126.995 273.788 126.539 273.176C125.93 272.717 125.474 273.176 125.474 274.247ZM44.8493 279.603C44.8493 280.062 45.1536 280.368 45.61 280.368C46.0663 280.368 46.3706 280.062 46.3706 279.603C46.3706 279.144 46.0663 278.838 45.61 278.838C45.1536 278.838 44.8493 279.144 44.8493 279.603ZM0.734116 301.793C0.734116 302.864 1.19048 303.323 1.79897 302.864C2.25533 302.252 2.25533 301.334 1.79897 300.722C1.19048 300.263 0.734116 300.722 0.734116 301.793ZM55.4978 304.088C55.4978 304.547 55.8021 304.854 56.2585 304.854C56.7148 304.854 57.0191 304.547 57.0191 304.088C57.0191 303.629 56.7148 303.323 56.2585 303.323C55.8021 303.323 55.4978 303.629 55.4978 304.088ZM289.765 304.088C289.765 304.547 290.069 304.854 290.526 304.854C290.982 304.854 291.286 304.547 291.286 304.088C291.286 303.629 290.982 303.323 290.526 303.323C290.069 303.323 289.765 303.629 289.765 304.088ZM285.962 309.598C285.353 310.516 285.201 311.434 285.658 311.893C285.962 312.352 286.723 311.587 287.179 310.21C288.244 307.608 287.331 307.149 285.962 309.598ZM76.7949 313.27C76.7949 313.729 77.0991 314.035 77.5555 314.035C78.0118 314.035 78.3161 313.729 78.3161 313.27C78.3161 312.811 78.0118 312.505 77.5555 312.505C77.0991 312.505 76.7949 312.811 76.7949 313.27ZM280.638 314.188C280.638 314.954 281.398 315.26 282.159 314.801C283.072 314.342 283.68 313.576 283.68 313.117C283.68 312.811 283.072 312.505 282.159 312.505C281.398 312.505 280.638 313.27 280.638 314.188ZM277.595 316.331C277.595 316.79 277.899 317.096 278.356 317.096C278.812 317.096 279.116 316.79 279.116 316.331C279.116 315.872 278.812 315.566 278.356 315.566C277.899 315.566 277.595 315.872 277.595 316.331ZM6.9711 318.779C6.81897 320.004 7.88383 322.452 9.25292 324.136C11.5347 327.043 11.5347 327.043 10.1656 323.983C9.40504 322.299 8.34019 319.851 7.88383 318.626C7.12322 316.637 6.9711 316.637 6.9711 318.779ZM274.553 319.392C274.553 319.851 274.857 320.157 275.313 320.157C275.77 320.157 276.074 319.851 276.074 319.392C276.074 318.933 275.77 318.626 275.313 318.626C274.857 318.626 274.553 318.933 274.553 319.392ZM81.3585 322.452C81.3585 322.911 81.6627 323.217 82.1191 323.217C82.5755 323.217 82.8797 322.911 82.8797 322.452C82.8797 321.993 82.5755 321.687 82.1191 321.687C81.6627 321.687 81.3585 321.993 81.3585 322.452ZM67.6676 327.043C67.6676 327.502 67.9718 327.808 68.4282 327.808C68.8845 327.808 69.1888 327.502 69.1888 327.043C69.1888 326.584 68.8845 326.278 68.4282 326.278C67.9718 326.278 67.6676 326.584 67.6676 327.043ZM11.3826 328.574C11.3826 329.033 11.6869 329.339 12.1432 329.339C12.5996 329.339 12.9038 329.033 12.9038 328.574C12.9038 328.114 12.5996 327.808 12.1432 327.808C11.6869 327.808 11.3826 328.114 11.3826 328.574ZM64.6251 328.574C64.6251 329.033 64.9294 329.339 65.3857 329.339C65.8421 329.339 66.1464 329.033 66.1464 328.574C66.1464 328.114 65.8421 327.808 65.3857 327.808C64.9294 327.808 64.6251 328.114 64.6251 328.574ZM93.5282 335.46C93.5282 336.531 93.9846 336.99 94.5931 336.531C95.0494 335.919 95.0494 335.001 94.5931 334.389C93.9846 333.93 93.5282 334.389 93.5282 335.46ZM149.813 337.756C149.813 338.215 150.117 338.521 150.574 338.521C151.03 338.521 151.334 338.215 151.334 337.756C151.334 337.296 151.03 336.99 150.574 336.99C150.117 336.99 149.813 337.296 149.813 337.756ZM17.4675 340.051C17.4675 341.122 17.9238 341.581 18.5323 341.122C18.9887 340.51 18.9887 339.592 18.5323 338.98C17.9238 338.521 17.4675 338.98 17.4675 340.051ZM145.25 339.286C145.25 339.745 145.554 340.051 146.01 340.051C146.466 340.051 146.771 339.745 146.771 339.286C146.771 338.827 146.466 338.521 146.01 338.521C145.554 338.521 145.25 338.827 145.25 339.286ZM92.007 340.816C92.007 341.275 92.3112 341.581 92.7676 341.581C93.224 341.581 93.5282 341.275 93.5282 340.816C93.5282 340.357 93.224 340.051 92.7676 340.051C92.3112 340.051 92.007 340.357 92.007 340.816ZM137.643 349.998C137.643 350.457 137.948 350.763 138.404 350.763C138.86 350.763 139.165 350.457 139.165 349.998C139.165 349.539 138.86 349.233 138.404 349.233C137.948 349.233 137.643 349.539 137.643 349.998ZM25.8342 353.824C26.2905 354.589 27.0511 355.354 27.5075 355.354C27.9639 355.354 27.8117 354.589 27.3554 353.824C26.899 352.906 26.1384 352.294 25.682 352.294C25.2257 352.294 25.3778 352.906 25.8342 353.824ZM126.995 363.771C126.995 364.23 127.299 364.536 127.756 364.536C128.212 364.536 128.516 364.23 128.516 363.771C128.516 363.312 128.212 363.006 127.756 363.006C127.299 363.006 126.995 363.312 126.995 363.771ZM34.2008 366.832C34.2008 367.291 34.5051 367.597 34.9614 367.597C35.4178 367.597 35.7221 367.291 35.7221 366.832C35.7221 366.373 35.4178 366.067 34.9614 366.067C34.5051 366.067 34.2008 366.373 34.2008 366.832ZM41.8069 374.483C41.8069 374.942 42.1112 375.249 42.5675 375.249C43.0239 375.249 43.3281 374.942 43.3281 374.483C43.3281 374.024 43.0239 373.718 42.5675 373.718C42.1112 373.718 41.8069 374.024 41.8069 374.483ZM107.219 374.483C107.219 374.942 107.523 375.249 107.98 375.249C108.436 375.249 108.74 374.942 108.74 374.483C108.74 374.024 108.436 373.718 107.98 373.718C107.523 373.718 107.219 374.024 107.219 374.483ZM114.825 377.544C114.825 378.003 115.129 378.309 115.586 378.309C116.042 378.309 116.346 378.003 116.346 377.544C116.346 377.085 116.042 376.779 115.586 376.779C115.129 376.779 114.825 377.085 114.825 377.544ZM44.8493 378.768C44.8493 379.074 47.2833 381.829 50.1736 384.89C53.0639 387.95 55.4978 389.634 55.4978 388.562C55.4978 387.491 53.0639 384.737 50.1736 382.441C47.2833 380.146 44.8493 378.462 44.8493 378.768ZM208.532 394.531C207.771 396.673 207.924 396.826 209.901 395.143C212.487 393 212.791 392.082 210.814 392.082C210.053 392.082 208.988 393.153 208.532 394.531ZM68.2761 399.581C71.3185 402.947 72.2312 403.407 72.2312 401.57C72.2312 400.958 70.71 399.581 68.8845 398.356C65.3857 396.214 65.3857 396.214 68.2761 399.581ZM203.056 398.969C203.056 399.428 203.36 399.734 203.816 399.734C204.273 399.734 204.577 399.428 204.577 398.969C204.577 398.509 204.273 398.203 203.816 398.203C203.36 398.203 203.056 398.509 203.056 398.969ZM197.427 403.866C194.689 405.243 192.407 406.926 192.407 407.538C192.407 408.304 194.841 407.385 197.731 405.702C205.642 400.958 205.338 399.887 197.427 403.866ZM74.2088 403.866C74.8173 404.325 75.73 404.325 76.3385 403.866C76.7949 403.253 76.3385 402.794 75.2736 402.794C74.2088 402.794 73.7524 403.253 74.2088 403.866ZM78.3161 405.855C78.3161 406.926 78.7724 407.385 79.3809 406.926C79.8373 406.314 79.8373 405.396 79.3809 404.784C78.7724 404.325 78.3161 404.784 78.3161 405.855ZM81.3585 408.151C81.3585 409.069 92.9197 415.037 94.5931 415.037C96.1143 414.884 84.0967 407.385 82.5755 407.385C81.8149 407.385 81.3585 407.691 81.3585 408.151ZM187.844 410.446C186.474 411.364 186.322 411.976 187.387 411.976C188.3 411.976 189.669 411.211 190.125 410.446C191.342 408.61 190.734 408.61 187.844 410.446ZM98.0919 415.802C98.0919 416.261 98.3961 416.567 98.8525 416.567C99.3088 416.567 99.6131 416.261 99.6131 415.802C99.6131 415.343 99.3088 415.037 98.8525 415.037C98.3961 415.037 98.0919 415.343 98.0919 415.802ZM177.651 416.108C178.26 416.567 179.173 416.567 179.781 416.108C180.237 415.496 179.781 415.037 178.716 415.037C177.651 415.037 177.195 415.496 177.651 416.108ZM105.394 417.639C106.459 418.098 107.828 417.945 108.284 417.486C108.892 417.026 107.98 416.567 106.306 416.72C104.633 416.72 104.177 417.179 105.394 417.639ZM172.631 417.332C172.631 417.792 172.936 418.098 173.392 418.098C173.848 418.098 174.153 417.792 174.153 417.332C174.153 416.873 173.848 416.567 173.392 416.567C172.936 416.567 172.631 416.873 172.631 417.332ZM116.346 421.158C116.346 421.923 117.411 422.689 118.628 422.689C119.845 422.689 120.91 421.923 120.91 421.158C120.91 420.24 119.845 419.628 118.628 419.628C117.411 419.628 116.346 420.24 116.346 421.158ZM156.659 421.158C155.442 423.148 157.419 423.148 160.462 421.158C162.439 419.934 162.439 419.628 160.157 419.628C158.788 419.628 157.115 420.24 156.659 421.158ZM165.025 420.393C165.025 420.852 165.33 421.158 165.786 421.158C166.242 421.158 166.547 420.852 166.547 420.393C166.547 419.934 166.242 419.628 165.786 419.628C165.33 419.628 165.025 419.934 165.025 420.393ZM125.474 422.995C125.474 423.607 131.863 424.066 139.621 424.066C154.985 423.76 153.768 423.148 136.579 422.383C130.494 422.076 125.474 422.383 125.474 422.995Z" fill="white"/>
</svg>
