<svg width="508" height="617" viewBox="0 0 508 617" fill="none" xmlns="http://www.w3.org/2000/svg">
<path d="M443.161 158.931C445.455 184.241 456.599 207.966 474.64 225.95C522.785 273.943 513.675 354.039 456.008 389.758L412.511 416.699C387.073 432.455 373.611 461.905 378.34 491.453L378.714 493.792C386.845 544.596 339.08 586.32 289.652 571.592C268.391 565.257 245.426 568.887 227.22 581.459L208.099 594.665C173.226 618.748 127.871 621.785 89.9632 602.574L76.8464 595.927C24.4733 569.387 0.214278 507.979 20.4148 453.078L38.9358 402.742C48.5623 376.58 48.6072 347.839 39.0626 321.593L8.69795 238.092C2.81278 221.908 0.625777 204.627 2.29709 187.512L3.85809 171.527C8.86257 120.28 47.3214 78.6466 98.1019 69.505L246.091 42.8637C261.911 40.0158 276.707 33.119 289.033 22.8474C344.687 -23.5308 429.823 11.7737 436.365 83.9436L443.161 158.931Z" stroke="white" stroke-width="3"/>
</svg>
