<svg width="824" height="821" viewBox="0 0 824 821" fill="none" xmlns="http://www.w3.org/2000/svg">
<path d="M379.393 231.226C363.09 236.429 342.635 251.427 337.098 261.986C333.253 269.637 328.639 287.236 321.564 321.362C317.719 340.492 312.182 365.436 309.26 376.913C306.338 388.391 304.031 398.491 304.031 399.562C304.031 402.929 296.033 421.446 290.958 429.863C286.959 436.443 285.728 437.514 284.037 435.984C282.191 434.454 282.191 434.607 283.575 436.443C284.959 438.279 284.037 441.34 279.73 450.216C274.655 460.469 274.039 462.918 274.039 473.936C274.039 485.413 274.501 486.791 280.192 496.585C283.575 502.4 287.266 508.521 288.189 510.358C289.266 512.194 289.881 514.643 289.42 515.714C288.958 516.938 289.42 517.244 290.496 516.632C291.727 515.867 291.88 516.326 291.265 518.162C290.65 519.54 290.804 520.458 291.573 519.999C293.111 519.081 299.417 537.291 299.417 542.801C299.417 544.79 298.801 546.933 297.879 547.392C296.033 548.463 295.725 554.278 297.571 554.278C300.647 554.125 307.261 546.626 309.414 540.658C312.182 532.547 312.182 532.394 309.875 533.925C308.799 534.537 309.106 533.16 310.644 530.864C313.566 526.426 314.182 522.141 311.721 522.141C309.568 522.141 307.107 527.497 306.953 532.394C306.953 534.69 306.492 535.761 306.03 534.69C305.723 533.772 304.8 533.16 304.031 533.619C303.416 534.078 303.108 533.007 303.569 531.323C304.338 528.263 300.955 519.081 298.955 519.081C298.34 519.081 298.032 516.479 298.494 513.265C298.955 510.205 298.955 508.827 298.494 510.205C298.032 511.735 297.11 512.959 296.341 512.959C295.572 512.959 295.418 511.888 295.879 510.358C296.648 508.521 296.341 508.215 294.803 509.133C293.418 509.899 293.111 509.746 293.88 508.521C294.495 507.603 293.572 504.389 291.727 501.482L288.343 496.126H291.573C293.418 496.126 294.803 495.361 294.803 494.595C294.803 492.3 290.65 492.759 288.035 495.514C286.651 496.738 285.575 497.197 285.575 496.279C285.575 495.514 286.344 494.289 287.113 493.83C288.035 493.371 288.651 491.688 288.651 490.31C288.651 488.015 288.343 488.015 287.113 490.004C285.882 491.994 285.421 491.841 283.421 489.239C282.191 487.556 281.576 485.872 281.883 485.413C282.345 485.107 283.268 485.719 283.883 486.791C284.652 487.862 286.036 488.321 286.959 487.862C287.882 487.25 290.496 488.015 292.957 489.698C295.264 491.229 298.955 493.065 301.262 493.677C303.723 494.136 305.415 495.207 305.107 495.973C304.954 496.738 306.184 498.421 307.722 499.645C310.029 501.329 310.644 503.624 310.644 511.276C310.49 518.468 310.952 520.611 312.644 520.611C315.566 520.611 315.258 498.268 312.182 495.361C311.106 494.289 304.492 490.463 297.417 486.944C277.731 476.997 277.423 476.844 278.807 467.203C279.576 460.775 280.192 459.551 281.422 461.693C282.191 463.071 282.345 467.049 281.883 470.263C281.268 473.936 281.576 476.231 282.499 476.231C283.421 476.231 284.037 472.253 284.037 467.049C284.037 460.622 284.652 458.021 285.882 458.327C286.959 458.48 287.882 456.949 287.882 454.807C288.189 449.298 290.189 444.095 291.88 444.095C292.803 444.095 293.111 442.105 292.649 439.045C292.034 435.984 292.188 435.219 292.957 437.055C294.187 439.657 294.341 439.657 296.648 435.984C298.032 433.994 298.801 430.781 298.34 429.097C297.879 427.108 298.801 424.047 300.801 421.293C302.647 418.844 304.031 416.09 304.031 415.171C304.031 414.253 305.107 413.488 306.338 413.488C307.568 413.488 308.645 412.111 308.645 410.58C308.645 408.897 309.414 407.061 310.337 406.449C311.259 405.989 311.721 403.847 311.259 401.858C310.952 399.868 311.413 398.491 312.336 398.644C313.259 398.797 313.874 397.726 313.566 396.042C313.259 394.512 313.72 393.594 314.489 394.053C316.642 395.43 319.718 384.871 318.642 379.362C318.027 376.454 318.642 370.639 319.872 365.895C321.103 361.304 322.025 355.489 322.025 353.04C321.718 349.52 322.333 348.602 324.486 348.908C326.024 349.214 327.101 348.449 327.101 346.919C327.101 345.542 326.486 344.929 325.563 345.389C323.563 346.613 323.563 342.634 325.409 340.645C326.178 339.879 327.101 337.125 327.562 334.676C327.87 332.075 328.331 334.217 328.485 339.267C328.639 344.317 329.408 349.52 330.177 350.745C331.1 352.122 331.407 342.481 330.946 323.964C330.638 304.682 330.792 298.255 331.715 304.835C334.483 327.178 332.792 365.13 328.947 371.404C328.331 372.169 328.178 374.159 328.331 375.536C328.639 377.066 328.024 378.291 327.255 378.291C326.332 378.291 325.563 379.209 325.563 380.433C325.563 381.657 324.64 383.647 323.563 384.718C321.872 386.401 321.872 387.473 323.563 391.298L325.717 395.889L324.948 391.451C324.486 388.085 325.717 385.024 329.716 379.362C333.868 373.547 334.637 371.404 333.099 370.486C331.561 369.568 331.407 368.496 332.792 365.742C334.483 362.528 335.252 359.468 339.097 340.032C340.482 333.299 340.635 333.299 340.789 338.502C341.097 346.613 348.018 353.04 350.633 347.684C351.094 346.766 351.248 346.919 351.094 347.99C350.786 349.061 351.555 353.346 352.786 357.325C354.016 361.457 354.631 365.895 354.324 367.272C353.862 368.956 353.555 368.496 353.401 366.048C352.786 355.795 350.94 360.386 350.633 372.628C350.325 380.28 349.402 388.85 348.479 391.604C347.557 394.359 347.403 397.267 347.864 398.185C348.479 399.103 348.018 400.786 347.095 402.011C346.172 403.235 344.942 408.438 344.48 413.794C343.711 424.047 342.942 426.037 341.251 423.129C340.482 421.905 339.251 421.752 337.867 422.67C335.868 423.894 336.021 424.2 338.328 424.2C339.713 424.2 340.943 424.812 340.943 425.731C340.943 428.332 337.559 427.414 332.176 423.282C329.408 421.14 326.486 419.762 325.871 420.222C324.025 421.293 315.873 414.406 315.412 411.193C315.258 409.662 316.027 407.52 317.104 406.296C320.641 402.929 323.102 392.064 320.949 389.921C319.565 388.697 319.257 389.156 320.18 391.91C320.949 394.359 320.795 395.124 319.565 394.512C318.642 393.9 317.565 395.277 316.95 397.726C316.335 400.021 314.797 402.929 313.72 404.153C312.49 405.224 311.875 407.061 312.182 407.979C312.644 409.05 312.028 411.04 310.798 412.723C308.799 415.324 309.26 415.937 314.489 418.844L320.18 422.058L320.641 433.841C320.949 441.034 322.641 450.675 324.948 458.327C327.101 465.213 328.793 472.1 328.793 473.63C328.793 475.007 329.408 475.925 330.331 475.466C331.1 474.854 331.715 475.313 331.715 476.231C331.715 476.997 333.099 480.669 334.637 484.342C336.329 487.862 337.867 491.841 338.328 493.065C338.944 494.595 339.251 494.442 339.251 492.3C339.251 490.617 336.483 482.659 333.099 474.701C324.794 455.266 322.487 446.849 322.487 434.607V424.353L331.407 428.332C345.557 434.454 344.942 434.76 346.172 421.446C346.788 415.018 348.326 406.755 349.402 403.235C350.633 399.562 352.786 390.686 354.17 383.341C357.707 363.446 358.015 362.528 358.63 363.293C360.322 364.824 354.785 399.868 351.709 408.132C348.787 415.937 347.557 424.047 349.248 424.812C350.325 425.272 350.325 425.578 349.095 425.578C346.634 425.731 346.48 433.382 348.787 433.382C350.017 433.382 350.325 435.525 349.71 439.657C348.787 446.39 352.324 462.152 356.938 471.64C359.245 476.691 359.399 476.691 358.323 472.406C357.707 469.804 357.246 465.978 357.4 463.683C357.4 461.387 356.785 459.857 356.169 460.316C355.4 460.775 354.785 459.704 354.785 458.021C354.785 456.337 354.17 454.654 353.401 454.195C352.632 453.736 352.017 449.145 351.863 443.942L351.709 434.607L356.016 435.678C358.323 436.29 361.399 437.055 363.09 437.361C366.935 438.126 368.32 439.504 365.244 439.504C362.783 439.504 359.245 447.002 359.553 451.593C359.553 452.97 360.476 451.287 361.552 447.92C363.398 441.952 363.398 442.258 363.706 456.031C364.013 463.836 364.782 471.793 365.551 473.783C366.32 475.925 367.089 481.588 367.243 486.485C367.704 497.503 368.473 500.258 370.473 497.35C371.396 495.973 371.55 496.432 370.934 498.727C370.319 500.717 371.088 503.624 372.626 506.073L375.087 509.899L370.012 510.205C358.63 510.664 359.245 509.286 362.629 527.191C364.936 538.975 362.629 551.83 355.708 564.99C348.018 579.835 346.941 581.518 344.788 583.354C339.713 587.639 343.096 579.069 349.864 570.5C352.017 567.745 353.093 564.99 352.478 562.848C352.171 561.165 352.171 560.552 352.632 561.624C354.785 566.368 360.63 546.933 360.014 536.985C358.784 514.49 357.554 509.133 354.016 510.358C352.632 510.97 352.171 508.827 352.017 502.553C352.017 494.442 349.71 483.118 345.711 470.11C344.788 467.203 344.48 463.377 344.942 461.693C345.557 459.245 345.403 459.092 344.173 460.928C343.25 462.152 342.481 462.918 342.327 462.459C342.327 461.999 341.251 455.419 340.174 447.92C338.482 435.984 338.175 435.219 338.021 441.952C337.867 448.839 344.327 478.068 348.326 488.627C349.71 491.994 350.786 503.624 350.325 509.286C350.017 513.265 327.255 505.308 320.18 499.033C319.411 498.268 318.334 497.656 317.873 497.656C316.335 497.656 316.489 531.17 318.027 532.241C320.026 533.313 319.718 538.975 317.719 538.975C316.796 538.975 316.489 537.598 317.104 535.914C318.18 532.394 316.95 531.935 313.874 534.996C310.644 538.21 311.106 539.281 317.873 546.933C321.103 550.758 323.41 554.431 322.794 555.043C322.179 555.808 322.487 555.808 323.563 555.349C324.64 554.737 327.562 557.492 331.1 562.083C336.175 568.969 336.944 571.112 337.559 580.906C338.021 587.792 337.559 593.301 336.483 595.444C333.714 600.647 338.021 601.106 345.403 596.515C348.787 594.373 352.017 592.536 352.632 592.536C357.092 592.536 372.934 571.418 377.394 559.328C381.7 547.698 380.931 518.162 376.01 497.656C367.704 463.836 366.474 439.504 372.319 424.2C374.01 419.915 375.241 411.652 375.548 402.47C375.856 394.359 376.471 386.86 376.933 386.095C377.548 385.177 376.164 383.035 374.01 381.045C365.859 374.006 356.016 350.133 358.476 343.552C359.245 341.563 359.092 341.563 357.246 342.94C356.169 343.858 354.17 344.317 352.94 343.858C346.326 341.257 341.097 315.547 346.326 310.497C348.633 308.049 352.632 308.202 351.094 310.803C350.633 311.415 351.709 312.027 353.401 312.027C355.247 312.18 356.323 311.262 356.323 309.732C356.323 306.059 365.244 291.062 367.858 289.991C369.089 289.532 370.165 288.307 370.165 287.083C370.165 285.859 370.934 284.788 371.703 284.788C372.626 284.635 374.164 284.482 375.241 284.329C376.164 284.176 376.933 283.257 376.779 282.339C376.471 281.268 378.624 278.972 381.393 276.983C384.007 275.147 387.083 272.545 388.006 271.321C389.083 270.097 390.467 269.637 391.697 270.403C393.082 271.168 393.389 271.015 392.62 269.943C392.005 268.872 392.313 268.107 393.082 268.107C394.005 268.107 395.081 268.107 395.543 268.107C396.004 268.107 397.696 266.73 399.234 265.199C400.926 263.516 406.924 260.762 412.614 258.925C418.459 257.242 424.457 254.64 426.149 253.11C427.841 251.733 428.764 251.273 428.148 252.192C427.533 253.11 431.84 258.619 437.53 264.434C454.756 281.88 457.678 291.215 458.293 328.249L458.601 353.04L453.679 362.987C448.758 372.934 433.839 389.615 428.302 391.298C426.764 391.91 425.534 392.829 425.534 393.594C425.534 395.736 431.84 398.644 433.07 397.114C433.685 396.501 436.607 392.829 439.376 389.003C446.605 379.362 452.91 373.7 456.448 373.7C460.601 373.7 460.139 376.148 455.217 380.892C452.757 383.188 451.988 384.412 453.218 383.647C454.448 382.882 453.987 384.106 452.295 386.095C444.605 394.665 442.452 401.552 443.682 414.406L444.759 426.343L451.68 428.485C467.214 433.076 477.826 426.802 483.055 409.968L485.516 402.011L484.747 408.591C482.748 424.966 470.444 437.973 456.909 437.973C452.141 437.973 451.526 438.279 453.218 440.269C456.448 444.095 468.137 443.176 474.135 438.738C481.364 433.229 486.901 420.528 487.977 407.061C490.438 377.831 483.517 311.415 474.75 278.972C472.905 272.239 471.367 266.118 471.213 265.506C471.213 264.74 469.829 262.904 468.291 261.221C466.753 259.69 465.83 257.395 466.291 256.171C466.599 255.099 466.445 254.487 465.676 254.946C464.907 255.405 462.292 253.569 459.831 250.814C454.141 244.387 449.834 242.551 439.068 241.632C432.762 241.02 428.764 239.643 425.072 236.888C413.23 227.86 396.312 225.717 379.393 231.226ZM405.078 232.757C416.613 234.44 422.15 238.419 415.229 239.949C401.848 242.857 386.468 247.448 384.93 248.825C384.007 249.743 380.624 251.886 377.548 253.569C374.318 255.252 371.703 257.089 371.703 257.701C371.703 258.466 370.934 258.925 370.165 258.925C368.166 258.925 354.785 272.392 354.785 274.381C354.785 276.83 356.785 275.759 361.552 270.709C371.703 259.843 385.853 250.967 401.079 246.07C412.153 242.398 417.844 241.479 417.844 243.469C417.844 244.387 417.229 245.152 416.306 245.152C415.537 245.152 414.768 246.223 414.768 247.601C414.768 249.284 413.845 249.743 411.384 248.978C408.923 248.366 408.462 248.519 409.846 249.437C412.461 251.12 408.154 254.334 392.774 262.139C386.93 264.893 380.931 268.413 379.393 269.943C377.855 271.321 376.164 272.086 375.702 271.627C375.241 271.015 374.779 271.321 374.779 272.239C374.779 274.228 367.704 277.442 361.245 278.36C356.016 279.125 353.862 277.595 345.096 266.73C342.481 263.516 342.481 263.21 345.403 259.078C352.478 249.284 379.24 232.91 384.776 235.052C386.161 235.511 386.776 235.358 386.314 234.593C385.853 233.828 387.391 232.757 389.698 232.45C392.159 232.144 394.312 231.685 394.774 231.685C395.235 231.532 399.849 231.991 405.078 232.757ZM423.534 246.223C422.919 246.683 422.458 246.223 422.458 245.152C422.458 244.081 422.919 243.622 423.534 244.081C423.996 244.693 423.996 245.611 423.534 246.223ZM448.143 248.519C447.681 249.743 447.22 249.284 447.22 247.601C447.066 245.917 447.527 244.999 447.989 245.611C448.45 246.07 448.604 247.448 448.143 248.519ZM431.224 247.754C430.609 248.213 429.686 248.213 429.071 247.754C428.61 247.142 429.071 246.683 430.148 246.683C431.224 246.683 431.686 247.142 431.224 247.754ZM436.3 248.978C436.3 249.437 435.992 249.743 435.531 249.743C435.069 249.743 434.762 249.437 434.762 248.978C434.762 248.519 435.069 248.213 435.531 248.213C435.992 248.213 436.3 248.519 436.3 248.978ZM451.219 250.814C450.603 251.273 450.142 250.814 450.142 249.743C450.142 248.672 450.603 248.213 451.219 248.672C451.68 249.284 451.68 250.202 451.219 250.814ZM434.3 252.345C433.685 252.804 432.762 252.804 432.147 252.345C431.686 251.733 432.147 251.273 433.224 251.273C434.3 251.273 434.762 251.733 434.3 252.345ZM450.757 253.722C452.141 254.946 453.218 255.558 453.218 254.946C453.218 254.334 455.525 256.018 458.293 258.619C461.062 261.374 463.83 263.21 464.292 262.751C464.753 262.292 464.907 264.128 464.599 266.73C464.292 269.484 464.446 271.168 465.061 270.556C467.368 268.26 472.905 293.51 473.058 307.436C473.212 311.874 473.827 315.547 474.75 315.547C475.519 315.547 475.827 312.027 475.519 307.436C475.058 302.845 475.673 304.988 477.057 312.487C480.902 336.207 481.056 337.278 479.518 336.36C477.98 335.288 479.21 341.41 481.056 343.858C481.671 344.776 482.594 352.581 483.055 361.151C483.517 374.465 483.363 376.607 481.517 375.077C480.287 374.159 479.364 372.475 479.364 371.404C479.364 370.333 477.98 366.201 476.134 362.222C473.827 357.172 472.597 349.827 471.674 336.972C470.751 323.964 469.367 316.006 466.445 308.049C464.292 301.927 462.446 295.653 462.446 293.97C462.446 288.92 453.372 267.189 449.988 264.281C448.296 262.598 447.374 260.455 447.835 259.384C448.143 258.16 447.989 257.548 447.22 258.007C446.451 258.466 443.682 257.701 440.76 256.324C436.3 254.028 435.992 253.722 438.761 252.651C443.682 250.661 448.296 251.12 450.757 253.722ZM462.446 258.16C462.446 258.619 462.139 258.925 461.677 258.925C461.216 258.925 460.908 258.619 460.908 258.16C460.908 257.701 461.216 257.395 461.677 257.395C462.139 257.395 462.446 257.701 462.446 258.16ZM340.943 270.403C339.866 271.78 338.636 272.392 338.175 271.933C337.713 271.627 338.328 270.25 339.405 268.872C340.482 267.495 341.712 266.883 342.173 267.342C342.635 267.648 342.02 269.025 340.943 270.403ZM345.557 272.698C345.557 273.463 344.942 274.228 344.019 274.228C343.25 274.228 342.481 273.463 342.481 272.698C342.481 271.78 343.25 271.168 344.019 271.168C344.942 271.168 345.557 271.78 345.557 272.698ZM337.867 274.994C337.867 275.453 337.559 275.759 337.098 275.759C336.637 275.759 336.329 275.453 336.329 274.994C336.329 274.534 336.637 274.228 337.098 274.228C337.559 274.228 337.867 274.534 337.867 274.994ZM347.095 278.054C348.172 279.278 349.556 279.891 350.325 279.431C351.094 278.972 351.709 279.278 351.709 280.044C351.709 280.809 353.862 281.88 356.323 282.339C359.707 283.104 360.937 284.176 360.937 286.471C360.937 288.307 360.168 289.226 359.399 288.766C356.477 287.083 352.94 292.439 353.555 297.336C354.016 299.785 353.709 302.233 352.94 302.692C352.324 303.152 351.709 302.845 351.709 302.08C351.709 299.479 344.327 301.927 340.789 305.753C337.867 308.967 337.252 311.568 336.329 329.626L335.252 349.98L335.099 332.075C334.945 322.281 334.33 312.946 333.868 311.415C333.099 309.12 333.253 309.12 334.637 310.956C336.021 312.793 336.329 312.487 336.329 309.12C336.329 306.671 337.713 304.07 339.713 302.692C343.096 300.244 343.096 300.244 339.866 300.244C338.021 300.244 336.329 299.02 335.868 297.183C334.945 293.51 336.175 288.001 338.021 288.001C338.79 288.001 339.405 287.083 339.405 285.859C339.405 282.339 342.327 275.759 343.865 275.759C344.48 275.759 346.018 276.83 347.095 278.054ZM335.868 281.421C335.252 281.88 334.791 281.421 334.791 280.35C334.791 279.278 335.252 278.819 335.868 279.278C336.329 279.891 336.329 280.809 335.868 281.421ZM456.294 279.585C456.294 280.044 455.986 280.35 455.525 280.35C455.064 280.35 454.756 280.044 454.756 279.585C454.756 279.125 455.064 278.819 455.525 278.819C455.986 278.819 456.294 279.125 456.294 279.585ZM370.165 280.962C370.165 281.421 369.55 282.186 368.627 282.645C367.858 283.104 367.089 282.798 367.089 282.033C367.089 281.115 367.858 280.35 368.627 280.35C369.55 280.35 370.165 280.656 370.165 280.962ZM364.013 282.645C364.013 283.104 363.706 283.41 363.244 283.41C362.783 283.41 362.475 283.104 362.475 282.645C362.475 282.186 362.783 281.88 363.244 281.88C363.706 281.88 364.013 282.186 364.013 282.645ZM376.317 282.645C376.317 283.104 376.01 283.41 375.548 283.41C375.087 283.41 374.779 283.104 374.779 282.645C374.779 282.186 375.087 281.88 375.548 281.88C376.01 281.88 376.317 282.186 376.317 282.645ZM333.407 289.685C332.638 291.674 331.869 292.592 331.869 291.521C331.715 289.226 333.407 284.635 334.176 285.4C334.637 285.706 334.176 287.695 333.407 289.685ZM365.551 285.706C365.551 286.165 365.244 286.471 364.782 286.471C364.321 286.471 364.013 286.165 364.013 285.706C364.013 285.247 364.321 284.941 364.782 284.941C365.244 284.941 365.551 285.247 365.551 285.706ZM358.323 294.888C357.861 296.265 357.092 297.03 356.785 296.571C356.323 296.112 356.477 295.194 357.092 294.276C358.476 291.827 359.399 292.286 358.323 294.888ZM334.33 304.376C333.868 305.906 333.561 304.988 333.561 302.539C333.561 299.938 333.868 298.867 334.33 299.785C334.637 300.856 334.637 302.999 334.33 304.376ZM343.711 308.049C342.173 308.814 340.789 311.109 340.789 312.946C340.635 315.7 340.482 315.7 339.866 313.558C339.097 310.497 341.866 306.365 344.634 306.365C345.557 306.365 345.096 307.13 343.711 308.049ZM338.944 320.444C338.482 321.669 338.021 321.209 338.021 319.526C337.867 317.843 338.328 316.924 338.79 317.537C339.251 317.996 339.405 319.373 338.944 320.444ZM340.943 325.494C340.943 325.953 340.635 326.259 340.174 326.259C339.713 326.259 339.405 325.953 339.405 325.494C339.405 325.035 339.713 324.729 340.174 324.729C340.635 324.729 340.943 325.035 340.943 325.494ZM338.944 331.157C338.482 332.381 338.021 331.922 338.021 330.238C337.867 328.555 338.328 327.637 338.79 328.249C339.251 328.708 339.405 330.085 338.944 331.157ZM344.019 336.207C344.019 336.666 343.711 336.972 343.25 336.972C342.789 336.972 342.481 336.666 342.481 336.207C342.481 335.748 342.789 335.441 343.25 335.441C343.711 335.441 344.019 335.748 344.019 336.207ZM348.633 347.072C348.633 347.378 347.557 347.225 346.326 346.766C345.096 346.154 344.019 344.011 344.019 341.716V337.737L346.326 342.175C347.557 344.47 348.633 346.766 348.633 347.072ZM322.487 345.389C322.487 345.848 322.179 346.154 321.718 346.154C321.256 346.154 320.949 345.848 320.949 345.389C320.949 344.929 321.256 344.623 321.718 344.623C322.179 344.623 322.487 344.929 322.487 345.389ZM467.983 348.755C466.445 350.286 465.061 347.99 466.445 346.001C467.368 344.317 467.675 344.317 468.291 346.001C468.598 347.072 468.444 348.296 467.983 348.755ZM356.323 348.449C356.323 348.908 356.016 349.214 355.554 349.214C355.093 349.214 354.785 348.908 354.785 348.449C354.785 347.99 355.093 347.684 355.554 347.684C356.016 347.684 356.323 347.99 356.323 348.449ZM470.136 360.845C471.828 364.824 473.212 370.18 473.366 372.781C473.366 376.148 473.674 376.76 474.443 374.771C476.288 370.486 480.441 383.8 479.979 392.064C479.364 402.929 477.672 411.958 476.134 411.958C475.519 411.958 475.212 410.733 475.673 409.203C476.442 407.214 476.288 407.061 475.058 408.744C474.289 409.815 473.981 412.111 474.443 413.947C474.904 415.937 474.596 416.702 473.52 415.937C472.597 415.477 471.059 416.396 470.136 418.079C469.213 419.762 467.214 421.14 465.83 421.14C464.292 421.14 462.292 421.905 461.37 422.823C460.139 424.047 458.447 423.588 454.91 420.987C450.911 418.079 450.142 416.396 450.142 411.499C450.142 402.164 453.064 393.594 455.986 394.818C457.524 395.277 457.986 394.971 457.217 393.9C456.755 392.982 457.063 391.757 457.986 391.298C458.755 390.686 459.216 389.156 458.755 387.932C458.14 386.401 458.447 385.942 459.985 386.401C463.215 387.626 466.445 376.607 463.984 372.322C461.677 367.884 463.523 353.805 466.291 353.805C466.599 353.805 468.291 357.019 470.136 360.845ZM359.399 360.692C359.399 361.151 359.092 361.457 358.63 361.457C358.169 361.457 357.861 361.151 357.861 360.692C357.861 360.233 358.169 359.927 358.63 359.927C359.092 359.927 359.399 360.233 359.399 360.692ZM460.908 365.13C460.908 365.589 460.293 366.354 459.37 366.813C458.601 367.272 457.832 366.966 457.832 366.201C457.832 365.283 458.601 364.518 459.37 364.518C460.293 364.518 460.908 364.824 460.908 365.13ZM331.254 373.24C330.638 373.7 330.177 373.24 330.177 372.169C330.177 371.098 330.638 370.639 331.254 371.098C331.715 371.71 331.715 372.628 331.254 373.24ZM352.786 379.362C352.324 380.892 352.017 379.974 352.017 377.525C352.017 374.924 352.324 373.853 352.786 374.771C353.093 375.842 353.093 377.985 352.786 379.362ZM362.321 389.003C362.475 385.789 362.783 385.636 364.167 387.473C366.013 389.921 365.551 387.013 363.244 380.586C362.321 378.138 362.783 378.291 365.397 381.351C367.397 383.8 368.32 386.248 367.704 388.238C367.243 389.921 366.32 394.359 365.551 398.185C364.936 402.011 362.783 408.744 361.091 413.182C359.245 417.62 357.861 422.67 357.861 424.2C357.861 425.884 357.246 427.261 356.323 427.261C355.554 427.261 354.785 428.485 354.631 429.863C354.631 432.158 354.324 432.158 353.247 429.556C351.555 425.731 351.248 421.14 352.94 423.741C353.555 424.659 354.17 421.905 354.17 417.62C354.478 407.061 356.323 399.562 358.323 400.786C359.399 401.398 359.553 399.562 358.938 395.124C358.476 391.604 358.63 386.095 359.092 383.035L360.168 377.525L361.091 385.177C361.552 389.309 362.168 391.145 362.321 389.003ZM370.165 382.116C370.165 382.575 369.858 382.882 369.396 382.882C368.935 382.882 368.627 382.575 368.627 382.116C368.627 381.657 368.935 381.351 369.396 381.351C369.858 381.351 370.165 381.657 370.165 382.116ZM371.703 394.665C370.165 400.48 368.32 406.449 367.704 407.979C366.935 410.121 367.089 410.58 368.32 409.815C369.396 409.203 368.781 411.193 366.935 414.1C365.09 417.161 364.013 420.528 364.475 421.599C364.936 422.823 364.013 426.343 362.475 429.71C360.937 432.923 359.553 434.454 359.553 433.076C359.245 428.638 368.935 392.829 372.011 387.013C374.626 381.963 374.626 384.565 371.703 394.665ZM314.335 388.544C313.72 389.003 313.259 388.544 313.259 387.473C313.259 386.401 313.72 385.942 314.335 386.401C314.797 387.013 314.797 387.932 314.335 388.544ZM357.4 396.961C356.938 398.185 356.477 397.726 356.477 396.042C356.323 394.359 356.785 393.441 357.246 394.053C357.707 394.512 357.861 395.889 357.4 396.961ZM482.44 400.48C482.44 400.939 482.133 401.245 481.671 401.245C481.21 401.245 480.902 400.939 480.902 400.48C480.902 400.021 481.21 399.715 481.671 399.715C482.133 399.715 482.44 400.021 482.44 400.48ZM308.645 405.071C308.645 405.53 308.337 405.836 307.876 405.836C307.414 405.836 307.107 405.53 307.107 405.071C307.107 404.612 307.414 404.306 307.876 404.306C308.337 404.306 308.645 404.612 308.645 405.071ZM480.902 405.071C480.902 405.53 480.595 405.836 480.133 405.836C479.672 405.836 479.364 405.53 479.364 405.071C479.364 404.612 479.672 404.306 480.133 404.306C480.595 404.306 480.902 404.612 480.902 405.071ZM369.704 422.211C369.089 422.67 368.627 422.211 368.627 421.14C368.627 420.068 369.089 419.609 369.704 420.068C370.165 420.681 370.165 421.599 369.704 422.211ZM448.604 423.435C448.604 423.894 448.296 424.2 447.835 424.2C447.374 424.2 447.066 423.894 447.066 423.435C447.066 422.976 447.374 422.67 447.835 422.67C448.296 422.67 448.604 422.976 448.604 423.435ZM467.06 424.966C467.06 425.425 466.753 425.731 466.291 425.731C465.83 425.731 465.522 425.425 465.522 424.966C465.522 424.506 465.83 424.2 466.291 424.2C466.753 424.2 467.06 424.506 467.06 424.966ZM366.628 428.332C366.013 428.791 365.551 428.332 365.551 427.261C365.551 426.19 366.013 425.731 366.628 426.19C367.089 426.802 367.089 427.72 366.628 428.332ZM344.019 428.026C344.019 428.485 343.711 428.791 343.25 428.791C342.789 428.791 342.481 428.485 342.481 428.026C342.481 427.567 342.789 427.261 343.25 427.261C343.711 427.261 344.019 427.567 344.019 428.026ZM350.171 429.556C350.171 430.016 349.864 430.322 349.402 430.322C348.941 430.322 348.633 430.016 348.633 429.556C348.633 429.097 348.941 428.791 349.402 428.791C349.864 428.791 350.171 429.097 350.171 429.556ZM295.879 432.923C295.264 433.382 294.803 432.923 294.803 431.852C294.803 430.781 295.264 430.322 295.879 430.781C296.341 431.393 296.341 432.311 295.879 432.923ZM287.113 446.237C287.113 446.696 286.344 447.461 285.267 448.073C284.19 448.686 284.037 448.533 284.652 447.461C285.728 445.625 287.113 445.013 287.113 446.237ZM286.497 457.408C286.036 458.021 285.575 457.408 285.575 456.184C285.575 454.348 285.267 454.348 284.037 456.337C283.268 457.561 282.191 458.021 281.73 457.561C281.114 456.949 281.576 455.572 282.652 454.348C284.498 452.358 284.959 452.358 286.036 454.348C286.805 455.572 286.959 456.949 286.497 457.408ZM287.113 484.648C287.113 485.107 286.805 485.413 286.344 485.413C285.882 485.413 285.575 485.107 285.575 484.648C285.575 484.189 285.882 483.883 286.344 483.883C286.805 483.883 287.113 484.189 287.113 484.648ZM369.704 486.485C369.089 486.944 368.627 486.485 368.627 485.413C368.627 484.342 369.089 483.883 369.704 484.342C370.165 484.954 370.165 485.872 369.704 486.485ZM320.487 506.379C319.872 506.838 319.411 506.379 319.411 505.308C319.411 504.236 319.872 503.777 320.487 504.236C320.949 504.849 320.949 505.767 320.487 506.379ZM327.101 508.368C324.794 509.899 332.638 512.347 343.711 513.724C349.556 514.49 351.709 515.408 351.709 517.244C351.709 519.387 352.017 519.387 353.709 517.091C355.247 514.796 355.554 515.255 355.708 520.152C355.862 523.365 356.323 530.099 356.938 535.149C357.707 540.964 357.554 543.566 356.631 542.342C354.939 539.74 352.94 549.993 354.016 555.808C354.478 557.951 354.324 558.716 353.862 557.645C353.247 556.268 351.863 557.798 350.017 561.93C346.788 569.122 342.481 569.887 340.943 563.46C340.328 561.012 338.944 559.787 337.252 559.787C335.252 560.093 335.099 559.634 336.483 557.951C337.559 556.574 337.713 555.808 336.637 555.808C335.714 555.808 334.637 554.584 334.022 553.054C333.561 551.37 331.407 549.381 329.408 548.463C326.332 547.086 325.563 545.555 325.409 540.964C325.255 535.914 325.102 535.608 324.025 538.975C323.102 542.342 322.794 542.495 321.718 540.046C321.103 538.669 320.949 536.373 321.564 535.149C322.025 533.925 321.41 531.935 320.18 530.711C317.565 528.109 317.104 523.672 319.411 523.672C320.334 523.672 320.949 520.611 320.949 516.938C320.949 507.756 322.025 505.461 325.717 506.379C327.87 506.991 328.331 507.603 327.101 508.368ZM368.166 517.856C367.704 518.928 367.397 518.162 367.397 516.02C367.397 513.877 367.704 513.112 368.166 514.03C368.473 515.102 368.473 516.938 368.166 517.856ZM374.626 524.437C374.626 527.803 374.01 533.619 373.088 537.444C372.165 541.27 371.396 546.626 371.396 549.534C371.396 553.36 370.934 554.125 369.858 552.595C368.781 551.064 368.627 551.37 369.089 553.972C369.55 555.808 369.242 557.033 368.473 556.421C366.474 555.196 366.782 559.481 368.935 561.624C370.319 563.001 370.319 563.46 368.935 563.46C367.858 563.46 367.089 562.695 367.089 561.93C367.089 561.012 366.474 560.399 365.705 560.399C363.706 560.399 360.476 570.653 361.86 572.795C362.475 573.866 362.321 574.172 361.399 573.713C360.014 572.795 352.478 581.059 352.478 583.507C352.478 585.038 342.481 592.842 342.481 591.312C342.481 590.547 343.558 588.863 344.942 587.792C348.787 584.579 358.476 568.969 358.015 566.674C357.861 565.449 358.323 565.143 359.553 565.909C360.937 566.674 361.091 566.215 360.476 564.531C360.014 563.001 360.168 561.93 361.091 561.93C362.014 561.93 362.321 560.399 361.706 558.41C361.091 556.114 361.245 555.655 362.168 557.186C364.013 559.634 366.32 556.727 364.628 553.972C364.013 553.054 364.167 552.748 365.09 553.207C367.704 554.89 371.703 537.598 371.857 524.284C371.857 511.888 374.472 511.888 374.626 524.437ZM365.551 518.468C365.551 519.693 366.32 520.611 367.089 520.611C368.012 520.611 368.627 521.223 368.627 522.141C368.627 525.508 365.705 523.365 364.167 519.081C363.244 516.326 363.244 514.796 364.013 515.255C364.936 515.867 365.551 517.244 365.551 518.468ZM298.955 523.212C298.34 523.672 297.879 523.212 297.879 522.141C297.879 521.07 298.34 520.611 298.955 521.07C299.417 521.682 299.417 522.6 298.955 523.212ZM370.165 533.466C370.165 533.925 369.55 534.69 368.627 535.149C367.858 535.608 367.089 535.302 367.089 534.537C367.089 533.619 367.858 532.854 368.627 532.854C369.55 532.854 370.165 533.16 370.165 533.466ZM359.399 546.626C359.399 547.392 358.784 548.157 357.861 548.157C357.092 548.157 356.323 547.392 356.323 546.626C356.323 545.708 357.092 545.096 357.861 545.096C358.784 545.096 359.399 545.708 359.399 546.626ZM365.551 545.861C365.551 546.32 365.244 546.626 364.782 546.626C364.321 546.626 364.013 546.32 364.013 545.861C364.013 545.402 364.321 545.096 364.782 545.096C365.244 545.096 365.551 545.402 365.551 545.861ZM355.862 552.289C355.247 552.748 354.785 552.289 354.785 551.217C354.785 550.146 355.247 549.687 355.862 550.146C356.323 550.758 356.323 551.677 355.862 552.289ZM331.715 551.983C331.715 552.442 331.407 552.748 330.946 552.748C330.485 552.748 330.177 552.442 330.177 551.983C330.177 551.523 330.485 551.217 330.946 551.217C331.407 551.217 331.715 551.523 331.715 551.983ZM373.241 556.574C373.241 557.033 372.934 557.339 372.472 557.339C372.011 557.339 371.703 557.033 371.703 556.574C371.703 556.114 372.011 555.808 372.472 555.808C372.934 555.808 373.241 556.114 373.241 556.574ZM367.089 567.286C367.089 568.51 366.474 569.581 365.551 569.581C364.782 569.581 364.475 568.51 364.936 567.286C365.551 566.062 366.166 564.99 366.474 564.99C366.782 564.99 367.089 566.062 367.089 567.286ZM346.326 571.112C345.865 571.877 344.788 572.642 343.865 572.642C343.096 572.642 342.481 571.877 342.481 571.112C342.481 570.193 343.558 569.581 344.942 569.581C346.172 569.581 346.788 570.193 346.326 571.112ZM390.928 236.735C385.853 237.807 381.239 238.419 380.624 238.113C380.009 237.807 379.24 238.113 378.624 239.031C378.163 239.796 376.625 240.561 375.395 240.561C374.164 240.561 370.473 242.245 367.243 244.234C364.013 246.376 361.091 247.754 360.783 247.601C360.476 247.295 358.476 248.825 356.323 250.814C353.401 253.722 355.4 253.11 365.551 247.754C372.78 243.928 381.393 240.408 384.776 239.796L390.928 239.031L382.777 243.01C372.165 248.366 373.549 249.59 384.469 244.54C388.929 242.398 393.697 240.561 394.927 240.408C396.158 240.408 395.696 239.796 394.005 239.184C392.159 238.419 395.696 237.96 402.925 238.113C409.385 238.266 414.768 237.807 414.768 237.194C414.768 236.429 412.461 235.97 409.538 235.97C406.616 235.97 403.386 235.664 402.156 235.358C401.079 235.052 396.004 235.664 390.928 236.735ZM400.926 236.735C400.926 237.194 400.618 237.501 400.157 237.501C399.695 237.501 399.388 237.194 399.388 236.735C399.388 236.276 399.695 235.97 400.157 235.97C400.618 235.97 400.926 236.276 400.926 236.735ZM370.934 249.743C371.396 250.508 370.781 251.273 369.55 251.273C368.166 251.273 367.089 251.886 367.089 252.804C367.089 253.569 366.166 254.334 365.09 254.334C362.937 254.334 353.247 264.434 353.247 266.577C353.247 269.637 356.016 267.954 359.553 262.904C361.552 259.996 365.705 256.018 368.781 254.028C374.01 250.814 375.241 248.213 371.55 248.213C370.627 248.213 370.473 248.825 370.934 249.743ZM401.695 251.273C400.464 253.263 402.464 253.263 405.54 251.273C407.539 250.049 407.539 249.743 405.232 249.743C403.848 249.743 402.156 250.355 401.695 251.273ZM391.39 254.64C388.929 255.405 387.083 256.783 387.083 257.395C387.083 258.16 389.237 258.007 391.697 257.242C394.312 256.324 396.312 254.946 396.312 254.181C396.312 253.416 396.158 252.804 396.004 252.957C395.696 252.957 393.697 253.722 391.39 254.64ZM350.171 256.63C350.171 257.089 350.479 257.395 350.94 257.395C351.402 257.395 351.709 257.089 351.709 256.63C351.709 256.171 351.402 255.864 350.94 255.864C350.479 255.864 350.171 256.171 350.171 256.63ZM355.4 257.701C354.785 258.772 354.939 258.925 356.016 258.313C357.092 257.701 357.861 256.936 357.861 256.477C357.861 255.252 356.477 255.864 355.4 257.701ZM378.624 261.221C376.164 263.21 372.934 264.893 371.857 265.046C370.012 265.046 369.858 265.352 371.55 266.883C373.088 268.566 373.857 268.413 375.241 266.577C376.317 265.352 378.932 263.363 381.393 262.445C383.7 261.374 385.545 259.843 385.545 258.925C385.545 256.477 383.546 257.089 378.624 261.221ZM347.095 260.455C347.095 261.527 347.557 261.986 348.172 261.527C348.633 260.915 348.633 259.996 348.172 259.384C347.557 258.925 347.095 259.384 347.095 260.455ZM377.855 267.342C377.855 267.801 378.163 268.107 378.624 268.107C379.086 268.107 379.393 267.801 379.393 267.342C379.393 266.883 379.086 266.577 378.624 266.577C378.163 266.577 377.855 266.883 377.855 267.342ZM361.552 274.534C360.937 275.606 361.091 275.759 362.168 275.147C363.244 274.534 364.013 273.769 364.013 273.31C364.013 272.086 362.629 272.698 361.552 274.534ZM453.218 259.69C453.218 260.149 453.526 260.455 453.987 260.455C454.448 260.455 454.756 260.149 454.756 259.69C454.756 259.231 454.448 258.925 453.987 258.925C453.526 258.925 453.218 259.231 453.218 259.69ZM459.985 269.943C461.985 274.381 464.753 280.503 466.137 283.41L468.598 288.766L467.522 282.645C467.06 279.278 465.984 276.218 465.368 276.065C464.599 275.759 463.984 274.841 463.984 273.922C463.984 271.321 459.062 261.986 457.678 261.986C456.909 261.986 457.986 265.659 459.985 269.943ZM453.218 264.281C453.218 264.74 453.526 265.046 453.987 265.046C454.448 265.046 454.756 264.74 454.756 264.281C454.756 263.822 454.448 263.516 453.987 263.516C453.526 263.516 453.218 263.822 453.218 264.281ZM467.983 299.479C468.598 304.529 469.213 308.967 469.521 309.273C470.905 310.803 469.982 294.582 468.598 292.592C467.522 291.062 467.368 293.204 467.983 299.479ZM475.212 328.555C475.212 333.605 475.519 335.441 475.827 332.687C476.134 329.932 476.134 325.8 475.827 323.505C475.519 321.209 475.212 323.505 475.212 328.555ZM474.75 343.093C474.75 344.164 475.212 344.623 475.827 344.164C476.288 343.552 476.288 342.634 475.827 342.022C475.212 341.563 474.75 342.022 474.75 343.093ZM476.75 355.336C476.75 359.161 477.057 360.692 477.365 358.702C477.672 356.866 477.672 353.805 477.365 351.816C477.057 349.98 476.75 351.51 476.75 355.336ZM350.171 288.307C350.171 290.144 350.633 291.062 351.248 290.45C352.94 288.92 353.093 284.941 351.555 284.941C350.786 284.941 350.171 286.471 350.171 288.307ZM473.981 383.035C473.366 383.953 473.212 384.871 473.674 385.33C473.981 385.789 474.75 385.024 475.212 383.647C476.288 381.045 475.365 380.586 473.981 383.035ZM459.524 396.042C459.524 397.726 459.985 398.185 460.447 396.961C460.908 395.889 460.754 394.512 460.293 394.053C459.831 393.441 459.37 394.359 459.524 396.042ZM474.904 400.633C474.904 402.317 475.365 402.776 475.827 401.552C476.288 400.48 476.134 399.103 475.673 398.644C475.212 398.032 474.75 398.95 474.904 400.633ZM362.783 397.42C362.783 399.868 363.09 400.786 363.552 399.256C363.859 397.879 363.859 395.736 363.552 394.665C363.09 393.747 362.783 394.818 362.783 397.42ZM360.937 404.306C360.937 405.377 361.399 405.836 362.014 405.377C362.475 404.765 362.475 403.847 362.014 403.235C361.399 402.776 360.937 403.235 360.937 404.306ZM322.948 514.49C322.948 518.315 323.256 519.846 323.563 517.856C323.871 516.02 323.871 512.959 323.563 510.97C323.256 509.133 322.948 510.664 322.948 514.49ZM322.487 526.732C322.487 527.803 322.948 528.263 323.563 527.803C324.025 527.191 324.025 526.273 323.563 525.661C322.948 525.202 322.487 525.661 322.487 526.732ZM352.632 527.497C352.171 528.722 352.478 529.793 353.247 529.793C354.17 529.793 354.785 528.722 354.785 527.497C354.785 526.273 354.478 525.202 354.17 525.202C353.862 525.202 353.247 526.273 352.632 527.497ZM355.093 535.914C355.093 538.057 355.4 538.822 355.862 537.751C356.169 536.832 356.169 534.996 355.862 533.925C355.4 533.007 355.093 533.772 355.093 535.914ZM350.171 543.413C350.171 544.331 350.786 545.402 351.709 545.861C352.632 546.32 352.786 545.708 352.324 544.484C351.248 541.729 350.171 541.27 350.171 543.413ZM329.1 546.167C329.716 546.626 330.638 546.626 331.254 546.167C331.715 545.555 331.254 545.096 330.177 545.096C329.1 545.096 328.639 545.555 329.1 546.167ZM333.253 547.698C333.253 548.463 334.33 550.146 335.406 551.677C337.406 554.278 337.559 554.125 337.252 550.605C337.252 548.31 336.175 546.626 335.252 546.626C334.176 546.626 333.253 547.086 333.253 547.698ZM350.171 552.748C350.171 553.819 350.633 554.278 351.248 553.819C351.709 553.207 351.709 552.289 351.248 551.677C350.633 551.217 350.171 551.677 350.171 552.748ZM350.171 584.119C350.171 584.579 350.479 584.885 350.94 584.885C351.402 584.885 351.709 584.579 351.709 584.119C351.709 583.66 351.402 583.354 350.94 583.354C350.479 583.354 350.171 583.66 350.171 584.119ZM417.844 229.084C417.844 229.543 418.151 229.849 418.613 229.849C419.074 229.849 419.382 229.543 419.382 229.084C419.382 228.625 419.074 228.319 418.613 228.319C418.151 228.319 417.844 228.625 417.844 229.084ZM364.013 233.675C364.013 234.134 364.321 234.44 364.782 234.44C365.244 234.44 365.551 234.134 365.551 233.675C365.551 233.216 365.244 232.91 364.782 232.91C364.321 232.91 364.013 233.216 364.013 233.675ZM423.996 233.675C423.996 234.134 424.303 234.44 424.765 234.44C425.226 234.44 425.534 234.134 425.534 233.675C425.534 233.216 425.226 232.91 424.765 232.91C424.303 232.91 423.996 233.216 423.996 233.675ZM356.323 239.796C356.323 240.255 356.631 240.561 357.092 240.561C357.554 240.561 357.861 240.255 357.861 239.796C357.861 239.337 357.554 239.031 357.092 239.031C356.631 239.031 356.323 239.337 356.323 239.796ZM453.218 242.857C453.218 243.316 453.526 243.622 453.987 243.622C454.448 243.622 454.756 243.316 454.756 242.857C454.756 242.398 454.448 242.092 453.987 242.092C453.526 242.092 453.218 242.398 453.218 242.857ZM457.832 242.857C457.832 243.316 458.14 243.622 458.601 243.622C459.062 243.622 459.37 243.316 459.37 242.857C459.37 242.398 459.062 242.092 458.601 242.092C458.14 242.092 457.832 242.398 457.832 242.857ZM471.674 252.039C471.674 252.498 471.982 252.804 472.443 252.804C472.905 252.804 473.212 252.498 473.212 252.039C473.212 251.58 472.905 251.273 472.443 251.273C471.982 251.273 471.674 251.58 471.674 252.039ZM525.658 253.569C522.89 254.793 519.814 255.405 518.737 254.793C517.815 254.334 517.507 254.487 518.276 255.099C518.891 255.864 518.276 257.548 516.892 259.078C513.662 262.598 514.739 267.036 518.891 267.342C520.891 267.495 521.813 266.883 521.352 265.659C521.044 264.587 522.736 262.598 525.351 261.221C527.965 259.996 530.119 259.231 530.119 259.843C530.119 260.455 531.195 259.996 532.426 258.925C535.348 256.477 545.806 258.313 549.651 261.833C554.419 266.424 556.726 273.463 555.035 278.36C554.266 280.656 552.881 282.492 551.959 282.339C551.036 282.033 550.574 282.798 551.036 283.869C551.343 284.941 550.42 287.236 548.575 288.766C546.883 290.297 545.499 291.062 545.499 290.603C545.499 289.991 542.269 292.592 538.424 296.112C532.426 301.774 531.195 303.764 530.58 310.038C529.811 316.618 529.965 317.384 532.58 316.771C534.271 316.465 535.809 314.476 536.271 311.721C536.886 309.12 538.27 305.6 539.347 303.917C541.5 300.397 550.113 294.735 552.112 295.347C552.881 295.5 553.035 295.041 552.42 294.276C551.959 293.357 552.881 291.98 554.419 291.215C558.726 288.92 562.417 280.197 562.417 272.239C562.417 266.577 561.494 264.434 556.726 258.925C551.189 252.804 550.42 252.498 540.885 251.886C533.964 251.427 529.35 251.886 525.658 253.569ZM556.265 252.039C556.265 252.498 556.573 252.804 557.034 252.804C557.495 252.804 557.803 252.498 557.803 252.039C557.803 251.58 557.495 251.273 557.034 251.273C556.573 251.273 556.265 251.58 556.265 252.039ZM513.201 255.099C513.201 255.558 513.508 255.864 513.97 255.864C514.431 255.864 514.739 255.558 514.739 255.099C514.739 254.64 514.431 254.334 513.97 254.334C513.508 254.334 513.201 254.64 513.201 255.099ZM428.61 261.221C428.61 261.68 428.917 261.986 429.379 261.986C429.84 261.986 430.148 261.68 430.148 261.221C430.148 260.762 429.84 260.455 429.379 260.455C428.917 260.455 428.61 260.762 428.61 261.221ZM533.195 261.221C533.195 261.68 533.502 261.986 533.964 261.986C534.425 261.986 534.733 261.68 534.733 261.221C534.733 260.762 534.425 260.455 533.964 260.455C533.502 260.455 533.195 260.762 533.195 261.221ZM425.534 262.751C425.534 263.21 425.841 263.516 426.303 263.516C426.764 263.516 427.072 263.21 427.072 262.751C427.072 262.292 426.764 261.986 426.303 261.986C425.841 261.986 425.534 262.292 425.534 262.751ZM511.663 267.342C511.663 267.801 511.97 268.107 512.432 268.107C512.893 268.107 513.201 267.801 513.201 267.342C513.201 266.883 512.893 266.577 512.432 266.577C511.97 266.577 511.663 266.883 511.663 267.342ZM517.815 270.403C517.815 270.862 518.122 271.168 518.584 271.168C519.045 271.168 519.353 270.862 519.353 270.403C519.353 269.943 519.045 269.637 518.584 269.637C518.122 269.637 517.815 269.943 517.815 270.403ZM513.201 271.933C513.201 272.392 513.508 272.698 513.97 272.698C514.431 272.698 514.739 272.392 514.739 271.933C514.739 271.474 514.431 271.168 513.97 271.168C513.508 271.168 513.201 271.474 513.201 271.933ZM520.891 271.933C520.891 272.392 521.198 272.698 521.66 272.698C522.121 272.698 522.429 272.392 522.429 271.933C522.429 271.474 522.121 271.168 521.66 271.168C521.198 271.168 520.891 271.474 520.891 271.933ZM396.312 273.463C396.312 273.922 396.619 274.228 397.081 274.228C397.542 274.228 397.85 273.922 397.85 273.463C397.85 273.004 397.542 272.698 397.081 272.698C396.619 272.698 396.312 273.004 396.312 273.463ZM385.545 278.054C385.545 278.513 385.853 278.819 386.314 278.819C386.776 278.819 387.083 278.513 387.083 278.054C387.083 277.595 386.776 277.289 386.314 277.289C385.853 277.289 385.545 277.595 385.545 278.054ZM377.855 285.706C377.855 286.165 378.163 286.471 378.624 286.471C379.086 286.471 379.393 286.165 379.393 285.706C379.393 285.247 379.086 284.941 378.624 284.941C378.163 284.941 377.855 285.247 377.855 285.706ZM540.885 288.766C540.885 289.226 541.192 289.532 541.654 289.532C542.115 289.532 542.423 289.226 542.423 288.766C542.423 288.307 542.115 288.001 541.654 288.001C541.192 288.001 540.885 288.307 540.885 288.766ZM414.768 290.297C414.768 290.756 415.075 291.062 415.537 291.062C415.998 291.062 416.306 290.756 416.306 290.297C416.306 289.838 415.998 289.532 415.537 289.532C415.075 289.532 414.768 289.838 414.768 290.297ZM436.607 291.215C428.61 292.745 421.535 295.959 421.996 297.948C422.612 301.621 426.918 302.386 432.455 299.785C439.684 296.418 447.989 296.418 449.988 299.785C450.911 301.315 451.68 301.774 451.68 301.009C451.68 300.091 452.449 300.55 453.218 301.774C454.448 303.764 454.756 303.764 454.756 301.621C454.756 299.479 444.913 289.073 443.529 289.685C443.375 289.838 440.299 290.45 436.607 291.215ZM536.271 292.592C536.271 293.664 536.732 294.123 537.347 293.664C537.809 293.051 537.809 292.133 537.347 291.521C536.732 291.062 536.271 291.521 536.271 292.592ZM397.85 293.357C397.85 293.817 398.157 294.123 398.619 294.123C399.08 294.123 399.388 293.817 399.388 293.357C399.388 292.898 399.08 292.592 398.619 292.592C398.157 292.592 397.85 292.898 397.85 293.357ZM367.397 299.326C364.782 302.233 362.475 304.376 362.168 304.07C361.86 303.764 361.552 304.835 361.552 306.365C361.552 309.732 363.244 310.344 364.782 307.896C365.397 306.977 366.32 306.671 367.089 307.13C367.704 307.589 368.166 306.671 368.012 305.141C368.012 303.611 368.935 302.692 370.473 302.692C372.011 302.845 372.78 302.233 372.165 301.468C371.242 299.785 381.7 300.55 392.928 302.692C397.388 303.611 397.85 303.305 397.85 299.785C397.85 295.5 393.697 294.123 380.162 294.123C372.78 294.123 371.55 294.582 367.397 299.326ZM556.265 294.888C556.265 295.347 556.573 295.653 557.034 295.653C557.495 295.653 557.803 295.347 557.803 294.888C557.803 294.429 557.495 294.123 557.034 294.123C556.573 294.123 556.265 294.429 556.265 294.888ZM365.551 296.418C365.551 296.877 365.859 297.183 366.32 297.183C366.782 297.183 367.089 296.877 367.089 296.418C367.089 295.959 366.782 295.653 366.32 295.653C365.859 295.653 365.551 295.959 365.551 296.418ZM550.113 297.948C550.113 298.408 550.42 298.714 550.882 298.714C551.343 298.714 551.651 298.408 551.651 297.948C551.651 297.489 551.343 297.183 550.882 297.183C550.42 297.183 550.113 297.489 550.113 297.948ZM528.581 301.009C528.581 301.468 528.888 301.774 529.35 301.774C529.811 301.774 530.119 301.468 530.119 301.009C530.119 300.55 529.811 300.244 529.35 300.244C528.888 300.244 528.581 300.55 528.581 301.009ZM442.452 304.07C442.452 304.529 442.76 304.835 443.221 304.835C443.682 304.835 443.99 304.529 443.99 304.07C443.99 303.611 443.682 303.305 443.221 303.305C442.76 303.305 442.452 303.611 442.452 304.07ZM525.505 304.07C525.505 304.529 525.812 304.835 526.274 304.835C526.735 304.835 527.043 304.529 527.043 304.07C527.043 303.611 526.735 303.305 526.274 303.305C525.812 303.305 525.505 303.611 525.505 304.07ZM388.621 305.6C388.621 306.059 388.929 306.365 389.39 306.365C389.852 306.365 390.159 306.059 390.159 305.6C390.159 305.141 389.852 304.835 389.39 304.835C388.929 304.835 388.621 305.141 388.621 305.6ZM453.218 305.6C453.218 306.059 453.526 306.365 453.987 306.365C454.448 306.365 454.756 306.059 454.756 305.6C454.756 305.141 454.448 304.835 453.987 304.835C453.526 304.835 453.218 305.141 453.218 305.6ZM371.703 307.13C371.703 307.589 372.011 307.896 372.472 307.896C372.934 307.896 373.241 307.589 373.241 307.13C373.241 306.671 372.934 306.365 372.472 306.365C372.011 306.365 371.703 306.671 371.703 307.13ZM387.083 308.661C387.083 309.12 387.391 309.426 387.852 309.426C388.314 309.426 388.621 309.12 388.621 308.661C388.621 308.202 388.314 307.896 387.852 307.896C387.391 307.896 387.083 308.202 387.083 308.661ZM429.071 312.64C422.612 317.078 420.151 320.75 421.843 323.505C423.227 325.647 432.455 329.32 436.3 329.32C442.144 329.32 439.376 326.566 432.147 325.341C428.302 324.576 424.765 323.046 424.303 321.822C423.842 320.597 424.303 320.138 425.38 320.75C426.457 321.515 426.764 320.903 426.149 319.526C425.226 317.231 427.072 316.312 430.609 316.924C431.378 317.078 431.378 316.312 430.763 315.241C430.302 314.17 431.532 315.088 433.839 317.384C436.454 320.138 439.53 321.669 442.452 321.669C444.759 321.669 447.22 322.587 447.681 323.505C448.143 324.576 448.143 323.964 447.681 322.128C447.066 319.373 447.681 318.302 450.911 317.078C455.371 315.394 454.91 313.252 449.834 312.027C447.835 311.568 443.836 310.497 440.76 309.732C435.992 308.508 434.608 308.967 429.071 312.64ZM439.53 316.312C439.376 318.608 435.838 318.149 435.069 315.853C434.608 314.476 435.377 313.864 436.915 314.323C438.453 314.476 439.53 315.394 439.53 316.312ZM364.013 311.721C364.013 312.18 364.321 312.487 364.782 312.487C365.244 312.487 365.551 312.18 365.551 311.721C365.551 311.262 365.244 310.956 364.782 310.956C364.321 310.956 364.013 311.262 364.013 311.721ZM367.089 314.935C363.552 317.996 362.783 319.373 364.321 320.291C365.551 321.056 367.551 320.444 369.55 318.455C371.242 316.924 373.241 316.006 374.01 316.618C374.626 317.384 374.779 316.924 374.164 315.853C372.78 313.711 378.778 313.252 380.162 315.547C380.624 316.312 382.008 316.618 383.238 316.006C386.468 314.935 386.161 318.149 382.931 319.985C380.624 321.209 380.47 321.515 382.469 322.281C386.93 323.811 397.85 324.27 397.85 322.893C397.85 312.18 376.933 306.824 367.089 314.935ZM523.967 311.721C523.967 312.18 524.274 312.487 524.736 312.487C525.197 312.487 525.505 312.18 525.505 311.721C525.505 311.262 525.197 310.956 524.736 310.956C524.274 310.956 523.967 311.262 523.967 311.721ZM411.692 313.252C411.692 313.711 411.999 314.017 412.461 314.017C412.922 314.017 413.23 313.711 413.23 313.252C413.23 312.793 412.922 312.487 412.461 312.487C411.999 312.487 411.692 312.793 411.692 313.252ZM377.855 317.843C377.855 318.302 378.163 318.608 378.624 318.608C379.086 318.608 379.393 318.302 379.393 317.843C379.393 317.384 379.086 317.078 378.624 317.078C378.163 317.078 377.855 317.384 377.855 317.843ZM417.844 317.843C417.844 318.302 418.151 318.608 418.613 318.608C419.074 318.608 419.382 318.302 419.382 317.843C419.382 317.384 419.074 317.078 418.613 317.078C418.151 317.078 417.844 317.384 417.844 317.843ZM353.247 320.138C353.247 321.209 353.709 321.669 354.324 321.209C354.785 320.597 354.785 319.679 354.324 319.067C353.709 318.608 353.247 319.067 353.247 320.138ZM570.107 319.373C570.107 319.832 570.415 320.138 570.876 320.138C571.337 320.138 571.645 319.832 571.645 319.373C571.645 318.914 571.337 318.608 570.876 318.608C570.415 318.608 570.107 318.914 570.107 319.373ZM372.319 322.281C370.165 327.943 383.238 332.993 391.697 329.473C395.235 328.096 395.081 327.943 389.39 327.79C381.239 327.331 375.548 325.8 375.548 323.658C375.548 320.597 373.395 319.679 372.319 322.281ZM374.779 322.434C374.779 322.893 374.472 323.199 374.01 323.199C373.549 323.199 373.241 322.893 373.241 322.434C373.241 321.975 373.549 321.669 374.01 321.669C374.472 321.669 374.779 321.975 374.779 322.434ZM428.61 322.434C428.61 322.893 428.917 323.199 429.379 323.199C429.84 323.199 430.148 322.893 430.148 322.434C430.148 321.975 429.84 321.669 429.379 321.669C428.917 321.669 428.61 321.975 428.61 322.434ZM368.627 323.964C368.627 324.423 368.935 324.729 369.396 324.729C369.858 324.729 370.165 324.423 370.165 323.964C370.165 323.505 369.858 323.199 369.396 323.199C368.935 323.199 368.627 323.505 368.627 323.964ZM379.393 323.964C379.393 324.423 379.701 324.729 380.162 324.729C380.624 324.729 380.931 324.423 380.931 323.964C380.931 323.505 380.624 323.199 380.162 323.199C379.701 323.199 379.393 323.505 379.393 323.964ZM530.119 323.964C530.119 324.423 530.426 324.729 530.888 324.729C531.349 324.729 531.657 324.423 531.657 323.964C531.657 323.505 531.349 323.199 530.888 323.199C530.426 323.199 530.119 323.505 530.119 323.964ZM559.802 325.035C560.11 326.106 562.571 327.025 565.185 327.025C570.107 327.178 578.412 332.075 577.797 334.523C577.643 335.288 578.412 336.36 579.335 336.972C581.642 338.349 580.258 343.093 576.105 347.378C573.798 349.98 571.337 350.745 565.493 350.745C556.573 350.745 550.882 352.581 549.498 356.101C547.806 360.539 550.113 361.61 554.266 358.396C556.573 356.713 560.571 355.336 563.647 355.336C571.645 355.336 580.104 352.428 582.411 348.755C585.949 343.093 586.871 335.748 584.411 333.758C583.334 332.687 582.719 330.85 583.18 329.473C583.642 328.249 583.642 327.637 583.026 328.249C582.411 328.708 580.104 327.943 577.797 326.259C572.722 322.74 558.572 321.822 559.802 325.035ZM347.095 329.32C347.095 330.391 347.557 330.85 348.172 330.391C348.633 329.779 348.633 328.861 348.172 328.249C347.557 327.79 347.095 328.249 347.095 329.32ZM565.493 330.085C565.493 330.544 565.801 330.85 566.262 330.85C566.723 330.85 567.031 330.544 567.031 330.085C567.031 329.626 566.723 329.32 566.262 329.32C565.801 329.32 565.493 329.626 565.493 330.085ZM594.715 330.085C594.715 330.544 595.023 330.85 595.484 330.85C595.946 330.85 596.253 330.544 596.253 330.085C596.253 329.626 595.946 329.32 595.484 329.32C595.023 329.32 594.715 329.626 594.715 330.085ZM531.349 331.922C528.427 332.687 526.735 336.054 527.965 339.267C529.35 342.787 535.809 342.175 537.04 338.349C538.27 334.523 535.194 331.003 531.349 331.922ZM573.183 333.146C573.183 333.605 573.491 333.911 573.952 333.911C574.414 333.911 574.721 333.605 574.721 333.146C574.721 332.687 574.414 332.381 573.952 332.381C573.491 332.381 573.183 332.687 573.183 333.146ZM570.107 334.676C570.107 335.135 570.415 335.441 570.876 335.441C571.337 335.441 571.645 335.135 571.645 334.676C571.645 334.217 571.337 333.911 570.876 333.911C570.415 333.911 570.107 334.217 570.107 334.676ZM354.785 337.737C354.785 338.196 355.093 338.502 355.554 338.502C356.016 338.502 356.323 338.196 356.323 337.737C356.323 337.278 356.016 336.972 355.554 336.972C355.093 336.972 354.785 337.278 354.785 337.737ZM399.388 339.267C399.388 339.726 399.695 340.032 400.157 340.032C400.618 340.032 400.926 339.726 400.926 339.267C400.926 338.808 400.618 338.502 400.157 338.502C399.695 338.502 399.388 338.808 399.388 339.267ZM353.247 340.798C353.247 341.257 353.555 341.563 354.016 341.563C354.478 341.563 354.785 341.257 354.785 340.798C354.785 340.338 354.478 340.032 354.016 340.032C353.555 340.032 353.247 340.338 353.247 340.798ZM574.721 340.798C574.721 341.257 575.029 341.563 575.49 341.563C575.952 341.563 576.259 341.257 576.259 340.798C576.259 340.338 575.952 340.032 575.49 340.032C575.029 340.032 574.721 340.338 574.721 340.798ZM339.405 347.684C339.405 348.755 339.866 349.214 340.482 348.755C340.943 348.143 340.943 347.225 340.482 346.613C339.866 346.154 339.405 346.613 339.405 347.684ZM400.926 347.531C400.926 349.98 403.848 351.051 407.539 349.827C410.769 348.755 410.769 348.755 407.847 347.531C403.54 345.848 400.926 345.848 400.926 347.531ZM413.23 348.449C413.23 349.673 411.999 350.745 410.615 350.898C408.769 350.898 408.616 351.204 409.846 351.816C411.999 352.581 416.306 349.673 416.306 347.531C416.306 346.766 415.691 346.154 414.768 346.154C413.999 346.154 413.23 347.225 413.23 348.449ZM419.382 348.449C419.382 349.673 418.613 350.745 417.536 350.745C416.613 350.745 416.152 351.051 416.613 351.51C417.075 351.969 418.613 351.969 419.997 351.357C422.612 350.286 423.381 346.154 420.92 346.154C420.151 346.154 419.382 347.225 419.382 348.449ZM322.487 350.745C322.487 351.969 323.256 354.111 324.025 355.336C325.409 357.325 325.563 357.325 325.563 355.336C325.563 354.111 324.794 351.969 324.025 350.745C322.641 348.755 322.487 348.755 322.487 350.745ZM327.255 354.877C327.101 359.621 326.486 361.457 324.794 361.457C323.41 361.457 322.487 362.987 322.487 365.436C322.487 367.578 321.718 370.639 320.795 372.322C320.026 374.006 319.565 376.607 319.872 377.985C320.487 380.127 320.795 379.974 321.718 377.066C322.333 375.23 323.41 373.7 324.025 373.7C326.024 373.7 329.1 358.396 328.178 353.04C327.716 349.367 327.562 349.673 327.255 354.877ZM519.353 349.98C519.353 350.439 519.66 350.745 520.122 350.745C520.583 350.745 520.891 350.439 520.891 349.98C520.891 349.52 520.583 349.214 520.122 349.214C519.66 349.214 519.353 349.52 519.353 349.98ZM501.665 352.275C502.127 353.04 502.896 353.805 503.357 353.805C503.819 353.805 503.665 353.04 503.203 352.275C502.742 351.357 501.973 350.745 501.512 350.745C501.05 350.745 501.204 351.357 501.665 352.275ZM505.51 351.51C505.51 351.969 505.818 352.275 506.28 352.275C506.741 352.275 507.049 351.969 507.049 351.51C507.049 351.051 506.741 350.745 506.28 350.745C505.818 350.745 505.51 351.051 505.51 351.51ZM516.277 351.51C516.277 351.969 516.584 352.275 517.046 352.275C517.507 352.275 517.815 351.969 517.815 351.51C517.815 351.051 517.507 350.745 517.046 350.745C516.584 350.745 516.277 351.051 516.277 351.51ZM547.652 352.581C547.037 353.652 547.191 353.805 548.267 353.193C550.113 352.122 550.728 350.745 549.498 350.745C549.036 350.745 548.267 351.51 547.652 352.581ZM582.411 351.51C582.411 351.969 582.719 352.275 583.18 352.275C583.642 352.275 583.949 351.969 583.949 351.51C583.949 351.051 583.642 350.745 583.18 350.745C582.719 350.745 582.411 351.051 582.411 351.51ZM404.002 353.04C404.002 353.499 404.309 353.805 404.771 353.805C405.232 353.805 405.54 353.499 405.54 353.04C405.54 352.581 405.232 352.275 404.771 352.275C404.309 352.275 404.002 352.581 404.002 353.04ZM504.588 355.948C500.896 358.702 503.05 361.151 507.049 358.702C510.894 356.407 515.2 356.407 517.507 358.702C520.583 361.763 519.66 365.13 514.739 369.874C510.278 374.006 508.433 381.351 511.663 381.351C512.585 381.351 513.201 380.127 513.201 378.597C513.201 377.066 515.354 374.159 517.815 371.863C523.044 367.272 523.967 360.233 519.968 356.254C517.046 353.193 508.587 353.04 504.588 355.948ZM499.358 356.101C499.358 356.56 499.666 356.866 500.127 356.866C500.589 356.866 500.896 356.56 500.896 356.101C500.896 355.642 500.589 355.336 500.127 355.336C499.666 355.336 499.358 355.642 499.358 356.101ZM399.541 360.998C394.466 365.742 396.004 366.66 410.307 366.966C420.305 367.272 422.919 366.813 423.534 364.824C426.303 357.937 406.001 354.571 399.541 360.998ZM413.23 361.457C413.23 362.222 410.923 362.987 408.308 362.834C403.54 362.681 403.386 362.681 407.078 361.457C412.461 359.774 413.23 359.774 413.23 361.457ZM417.844 362.069C417.844 362.528 417.229 363.293 416.306 363.752C415.537 364.212 414.768 363.906 414.768 363.14C414.768 362.222 415.537 361.457 416.306 361.457C417.229 361.457 417.844 361.763 417.844 362.069ZM573.183 357.631C573.183 358.09 573.491 358.396 573.952 358.396C574.414 358.396 574.721 358.09 574.721 357.631C574.721 357.172 574.414 356.866 573.952 356.866C573.491 356.866 573.183 357.172 573.183 357.631ZM581.642 358.243C581.181 359.008 581.335 360.08 582.104 360.539C582.873 360.998 583.488 360.386 583.488 359.161C583.488 356.56 583.026 356.254 581.642 358.243ZM498.589 359.927C499.051 360.692 499.82 361.457 500.281 361.457C500.743 361.457 500.589 360.692 500.127 359.927C499.666 359.008 498.897 358.396 498.436 358.396C497.974 358.396 498.128 359.008 498.589 359.927ZM510.125 359.161C510.125 359.621 510.432 359.927 510.894 359.927C511.355 359.927 511.663 359.621 511.663 359.161C511.663 358.702 511.355 358.396 510.894 358.396C510.432 358.396 510.125 358.702 510.125 359.161ZM557.803 359.161C557.803 359.621 558.111 359.927 558.572 359.927C559.033 359.927 559.341 359.621 559.341 359.161C559.341 358.702 559.033 358.396 558.572 358.396C558.111 358.396 557.803 358.702 557.803 359.161ZM513.201 360.692C513.201 361.151 513.508 361.457 513.97 361.457C514.431 361.457 514.739 361.151 514.739 360.692C514.739 360.233 514.431 359.927 513.97 359.927C513.508 359.927 513.201 360.233 513.201 360.692ZM336.329 362.987C336.329 364.059 336.79 364.518 337.406 364.059C337.867 363.446 337.867 362.528 337.406 361.916C336.79 361.457 336.329 361.916 336.329 362.987ZM364.782 362.987C365.244 363.752 366.013 364.518 366.474 364.518C366.935 364.518 366.782 363.752 366.32 362.987C365.859 362.069 365.09 361.457 364.628 361.457C364.167 361.457 364.321 362.069 364.782 362.987ZM369.55 362.681C369.089 363.446 369.704 364.059 370.934 364.059C372.165 364.059 372.78 363.446 372.319 362.681C371.857 362.069 371.242 361.457 370.934 361.457C370.627 361.457 370.012 362.069 369.55 362.681ZM537.809 362.222C537.809 362.681 538.116 362.987 538.578 362.987C539.039 362.987 539.347 362.681 539.347 362.222C539.347 361.763 539.039 361.457 538.578 361.457C538.116 361.457 537.809 361.763 537.809 362.222ZM536.271 365.283C536.271 365.742 536.578 366.048 537.04 366.048C537.501 366.048 537.809 365.742 537.809 365.283C537.809 364.824 537.501 364.518 537.04 364.518C536.578 364.518 536.271 364.824 536.271 365.283ZM334.791 367.578C334.791 368.65 335.252 369.109 335.868 368.65C336.329 368.037 336.329 367.119 335.868 366.507C335.252 366.048 334.791 366.507 334.791 367.578ZM370.165 367.425C370.165 368.343 370.934 369.415 371.703 369.874C372.626 370.333 373.241 369.721 373.241 368.496C373.241 367.119 372.626 366.048 371.703 366.048C370.934 366.048 370.165 366.66 370.165 367.425ZM511.663 366.813C511.663 367.272 511.97 367.578 512.432 367.578C512.893 367.578 513.201 367.272 513.201 366.813C513.201 366.354 512.893 366.048 512.432 366.048C511.97 366.048 511.663 366.354 511.663 366.813ZM540.423 367.119C538.116 369.415 539.501 373.7 542.423 373.7C544.115 373.7 545.499 372.781 545.499 371.557C545.499 368.956 541.808 365.742 540.423 367.119ZM404.463 370.18C405.078 370.639 406.001 370.639 406.616 370.18C407.078 369.568 406.616 369.109 405.54 369.109C404.463 369.109 404.002 369.568 404.463 370.18ZM413.999 370.486C413.076 371.251 411.076 372.169 409.385 372.628C406.924 373.24 407.078 373.394 410.307 373.547C412.461 373.547 415.537 372.628 417.229 371.404C419.536 369.721 419.689 369.262 417.844 369.109C416.46 369.109 414.768 369.721 413.999 370.486ZM399.388 372.934C399.388 373.394 399.695 373.7 400.157 373.7C400.618 373.7 400.926 373.394 400.926 372.934C400.926 372.475 400.618 372.169 400.157 372.169C399.695 372.169 399.388 372.475 399.388 372.934ZM382.469 375.23C382.469 376.301 382.931 376.76 383.546 376.301C384.007 375.689 384.007 374.771 383.546 374.159C382.931 373.7 382.469 374.159 382.469 375.23ZM403.694 376.301C404.771 376.76 406.155 376.607 406.616 376.148C407.231 375.689 406.309 375.23 404.617 375.383C402.925 375.383 402.464 375.842 403.694 376.301ZM438.761 377.066C439.222 377.831 440.299 377.985 441.068 377.525C443.067 376.148 442.76 375.689 440.145 375.689C438.915 375.689 438.299 376.301 438.761 377.066ZM453.218 379.056C453.218 379.515 453.526 379.821 453.987 379.821C454.448 379.821 454.756 379.515 454.756 379.056C454.756 378.597 454.448 378.291 453.987 378.291C453.526 378.291 453.218 378.597 453.218 379.056ZM450.142 380.586C450.142 381.045 450.45 381.351 450.911 381.351C451.372 381.351 451.68 381.045 451.68 380.586C451.68 380.127 451.372 379.821 450.911 379.821C450.45 379.821 450.142 380.127 450.142 380.586ZM385.699 383.8C385.699 385.483 386.161 385.942 386.622 384.718C387.083 383.647 386.93 382.269 386.468 381.81C386.007 381.198 385.545 382.116 385.699 383.8ZM447.066 383.647C447.066 384.106 447.374 384.412 447.835 384.412C448.296 384.412 448.604 384.106 448.604 383.647C448.604 383.188 448.296 382.882 447.835 382.882C447.374 382.882 447.066 383.188 447.066 383.647ZM445.528 386.707C445.528 387.166 445.836 387.473 446.297 387.473C446.758 387.473 447.066 387.166 447.066 386.707C447.066 386.248 446.758 385.942 446.297 385.942C445.836 385.942 445.528 386.248 445.528 386.707ZM510.125 388.085C510.125 389.309 510.74 390.686 511.509 391.145C513.047 392.217 515.046 388.238 513.662 386.86C511.97 385.177 510.125 385.942 510.125 388.085ZM382.469 392.064C382.469 392.829 383.392 393.594 384.623 393.594C385.853 393.594 387.083 394.206 387.391 395.124C387.699 396.042 388.621 396.042 390.159 395.124C392.159 393.9 392.005 393.594 389.852 393.594C388.314 393.594 387.083 392.829 387.083 392.064C387.083 391.145 386.007 390.533 384.776 390.533C383.546 390.533 382.469 391.145 382.469 392.064ZM394.466 396.501C396.004 397.42 396.004 398.032 394.005 399.715C392.774 400.786 391.697 402.929 391.697 404.459C391.697 406.908 392.159 406.755 395.543 403.388C400.003 398.95 400.31 397.267 396.927 396.042C393.543 394.665 392.159 394.971 394.466 396.501ZM322.487 397.42C322.487 397.879 322.794 398.185 323.256 398.185C323.717 398.185 324.025 397.879 324.025 397.42C324.025 396.961 323.717 396.654 323.256 396.654C322.794 396.654 322.487 396.961 322.487 397.42ZM339.405 409.662C338.328 411.805 337.867 413.947 338.328 414.559C338.944 415.018 339.405 414.253 339.559 412.57C339.559 409.815 339.713 409.815 340.943 412.723C342.02 415.324 342.327 415.018 342.327 410.733C342.481 404.765 342.02 404.612 339.405 409.662ZM402.156 408.897C401.079 410.58 399.695 411.958 398.926 411.958C398.311 411.958 398.003 411.346 398.465 410.733C398.772 410.121 397.85 409.509 396.465 409.509C393.851 409.509 393.851 409.815 396.773 413.794L400.003 418.079L402.31 414.253C403.694 412.111 405.232 410.427 405.847 410.427C406.616 410.427 407.078 409.356 407.078 408.132C407.078 404.918 404.309 405.224 402.156 408.897ZM310.183 409.662C310.183 410.121 310.49 410.427 310.952 410.427C311.413 410.427 311.721 410.121 311.721 409.662C311.721 409.203 311.413 408.897 310.952 408.897C310.49 408.897 310.183 409.203 310.183 409.662ZM387.083 409.662C387.083 410.121 387.391 410.427 387.852 410.427C388.314 410.427 388.621 410.121 388.621 409.662C388.621 409.203 388.314 408.897 387.852 408.897C387.391 408.897 387.083 409.203 387.083 409.662ZM322.948 411.499C323.563 411.958 324.486 411.958 325.102 411.499C325.563 410.887 325.102 410.427 324.025 410.427C322.948 410.427 322.487 410.887 322.948 411.499ZM319.411 412.723C319.411 413.182 319.718 413.488 320.18 413.488C320.641 413.488 320.949 413.182 320.949 412.723C320.949 412.264 320.641 411.958 320.18 411.958C319.718 411.958 319.411 412.264 319.411 412.723ZM324.025 417.314C324.025 417.773 324.333 418.079 324.794 418.079C325.255 418.079 325.563 417.773 325.563 417.314C325.563 416.855 325.255 416.549 324.794 416.549C324.333 416.549 324.025 416.855 324.025 417.314ZM290.189 418.844C290.189 419.303 290.496 419.609 290.958 419.609C291.419 419.609 291.727 419.303 291.727 418.844C291.727 418.385 291.419 418.079 290.958 418.079C290.496 418.079 290.189 418.385 290.189 418.844ZM301.878 422.976C299.109 426.802 298.801 429.71 300.801 431.087C302.185 431.852 306.184 421.14 304.954 419.915C304.646 419.609 303.262 420.987 301.878 422.976ZM307.107 421.905C307.107 422.364 307.414 422.67 307.876 422.67C308.337 422.67 308.645 422.364 308.645 421.905C308.645 421.446 308.337 421.14 307.876 421.14C307.414 421.14 307.107 421.446 307.107 421.905ZM310.183 424.2C310.183 425.272 310.644 425.731 311.259 425.272C311.721 424.659 311.721 423.741 311.259 423.129C310.644 422.67 310.183 423.129 310.183 424.2ZM413.383 428.332C411.384 435.525 412.307 436.596 414.768 430.016C416.306 426.19 416.921 425.731 417.382 427.72C417.844 429.097 418.767 430.016 419.536 429.556C421.227 428.485 418.459 422.67 416.306 422.67C415.537 422.67 414.152 425.272 413.383 428.332ZM475.365 426.037C474.75 427.108 474.904 427.261 475.981 426.649C477.826 425.578 478.441 424.2 477.211 424.2C476.75 424.2 475.981 424.966 475.365 426.037ZM442.452 428.026C442.452 428.485 442.76 428.791 443.221 428.791C443.682 428.791 443.99 428.485 443.99 428.026C443.99 427.567 443.682 427.261 443.221 427.261C442.76 427.261 442.452 427.567 442.452 428.026ZM307.414 431.852C307.414 433.994 307.722 434.76 308.183 433.688C308.491 432.77 308.491 430.934 308.183 429.863C307.722 428.944 307.414 429.71 307.414 431.852ZM442.913 432.158C443.375 434.607 445.682 436.443 448.296 436.443C449.834 436.443 449.834 435.831 448.296 433.382C446.143 430.016 442.298 429.25 442.913 432.158ZM298.955 434.454C294.649 441.952 293.88 474.548 297.879 475.925C298.801 476.231 299.109 476.997 298.648 477.762C298.186 478.374 298.801 480.822 300.032 482.965C301.57 485.872 302.339 486.485 302.954 484.954C303.416 483.73 303.262 482.2 302.647 481.435C297.571 475.466 295.572 451.593 299.263 440.575C301.109 435.372 300.801 431.24 298.955 434.454ZM310.183 434.147C310.183 434.607 310.49 434.913 310.952 434.913C311.413 434.913 311.721 434.607 311.721 434.147C311.721 433.688 311.413 433.382 310.952 433.382C310.49 433.382 310.183 433.688 310.183 434.147ZM482.44 434.147C482.44 434.607 482.748 434.913 483.209 434.913C483.671 434.913 483.978 434.607 483.978 434.147C483.978 433.688 483.671 433.382 483.209 433.382C482.748 433.382 482.44 433.688 482.44 434.147ZM408.923 437.973C411.076 441.34 412.614 440.881 411.23 437.208C410.615 435.984 409.538 434.913 408.616 434.913C407.693 434.913 407.693 435.984 408.923 437.973ZM448.604 438.738C448.604 439.198 448.912 439.504 449.373 439.504C449.834 439.504 450.142 439.198 450.142 438.738C450.142 438.279 449.834 437.973 449.373 437.973C448.912 437.973 448.604 438.279 448.604 438.738ZM482.44 440.269C482.44 440.728 482.748 441.034 483.209 441.034C483.671 441.034 483.978 440.728 483.978 440.269C483.978 439.81 483.671 439.504 483.209 439.504C482.748 439.504 482.44 439.81 482.44 440.269ZM414.768 444.248C414.768 447.767 420.766 459.398 422.612 459.398C423.227 459.398 422.15 456.49 420.151 453.124C418.151 449.604 416.921 445.778 417.382 444.86C417.69 443.789 417.382 442.411 416.46 441.799C415.383 441.34 414.768 442.258 414.768 444.248ZM471.674 443.329C471.674 443.789 471.982 444.095 472.443 444.095C472.905 444.095 473.212 443.789 473.212 443.329C473.212 442.87 472.905 442.564 472.443 442.564C471.982 442.564 471.674 442.87 471.674 443.329ZM451.68 444.86C451.68 445.319 451.988 445.625 452.449 445.625C452.91 445.625 453.218 445.319 453.218 444.86C453.218 444.401 452.91 444.095 452.449 444.095C451.988 444.095 451.68 444.401 451.68 444.86ZM354.785 446.39C354.785 446.849 355.093 447.155 355.554 447.155C356.016 447.155 356.323 446.849 356.323 446.39C356.323 445.931 356.016 445.625 355.554 445.625C355.093 445.625 354.785 445.931 354.785 446.39ZM448.604 446.39C448.604 446.849 448.912 447.155 449.373 447.155C449.834 447.155 450.142 446.849 450.142 446.39C450.142 445.931 449.834 445.625 449.373 445.625C448.912 445.625 448.604 445.931 448.604 446.39ZM459.37 446.39C459.37 446.849 459.678 447.155 460.139 447.155C460.601 447.155 460.908 446.849 460.908 446.39C460.908 445.931 460.601 445.625 460.139 445.625C459.678 445.625 459.37 445.931 459.37 446.39ZM460.908 450.369C460.908 451.134 461.677 451.44 462.446 450.981C463.369 450.522 463.984 449.757 463.984 449.298C463.984 448.992 463.369 448.686 462.446 448.686C461.677 448.686 460.908 449.451 460.908 450.369ZM465.522 452.511C465.522 453.736 466.599 454.807 467.983 454.807C470.136 454.807 470.136 454.348 468.598 452.511C467.522 451.287 466.445 450.216 466.137 450.216C465.83 450.216 465.522 451.287 465.522 452.511ZM471.674 455.572C471.674 456.031 471.982 456.337 472.443 456.337C472.905 456.337 473.212 456.031 473.212 455.572C473.212 455.113 472.905 454.807 472.443 454.807C471.982 454.807 471.674 455.113 471.674 455.572ZM314.797 457.868C314.797 458.939 315.258 459.398 315.873 458.939C316.335 458.327 316.335 457.408 315.873 456.796C315.258 456.337 314.797 456.796 314.797 457.868ZM360.322 458.633C359.861 460.01 359.399 462.305 359.553 463.683C359.553 465.06 360.322 464.295 361.091 461.846C362.475 456.949 362.014 454.501 360.322 458.633ZM475.212 458.786C474.135 461.693 475.519 463.071 478.595 461.999C481.517 460.775 481.517 458.48 478.595 457.255C477.211 456.796 475.827 457.408 475.212 458.786ZM308.645 460.163C308.645 460.622 308.952 460.928 309.414 460.928C309.875 460.928 310.183 460.622 310.183 460.163C310.183 459.704 309.875 459.398 309.414 459.398C308.952 459.398 308.645 459.704 308.645 460.163ZM330.177 460.163C330.177 460.622 330.485 460.928 330.946 460.928C331.407 460.928 331.715 460.622 331.715 460.163C331.715 459.704 331.407 459.398 330.946 459.398C330.485 459.398 330.177 459.704 330.177 460.163ZM471.674 463.989C471.674 465.06 472.136 465.519 472.751 465.06C473.212 464.448 473.212 463.53 472.751 462.918C472.136 462.459 471.674 462.918 471.674 463.989ZM290.342 469.498C290.342 471.181 290.804 471.64 291.265 470.416C291.727 469.345 291.573 467.968 291.111 467.509C290.65 466.896 290.189 467.815 290.342 469.498ZM351.094 470.875C349.71 474.854 350.017 475.772 351.863 472.712C352.786 471.181 353.247 469.498 352.786 469.192C352.478 468.733 351.709 469.498 351.094 470.875ZM311.721 470.875C311.721 471.334 312.028 471.64 312.49 471.64C312.951 471.64 313.259 471.334 313.259 470.875C313.259 470.416 312.951 470.11 312.49 470.11C312.028 470.11 311.721 470.416 311.721 470.875ZM428.764 473.936C428.764 475.619 429.379 478.374 430.148 480.057L431.532 483.118V480.057C431.532 478.374 430.917 475.619 430.148 473.936L428.764 470.875V473.936ZM362.783 476.231C362.783 478.374 363.09 479.139 363.552 478.068C363.859 477.15 363.859 475.313 363.552 474.242C363.09 473.324 362.783 474.089 362.783 476.231ZM327.101 479.292C327.101 480.363 327.562 480.822 328.178 480.363C328.639 479.751 328.639 478.833 328.178 478.221C327.562 477.762 327.101 478.221 327.101 479.292ZM359.553 481.588C359.553 483.271 360.476 486.332 361.706 488.474C364.475 493.218 364.475 490.923 361.706 483.883C360.322 480.363 359.553 479.598 359.553 481.588ZM456.602 481.128C457.063 482.2 458.601 483.424 459.985 483.577C461.831 484.036 462.6 483.424 462.139 482.047C461.677 480.975 460.139 479.751 458.755 479.598C456.909 479.139 456.14 479.751 456.602 481.128ZM351.709 482.353C351.709 483.424 352.171 483.883 352.786 483.424C353.247 482.812 353.247 481.894 352.786 481.282C352.171 480.822 351.709 481.282 351.709 482.353ZM364.013 482.353C364.013 483.424 364.475 483.883 365.09 483.424C365.551 482.812 365.551 481.894 365.09 481.282C364.475 480.822 364.013 481.282 364.013 482.353ZM328.639 483.118C328.639 483.577 328.947 483.883 329.408 483.883C329.869 483.883 330.177 483.577 330.177 483.118C330.177 482.659 329.869 482.353 329.408 482.353C328.947 482.353 328.639 482.659 328.639 483.118ZM431.686 484.648C431.686 485.107 431.993 485.413 432.455 485.413C432.916 485.413 433.224 485.107 433.224 484.648C433.224 484.189 432.916 483.883 432.455 483.883C431.993 483.883 431.686 484.189 431.686 484.648ZM436.3 484.648C436.3 485.107 436.607 485.413 437.069 485.413C437.53 485.413 437.838 485.107 437.838 484.648C437.838 484.189 437.53 483.883 437.069 483.883C436.607 483.883 436.3 484.189 436.3 484.648ZM356.477 493.065C356.477 494.289 357.092 496.432 357.861 497.656C359.707 500.411 359.707 497.962 357.861 493.83C356.938 491.841 356.477 491.535 356.477 493.065ZM418.305 499.339C408.616 506.838 407.231 508.827 410.154 510.664C411.076 511.123 411.692 510.97 411.692 510.358C411.692 509.593 415.844 507.45 420.92 505.461C429.84 501.941 435.838 497.656 431.84 497.656C430.763 497.656 430.148 496.585 430.455 495.207C431.378 490.463 427.841 491.688 418.305 499.339ZM427.072 498.268C427.072 498.727 426.303 499.492 425.226 500.105C424.15 500.717 423.996 500.564 424.611 499.492C425.688 497.656 427.072 497.044 427.072 498.268ZM434.762 492.3C434.762 492.759 435.069 493.065 435.531 493.065C435.992 493.065 436.3 492.759 436.3 492.3C436.3 491.841 435.992 491.535 435.531 491.535C435.069 491.535 434.762 491.841 434.762 492.3ZM364.321 497.656C364.321 500.564 364.782 504.389 365.551 506.073C366.782 508.827 366.935 508.827 366.782 505.308C366.782 503.165 366.166 499.339 365.551 496.891L364.321 492.3V497.656ZM436.3 494.595C435.069 495.361 434.454 496.432 435.069 496.891C436.454 498.268 442.452 496.279 442.452 494.442C442.452 492.606 439.222 492.759 436.3 494.595ZM298.34 495.667C298.955 496.126 299.878 496.126 300.493 495.667C300.955 495.054 300.493 494.595 299.417 494.595C298.34 494.595 297.879 495.054 298.34 495.667ZM324.025 497.656C324.025 498.727 324.486 499.186 325.102 498.727C325.563 498.115 325.563 497.197 325.102 496.585C324.486 496.126 324.025 496.585 324.025 497.656ZM340.328 498.421C340.943 499.645 341.558 500.717 341.866 500.717C342.173 500.717 342.481 499.645 342.481 498.421C342.481 497.197 341.866 496.126 340.943 496.126C340.174 496.126 339.866 497.197 340.328 498.421ZM336.329 501.482C336.329 501.941 336.637 502.247 337.098 502.247C337.559 502.247 337.867 501.941 337.867 501.482C337.867 501.023 337.559 500.717 337.098 500.717C336.637 500.717 336.329 501.023 336.329 501.482ZM359.399 502.247C359.399 503.318 359.861 503.777 360.476 503.318C360.937 502.706 360.937 501.788 360.476 501.176C359.861 500.717 359.399 501.176 359.399 502.247ZM277.884 507.603C277.884 508.062 278.192 508.368 278.654 508.368C279.115 508.368 279.423 508.062 279.423 507.603C279.423 507.144 279.115 506.838 278.654 506.838C278.192 506.838 277.884 507.144 277.884 507.603ZM233.282 529.793C233.282 530.864 233.744 531.323 234.359 530.864C234.82 530.252 234.82 529.334 234.359 528.722C233.744 528.263 233.282 528.722 233.282 529.793ZM288.651 532.088C288.651 532.547 288.958 532.854 289.42 532.854C289.881 532.854 290.189 532.547 290.189 532.088C290.189 531.629 289.881 531.323 289.42 531.323C288.958 531.323 288.651 531.629 288.651 532.088ZM525.505 532.088C525.505 532.547 525.812 532.854 526.274 532.854C526.735 532.854 527.043 532.547 527.043 532.088C527.043 531.629 526.735 531.323 526.274 531.323C525.812 531.323 525.505 531.629 525.505 532.088ZM521.66 537.598C521.044 538.516 520.891 539.434 521.352 539.893C521.66 540.352 522.429 539.587 522.89 538.21C523.967 535.608 523.044 535.149 521.66 537.598ZM310.183 541.27C310.183 541.729 310.49 542.035 310.952 542.035C311.413 542.035 311.721 541.729 311.721 541.27C311.721 540.811 311.413 540.505 310.952 540.505C310.49 540.505 310.183 540.811 310.183 541.27ZM516.277 542.188C516.277 542.954 517.046 543.26 517.815 542.801C518.737 542.342 519.353 541.576 519.353 541.117C519.353 540.811 518.737 540.505 517.815 540.505C517.046 540.505 516.277 541.27 516.277 542.188ZM513.201 544.331C513.201 544.79 513.508 545.096 513.97 545.096C514.431 545.096 514.739 544.79 514.739 544.331C514.739 543.872 514.431 543.566 513.97 543.566C513.508 543.566 513.201 543.872 513.201 544.331ZM239.588 546.779C239.434 548.004 240.511 550.452 241.895 552.136C244.202 555.043 244.202 555.043 242.818 551.983C242.049 550.299 240.972 547.851 240.511 546.626C239.742 544.637 239.588 544.637 239.588 546.779ZM510.125 547.392C510.125 547.851 510.432 548.157 510.894 548.157C511.355 548.157 511.663 547.851 511.663 547.392C511.663 546.933 511.355 546.626 510.894 546.626C510.432 546.626 510.125 546.933 510.125 547.392ZM314.797 550.452C314.797 550.911 315.104 551.217 315.566 551.217C316.027 551.217 316.335 550.911 316.335 550.452C316.335 549.993 316.027 549.687 315.566 549.687C315.104 549.687 314.797 549.993 314.797 550.452ZM300.955 555.043C300.955 555.502 301.262 555.808 301.724 555.808C302.185 555.808 302.493 555.502 302.493 555.043C302.493 554.584 302.185 554.278 301.724 554.278C301.262 554.278 300.955 554.584 300.955 555.043ZM244.048 556.574C244.048 557.033 244.356 557.339 244.817 557.339C245.279 557.339 245.586 557.033 245.586 556.574C245.586 556.114 245.279 555.808 244.817 555.808C244.356 555.808 244.048 556.114 244.048 556.574ZM297.879 556.574C297.879 557.033 298.186 557.339 298.648 557.339C299.109 557.339 299.417 557.033 299.417 556.574C299.417 556.114 299.109 555.808 298.648 555.808C298.186 555.808 297.879 556.114 297.879 556.574ZM327.101 563.46C327.101 564.531 327.562 564.99 328.178 564.531C328.639 563.919 328.639 563.001 328.178 562.389C327.562 561.93 327.101 562.389 327.101 563.46ZM384.007 565.756C384.007 566.215 384.315 566.521 384.776 566.521C385.238 566.521 385.545 566.215 385.545 565.756C385.545 565.296 385.238 564.99 384.776 564.99C384.315 564.99 384.007 565.296 384.007 565.756ZM250.2 568.051C250.2 569.122 250.662 569.581 251.277 569.122C251.738 568.51 251.738 567.592 251.277 566.98C250.662 566.521 250.2 566.98 250.2 568.051ZM379.393 567.286C379.393 567.745 379.701 568.051 380.162 568.051C380.624 568.051 380.931 567.745 380.931 567.286C380.931 566.827 380.624 566.521 380.162 566.521C379.701 566.521 379.393 566.827 379.393 567.286ZM325.563 568.816C325.563 569.275 325.871 569.581 326.332 569.581C326.793 569.581 327.101 569.275 327.101 568.816C327.101 568.357 326.793 568.051 326.332 568.051C325.871 568.051 325.563 568.357 325.563 568.816ZM371.703 577.998C371.703 578.457 372.011 578.763 372.472 578.763C372.934 578.763 373.241 578.457 373.241 577.998C373.241 577.539 372.934 577.233 372.472 577.233C372.011 577.233 371.703 577.539 371.703 577.998ZM258.659 581.824C259.121 582.589 259.89 583.354 260.351 583.354C260.813 583.354 260.659 582.589 260.197 581.824C259.736 580.906 258.967 580.294 258.506 580.294C258.044 580.294 258.198 580.906 258.659 581.824ZM360.937 591.771C360.937 592.23 361.245 592.536 361.706 592.536C362.168 592.536 362.475 592.23 362.475 591.771C362.475 591.312 362.168 591.006 361.706 591.006C361.245 591.006 360.937 591.312 360.937 591.771ZM267.118 594.832C267.118 595.291 267.426 595.597 267.887 595.597C268.349 595.597 268.656 595.291 268.656 594.832C268.656 594.373 268.349 594.067 267.887 594.067C267.426 594.067 267.118 594.373 267.118 594.832ZM274.808 602.483C274.808 602.942 275.116 603.249 275.577 603.249C276.039 603.249 276.346 602.942 276.346 602.483C276.346 602.024 276.039 601.718 275.577 601.718C275.116 601.718 274.808 602.024 274.808 602.483ZM340.943 602.483C340.943 602.942 341.251 603.249 341.712 603.249C342.173 603.249 342.481 602.942 342.481 602.483C342.481 602.024 342.173 601.718 341.712 601.718C341.251 601.718 340.943 602.024 340.943 602.483ZM348.633 605.544C348.633 606.003 348.941 606.309 349.402 606.309C349.864 606.309 350.171 606.003 350.171 605.544C350.171 605.085 349.864 604.779 349.402 604.779C348.941 604.779 348.633 605.085 348.633 605.544ZM277.884 606.768C277.884 607.074 280.345 609.829 283.268 612.89C286.19 615.95 288.651 617.634 288.651 616.562C288.651 615.491 286.19 612.737 283.268 610.441C280.345 608.146 277.884 606.462 277.884 606.768ZM443.375 622.531C442.606 624.673 442.76 624.826 444.759 623.143C447.374 621 447.681 620.082 445.682 620.082C444.913 620.082 443.836 621.153 443.375 622.531ZM301.57 627.581C304.646 630.947 305.569 631.407 305.569 629.57C305.569 628.958 304.031 627.581 302.185 626.356C298.648 624.214 298.648 624.214 301.57 627.581ZM437.838 626.969C437.838 627.428 438.146 627.734 438.607 627.734C439.068 627.734 439.376 627.428 439.376 626.969C439.376 626.509 439.068 626.203 438.607 626.203C438.146 626.203 437.838 626.509 437.838 626.969ZM432.147 631.866C429.379 633.243 427.072 634.926 427.072 635.538C427.072 636.304 429.533 635.385 432.455 633.702C440.453 628.958 440.145 627.887 432.147 631.866ZM307.568 631.866C308.183 632.325 309.106 632.325 309.721 631.866C310.183 631.253 309.721 630.794 308.645 630.794C307.568 630.794 307.107 631.253 307.568 631.866ZM311.721 633.855C311.721 634.926 312.182 635.385 312.797 634.926C313.259 634.314 313.259 633.396 312.797 632.784C312.182 632.325 311.721 632.784 311.721 633.855ZM314.797 636.151C314.797 637.069 326.486 643.037 328.178 643.037C329.716 642.884 317.565 635.385 316.027 635.385C315.258 635.385 314.797 635.691 314.797 636.151ZM422.458 638.446C421.074 639.364 420.92 639.976 421.996 639.976C422.919 639.976 424.303 639.211 424.765 638.446C425.995 636.61 425.38 636.61 422.458 638.446ZM331.715 643.802C331.715 644.261 332.023 644.567 332.484 644.567C332.945 644.567 333.253 644.261 333.253 643.802C333.253 643.343 332.945 643.037 332.484 643.037C332.023 643.037 331.715 643.343 331.715 643.802ZM412.153 644.108C412.768 644.567 413.691 644.567 414.306 644.108C414.768 643.496 414.306 643.037 413.23 643.037C412.153 643.037 411.692 643.496 412.153 644.108ZM339.097 645.639C340.174 646.098 341.558 645.945 342.02 645.486C342.635 645.026 341.712 644.567 340.02 644.72C338.328 644.72 337.867 645.179 339.097 645.639ZM407.078 645.332C407.078 645.792 407.385 646.098 407.847 646.098C408.308 646.098 408.616 645.792 408.616 645.332C408.616 644.873 408.308 644.567 407.847 644.567C407.385 644.567 407.078 644.873 407.078 645.332ZM350.171 649.158C350.171 649.923 351.248 650.689 352.478 650.689C353.709 650.689 354.785 649.923 354.785 649.158C354.785 648.24 353.709 647.628 352.478 647.628C351.248 647.628 350.171 648.24 350.171 649.158ZM390.928 649.158C389.698 651.148 391.697 651.148 394.774 649.158C396.773 647.934 396.773 647.628 394.466 647.628C393.082 647.628 391.39 648.24 390.928 649.158ZM399.388 648.393C399.388 648.852 399.695 649.158 400.157 649.158C400.618 649.158 400.926 648.852 400.926 648.393C400.926 647.934 400.618 647.628 400.157 647.628C399.695 647.628 399.388 647.934 399.388 648.393ZM359.399 650.995C359.399 651.607 365.859 652.066 373.703 652.066C389.237 651.76 388.006 651.148 370.627 650.383C364.475 650.076 359.399 650.383 359.399 650.995Z" fill="white"/>
<path d="M635.786 479.244L590.834 506.783C565.195 522.49 551.738 552.443 556.538 582.109C564.836 633.393 516.812 676.353 466.694 661.582C445.216 655.252 422.088 658.854 403.741 671.386L383.362 685.306C348.641 709.022 303.511 711.959 265.62 692.967L251.876 686.078C198.871 659.511 174.204 597.715 194.658 542.733L213.228 492.816C222.973 466.621 222.999 437.762 213.303 411.39L182.738 328.255C176.751 311.971 174.523 294.588 176.221 277.396L177.854 260.86C182.879 209.958 221.177 168.745 271.835 159.725L422.889 132.829C438.767 130.002 453.611 123.157 465.992 112.952C522.345 66.5048 608.552 102.523 615.221 175.301L621.955 248.789C624.282 274.176 635.588 297.996 653.866 316.016C702.412 363.88 693.554 443.854 635.786 479.244Z" stroke="white" stroke-width="3"/>
</svg>
