<svg width="78" height="78" viewBox="0 0 78 78" fill="none" xmlns="http://www.w3.org/2000/svg">
<path d="M50.9703 4.24723L64.6269 12.1458C67.4563 13.7822 69.6959 16.2712 71.0258 19.2569L74.8174 27.7698C76.4615 31.4612 76.599 35.6488 75.2005 39.4402L69.6673 54.4413C69.1099 55.9522 68.3205 57.3671 67.3275 58.635L57.9889 70.5576C55.0509 74.3086 50.551 76.5 45.7863 76.4999L37.9779 76.4999L27.9826 76.4999C22.5067 76.5 17.4371 73.6107 14.6464 68.8992L8.13077 57.899C7.69868 57.1696 7.32716 56.4058 7.01997 55.6156L2.7895 44.7325C-0.205528 37.0276 4.48718 28.4874 12.5967 26.8844C16.8207 26.0494 20.5421 23.5758 22.9472 20.0044L30.3536 9.00664C34.9059 2.24686 43.9155 0.166974 50.9703 4.24723Z" stroke="white" stroke-width="3"/>
</svg>
