<svg width="48" height="56" viewBox="0 0 48 56" fill="none" xmlns="http://www.w3.org/2000/svg">
<path d="M45.9314 21.9555V22.2887C45.9314 30.8491 38.9918 37.7887 30.4314 37.7887H22.9594V39.2887V40.7887C27.4546 40.7887 30.3724 45.5264 28.3495 49.5407L28.0183 50.1981C25.7399 54.7194 19.392 55.0062 16.7152 50.7087L9.79524 39.5989C9.38263 38.9365 9.02677 38.2404 8.73147 37.518L3.27362 24.1661C-0.438971 15.0837 5.11476 4.88067 14.7577 3.068L18.0147 2.45575C21.1148 1.87301 24.3189 2.24997 27.199 3.5363L36.7522 7.80287C42.3358 10.2966 45.9314 15.8403 45.9314 21.9555Z" stroke="white" stroke-width="3"/>
</svg>
