<svg xmlns="http://www.w3.org/2000/svg" xmlns:xlink="http://www.w3.org/1999/xlink" viewBox="0,0,256,256" width="100px" height="100px" fill-rule="nonzero"><g fill="#ffffff" fill-rule="nonzero" stroke="none" stroke-width="1" stroke-linecap="butt" stroke-linejoin="miter" stroke-miterlimit="10" stroke-dasharray="" stroke-dashoffset="0" font-family="none" font-weight="none" font-size="none" text-anchor="none" style="mix-blend-mode: normal"><g transform="scale(2.56,2.56)"><path d="M50,16.22852c-0.552,0 -1,0.447 -1,1v7c0,0.553 0.448,1 1,1c0.552,0 1,-0.447 1,-1v-7c0,-0.553 -0.448,-1 -1,-1zM26.66602,25.66602c-0.25575,0 -0.51153,0.09747 -0.70703,0.29297c-0.391,0.391 -0.391,1.02306 0,1.41406l5.11523,5.11523c0.195,0.195 0.45103,0.29297 0.70703,0.29297c0.256,0 0.51203,-0.09797 0.70703,-0.29297c0.391,-0.391 0.391,-1.02306 0,-1.41406l-5.11523,-5.11523c-0.1955,-0.1955 -0.45128,-0.29297 -0.70703,-0.29297zM73.03516,25.96289c-0.25575,0 -0.51153,0.09942 -0.70703,0.29492l-5.05664,5.05664c-0.391,0.391 -0.391,1.02306 0,1.41406c0.195,0.196 0.45103,0.29297 0.70703,0.29297c0.256,0 0.51203,-0.09797 0.70703,-0.29297l5.05664,-5.05664c0.391,-0.391 0.391,-1.02306 0,-1.41406c-0.1955,-0.1955 -0.45128,-0.29492 -0.70703,-0.29492zM50.5,27.22852c-12.407,0 -22.5,10.094 -22.5,22.5c0,12.406 10.093,22.5 22.5,22.5c12.407,0 22.5,-10.093 22.5,-22.5c0,-12.407 -10.093,-22.5 -22.5,-22.5zM50.5,29.22852c11.304,0 20.5,9.197 20.5,20.5c0,11.303 -9.196,20.5 -20.5,20.5c-11.304,0 -20.5,-9.196 -20.5,-20.5c0,-11.304 9.196,-20.5 20.5,-20.5zM50.5,32.22852c-9.649,0 -17.5,7.851 -17.5,17.5c0,9.649 7.851,17.5 17.5,17.5c0.276,0 0.5,-0.224 0.5,-0.5c0,-0.276 -0.224,-0.5 -0.5,-0.5c-9.098,0 -16.5,-7.402 -16.5,-16.5c0,-9.098 7.402,-16.5 16.5,-16.5c2.734,0 5.44203,0.68266 7.83203,1.97266c0.245,0.131 0.54574,0.03988 0.67773,-0.20312c0.131,-0.242 0.03988,-0.54478 -0.20312,-0.67578c-2.535,-1.37 -5.40764,-2.09375 -8.30664,-2.09375zM60.08594,35.25391c-0.12588,0.02275 -0.24327,0.09548 -0.32227,0.20898c-0.158,0.227 -0.102,0.53636 0.125,0.69336c0.381,0.265 0.75042,0.54584 1.10742,0.83984c0.093,0.077 0.20541,0.11328 0.31641,0.11328c0.145,0 0.28872,-0.06164 0.38672,-0.18164c0.176,-0.213 0.14564,-0.52712 -0.06836,-0.70312c-0.377,-0.311 -0.76888,-0.60672 -1.17187,-0.88672c-0.1135,-0.0795 -0.24717,-0.10674 -0.37305,-0.08398zM17,49.22852c-0.552,0 -1,0.447 -1,1c0,0.553 0.448,1 1,1h7c0.552,0 1,-0.447 1,-1c0,-0.553 -0.448,-1 -1,-1zM76,49.22852c-0.552,0 -1,0.447 -1,1c0,0.553 0.448,1 1,1h7c0.552,0 1,-0.447 1,-1c0,-0.553 -0.448,-1 -1,-1zM58.53125,64.14453c-0.769,0.433 -1.0862,0.61116 -1.9082,0.91016c-0.26,0.094 -0.39478,0.38062 -0.30078,0.64062c0.074,0.203 0.2667,0.33008 0.4707,0.33008c0.057,0 0.11392,-0.01125 0.16992,-0.03125c0.9,-0.326 1.28659,-0.54352 2.05859,-0.97852l-0.19336,-0.46289zM54.94336,65.66406c-0.06416,-0.00912 -0.13247,-0.00483 -0.19922,0.01367c-0.254,0.067 -0.51053,0.12859 -0.76953,0.18359c-0.27,0.058 -0.44177,0.32375 -0.38477,0.59375c0.05,0.235 0.25728,0.39648 0.48828,0.39648c0.034,0 0.07047,-0.00472 0.10547,-0.01172c0.274,-0.059 0.54641,-0.12431 0.81641,-0.19531c0.267,-0.07 0.42647,-0.34533 0.35547,-0.61133c-0.05325,-0.1995 -0.21964,-0.34176 -0.41211,-0.36914zM32.02148,66.97656c-0.25575,0.00012 -0.51153,0.09797 -0.70703,0.29297l-5.05664,5.05859c-0.391,0.391 -0.391,1.02306 0,1.41406c0.195,0.195 0.45103,0.29297 0.70703,0.29297c0.256,0 0.51203,-0.09797 0.70703,-0.29297l5.05664,-5.05859c0.391,-0.391 0.391,-1.02306 0,-1.41406c-0.1955,-0.1955 -0.45128,-0.29309 -0.70703,-0.29297zM68.14453,67.14453c-0.25575,0 -0.51153,0.09747 -0.70703,0.29297c-0.391,0.391 -0.391,1.02306 0,1.41406l5.19141,5.18945c0.195,0.195 0.45103,0.29297 0.70703,0.29297c0.256,0 0.51203,-0.09797 0.70703,-0.29297c0.391,-0.391 0.391,-1.02306 0,-1.41406l-5.19141,-5.18945c-0.1955,-0.1955 -0.45128,-0.29297 -0.70703,-0.29297zM50,74.22852c-0.552,0 -1,0.447 -1,1v7c0,0.553 0.448,1 1,1c0.552,0 1,-0.447 1,-1v-7c0,-0.552 -0.448,-1 -1,-1z"></path></g></g></svg>